<?xml version="1.0" encoding="utf-8"?><svg width="auto" height="2570" style="overflow:visible " version="1.1" xmlns="http://www.w3.org/2000/svg"><rect x="20" y="20" width="200" height="40" style="fill:white;stroke:black;stroke-width:1" /><text x="30" y="30" font-size="10" style="fill:blue">xs:schema</text><text x="30" y="40" font-size="8" style="fill:black">xmlns:xs: http://www.w3.org/2001/XMLSchema</text><text x="30" y="50" font-size="8" style="fill:black">targetNamespace: uo239795</text><text x="30" y="60" font-size="8" style="fill:black">xmlns: uo239795</text><text x="30" y="70" font-size="8" style="fill:black">elementFormDefault: qualified</text><rect x="240" y="20" width="200" height="40" style="fill:white;stroke:black;stroke-width:1" /><text x="250" y="30" font-size="10" style="fill:blue">xs:element</text><path d="M220 40 C240 40 220 40 240 40" style="fill:transparent;stroke:black" /><text x="250" y="40" font-size="8" style="fill:black">name: recetas</text><rect x="460" y="20" width="200" height="40" style="fill:white;stroke:black;stroke-width:1" /><text x="470" y="30" font-size="10" style="fill:blue">xs:complexType</text><path d="M440 40 C460 40 440 40 460 40" style="fill:transparent;stroke:black" /><rect x="680" y="20" width="200" height="40" style="fill:white;stroke:black;stroke-width:1" /><text x="690" y="30" font-size="10" style="fill:blue">xs:sequence</text><path d="M660 40 C680 40 660 40 680 40" style="fill:transparent;stroke:black" /><rect x="900" y="20" width="200" height="40" style="fill:white;stroke:black;stroke-width:1" /><text x="910" y="30" font-size="10" style="fill:blue">xs:element</text><path d="M880 40 C900 40 880 40 900 40" style="fill:transparent;stroke:black" /><text x="910" y="40" font-size="8" style="fill:black">name: receta</text><text x="910" y="50" font-size="8" style="fill:black">minOccurs: 1</text><text x="910" y="60" font-size="8" style="fill:black">maxOccurs: 1</text><rect x="1120" y="20" width="200" height="40" style="fill:white;stroke:black;stroke-width:1" /><text x="1130" y="30" font-size="10" style="fill:blue">xs:complexType</text><path d="M1100 40 C1120 40 1100 40 1120 40" style="fill:transparent;stroke:black" /><rect x="1340" y="20" width="200" height="40" style="fill:white;stroke:black;stroke-width:1" /><text x="1350" y="30" font-size="10" style="fill:blue">xs:sequence</text><path d="M1320 40 C1340 40 1320 40 1340 40" style="fill:transparent;stroke:black" /><rect x="1560" y="20" width="200" height="40" style="fill:white;stroke:black;stroke-width:1" /><text x="1570" y="30" font-size="10" style="fill:blue">xs:element</text><path d="M1540 40 C1560 40 1540 40 1560 40" style="fill:transparent;stroke:black" /><text x="1570" y="40" font-size="8" style="fill:black">name: nombre</text><text x="1570" y="50" font-size="8" style="fill:black">type: xs:string</text><text x="1570" y="60" font-size="8" style="fill:black">minOccurs: 1</text><text x="1570" y="70" font-size="8" style="fill:black">maxOccurs: 1</text><rect x="1560" y="70" width="200" height="40" style="fill:white;stroke:black;stroke-width:1" /><text x="1570" y="80" font-size="10" style="fill:blue">xs:element</text><path d="M1540 40 C1560 40 1540 90 1560 90" style="fill:transparent;stroke:black" /><text x="1570" y="90" font-size="8" style="fill:black">name: ingredientes</text><text x="1570" y="100" font-size="8" style="fill:black">minOccurs: 1</text><text x="1570" y="110" font-size="8" style="fill:black">maxOccurs: 1</text><rect x="1780" y="70" width="200" height="40" style="fill:white;stroke:black;stroke-width:1" /><text x="1790" y="80" font-size="10" style="fill:blue">xs:complexType</text><path d="M1760 90 C1780 90 1760 90 1780 90" style="fill:transparent;stroke:black" /><rect x="2000" y="70" width="200" height="40" style="fill:white;stroke:black;stroke-width:1" /><text x="2010" y="80" font-size="10" style="fill:blue">xs:sequence</text><path d="M1980 90 C2000 90 1980 90 2000 90" style="fill:transparent;stroke:black" /><rect x="2220" y="70" width="200" height="40" style="fill:white;stroke:black;stroke-width:1" /><text x="2230" y="80" font-size="10" style="fill:blue">xs:element</text><path d="M2200 90 C2220 90 2200 90 2220 90" style="fill:transparent;stroke:black" /><text x="2230" y="90" font-size="8" style="fill:black">name: ingrediente</text><text x="2230" y="100" font-size="8" style="fill:black">minOccurs: 1</text><text x="2230" y="110" font-size="8" style="fill:black">maxOccurs: unbounded</text><rect x="2440" y="70" width="200" height="40" style="fill:white;stroke:black;stroke-width:1" /><text x="2450" y="80" font-size="10" style="fill:blue">xs:complexType</text><path d="M2420 90 C2440 90 2420 90 2440 90" style="fill:transparent;stroke:black" /><rect x="2660" y="70" width="200" height="40" style="fill:white;stroke:black;stroke-width:1" /><text x="2670" y="80" font-size="10" style="fill:blue">xs:sequence</text><path d="M2640 90 C2660 90 2640 90 2660 90" style="fill:transparent;stroke:black" /><rect x="2880" y="70" width="200" height="40" style="fill:white;stroke:black;stroke-width:1" /><text x="2890" y="80" font-size="10" style="fill:blue">xs:element</text><path d="M2860 90 C2880 90 2860 90 2880 90" style="fill:transparent;stroke:black" /><text x="2890" y="90" font-size="8" style="fill:black">name: nombreIngrediente</text><text x="2890" y="100" font-size="8" style="fill:black">type: xs:string</text><rect x="2880" y="120" width="200" height="40" style="fill:white;stroke:black;stroke-width:1" /><text x="2890" y="130" font-size="10" style="fill:blue">xs:element</text><path d="M2860 90 C2880 90 2860 140 2880 140" style="fill:transparent;stroke:black" /><text x="2890" y="140" font-size="8" style="fill:black">name: cantidad</text><text x="2890" y="150" font-size="8" style="fill:black">type: xs:string</text><rect x="1560" y="470" width="200" height="40" style="fill:white;stroke:black;stroke-width:1" /><text x="1570" y="480" font-size="10" style="fill:blue">xs:element</text><path d="M1540 40 C1560 40 1540 490 1560 490" style="fill:transparent;stroke:black" /><text x="1570" y="490" font-size="8" style="fill:black">name: calorias</text><text x="1570" y="500" font-size="8" style="fill:black">minOccurs: 0</text><text x="1570" y="510" font-size="8" style="fill:black">maxOccurs: 1</text><rect x="1780" y="470" width="200" height="40" style="fill:white;stroke:black;stroke-width:1" /><text x="1790" y="480" font-size="10" style="fill:blue">xs:simpleType</text><path d="M1760 490 C1780 490 1760 490 1780 490" style="fill:transparent;stroke:black" /><rect x="2000" y="470" width="200" height="40" style="fill:white;stroke:black;stroke-width:1" /><text x="2010" y="480" font-size="10" style="fill:blue">xs:restriction</text><path d="M1980 490 C2000 490 1980 490 2000 490" style="fill:transparent;stroke:black" /><rect x="2220" y="470" width="200" height="40" style="fill:white;stroke:black;stroke-width:1" /><text x="2230" y="480" font-size="10" style="fill:blue">xs:minInclusive</text><path d="M2200 490 C2220 490 2200 490 2220 490" style="fill:transparent;stroke:black" /><text x="2230" y="490" font-size="8" style="fill:black">value: 1</text><rect x="1560" y="670" width="200" height="40" style="fill:white;stroke:black;stroke-width:1" /><text x="1570" y="680" font-size="10" style="fill:blue">xs:element</text><path d="M1540 40 C1560 40 1540 690 1560 690" style="fill:transparent;stroke:black" /><text x="1570" y="690" font-size="8" style="fill:black">name: elaboración</text><text x="1570" y="700" font-size="8" style="fill:black">minOccurs: 1</text><text x="1570" y="710" font-size="8" style="fill:black">maxOccurs: 1</text><rect x="1780" y="670" width="200" height="40" style="fill:white;stroke:black;stroke-width:1" /><text x="1790" y="680" font-size="10" style="fill:blue">xs:complexType</text><path d="M1760 690 C1780 690 1760 690 1780 690" style="fill:transparent;stroke:black" /><rect x="2000" y="670" width="200" height="40" style="fill:white;stroke:black;stroke-width:1" /><text x="2010" y="680" font-size="10" style="fill:blue">xs:sequence</text><path d="M1980 690 C2000 690 1980 690 2000 690" style="fill:transparent;stroke:black" /><rect x="2220" y="670" width="200" height="40" style="fill:white;stroke:black;stroke-width:1" /><text x="2230" y="680" font-size="10" style="fill:blue">xs:element</text><path d="M2200 690 C2220 690 2200 690 2220 690" style="fill:transparent;stroke:black" /><text x="2230" y="690" font-size="8" style="fill:black">name: paso</text><text x="2230" y="700" font-size="8" style="fill:black">minOccurs: 1</text><text x="2230" y="710" font-size="8" style="fill:black">maxOccurs: unbounded</text><rect x="2440" y="670" width="200" height="40" style="fill:white;stroke:black;stroke-width:1" /><text x="2450" y="680" font-size="10" style="fill:blue">xs:complexType</text><path d="M2420 690 C2440 690 2420 690 2440 690" style="fill:transparent;stroke:black" /><rect x="2660" y="670" width="200" height="40" style="fill:white;stroke:black;stroke-width:1" /><text x="2670" y="680" font-size="10" style="fill:blue">xs:simpleContent</text><path d="M2640 690 C2660 690 2640 690 2660 690" style="fill:transparent;stroke:black" /><rect x="2880" y="670" width="200" height="40" style="fill:white;stroke:black;stroke-width:1" /><text x="2890" y="680" font-size="10" style="fill:blue">xs:extension</text><path d="M2860 690 C2880 690 2860 690 2880 690" style="fill:transparent;stroke:black" /><text x="2890" y="690" font-size="8" style="fill:black">base: xs:string</text><rect x="3100" y="670" width="200" height="40" style="fill:white;stroke:black;stroke-width:1" /><text x="3110" y="680" font-size="10" style="fill:blue">xs:attribute</text><path d="M3080 690 C3100 690 3080 690 3100 690" style="fill:transparent;stroke:black" /><text x="3110" y="690" font-size="8" style="fill:black">name: número</text><rect x="3320" y="670" width="200" height="40" style="fill:white;stroke:black;stroke-width:1" /><text x="3330" y="680" font-size="10" style="fill:blue">xs:simpleType</text><path d="M3300 690 C3320 690 3300 690 3320 690" style="fill:transparent;stroke:black" /><rect x="3540" y="670" width="200" height="40" style="fill:white;stroke:black;stroke-width:1" /><text x="3550" y="680" font-size="10" style="fill:blue">xs:restriction</text><path d="M3520 690 C3540 690 3520 690 3540 690" style="fill:transparent;stroke:black" /><rect x="3760" y="670" width="200" height="40" style="fill:white;stroke:black;stroke-width:1" /><text x="3770" y="680" font-size="10" style="fill:blue">xs:minInclusive</text><path d="M3740 690 C3760 690 3740 690 3760 690" style="fill:transparent;stroke:black" /><text x="3770" y="690" font-size="8" style="fill:black">value: 1</text><rect x="1560" y="1220" width="200" height="40" style="fill:white;stroke:black;stroke-width:1" /><text x="1570" y="1230" font-size="10" style="fill:blue">xs:element</text><path d="M1540 40 C1560 40 1540 1240 1560 1240" style="fill:transparent;stroke:black" /><text x="1570" y="1240" font-size="8" style="fill:black">name: tiempo</text><text x="1570" y="1250" font-size="8" style="fill:black">type: xs:string</text><text x="1570" y="1260" font-size="8" style="fill:black">minOccurs: 1</text><text x="1570" y="1270" font-size="8" style="fill:black">maxOccurs: 1</text><rect x="1560" y="1270" width="200" height="40" style="fill:white;stroke:black;stroke-width:1" /><text x="1570" y="1280" font-size="10" style="fill:blue">xs:element</text><path d="M1540 40 C1560 40 1540 1290 1560 1290" style="fill:transparent;stroke:black" /><text x="1570" y="1290" font-size="8" style="fill:black">name: utensilios</text><text x="1570" y="1300" font-size="8" style="fill:black">minOccurs: 1</text><text x="1570" y="1310" font-size="8" style="fill:black">maxOccurs: 1</text><rect x="1780" y="1270" width="200" height="40" style="fill:white;stroke:black;stroke-width:1" /><text x="1790" y="1280" font-size="10" style="fill:blue">xs:complexType</text><path d="M1760 1290 C1780 1290 1760 1290 1780 1290" style="fill:transparent;stroke:black" /><rect x="2000" y="1270" width="200" height="40" style="fill:white;stroke:black;stroke-width:1" /><text x="2010" y="1280" font-size="10" style="fill:blue">xs:sequence</text><path d="M1980 1290 C2000 1290 1980 1290 2000 1290" style="fill:transparent;stroke:black" /><rect x="2220" y="1270" width="200" height="40" style="fill:white;stroke:black;stroke-width:1" /><text x="2230" y="1280" font-size="10" style="fill:blue">xs:element</text><path d="M2200 1290 C2220 1290 2200 1290 2220 1290" style="fill:transparent;stroke:black" /><text x="2230" y="1290" font-size="8" style="fill:black">name: utensilio</text><text x="2230" y="1300" font-size="8" style="fill:black">type: xs:string</text><text x="2230" y="1310" font-size="8" style="fill:black">minOccurs: 1</text><text x="2230" y="1320" font-size="8" style="fill:black">maxOccurs: unbounded</text><rect x="1560" y="1470" width="200" height="40" style="fill:white;stroke:black;stroke-width:1" /><text x="1570" y="1480" font-size="10" style="fill:blue">xs:element</text><path d="M1540 40 C1560 40 1540 1490 1560 1490" style="fill:transparent;stroke:black" /><text x="1570" y="1490" font-size="8" style="fill:black">name: origen</text><text x="1570" y="1500" font-size="8" style="fill:black">type: xs:string</text><text x="1570" y="1510" font-size="8" style="fill:black">minOccurs: 1</text><text x="1570" y="1520" font-size="8" style="fill:black">maxOccurs: 1</text><rect x="1340" y="1570" width="200" height="40" style="fill:white;stroke:black;stroke-width:1" /><text x="1350" y="1580" font-size="10" style="fill:blue">xs:attribute</text><path d="M1320 40 C1340 40 1320 1590 1340 1590" style="fill:transparent;stroke:black" /><text x="1350" y="1590" font-size="8" style="fill:black">name: tipoPlato</text><text x="1350" y="1600" font-size="8" style="fill:black">use: required</text><rect x="1560" y="1570" width="200" height="40" style="fill:white;stroke:black;stroke-width:1" /><text x="1570" y="1580" font-size="10" style="fill:blue">xs:simpleType</text><path d="M1540 1590 C1560 1590 1540 1590 1560 1590" style="fill:transparent;stroke:black" /><rect x="1780" y="1570" width="200" height="40" style="fill:white;stroke:black;stroke-width:1" /><text x="1790" y="1580" font-size="10" style="fill:blue">xs:restriction</text><path d="M1760 1590 C1780 1590 1760 1590 1780 1590" style="fill:transparent;stroke:black" /><text x="1790" y="1590" font-size="8" style="fill:black">base: xs:string</text><rect x="2000" y="1570" width="200" height="40" style="fill:white;stroke:black;stroke-width:1" /><text x="2010" y="1580" font-size="10" style="fill:blue">xs:enumeration</text><path d="M1980 1590 C2000 1590 1980 1590 2000 1590" style="fill:transparent;stroke:black" /><text x="2010" y="1590" font-size="8" style="fill:black">value: aperitivo</text><rect x="2000" y="1620" width="200" height="40" style="fill:white;stroke:black;stroke-width:1" /><text x="2010" y="1630" font-size="10" style="fill:blue">xs:enumeration</text><path d="M1980 1590 C2000 1590 1980 1640 2000 1640" style="fill:transparent;stroke:black" /><text x="2010" y="1640" font-size="8" style="fill:black">value: entrante</text><rect x="2000" y="1670" width="200" height="40" style="fill:white;stroke:black;stroke-width:1" /><text x="2010" y="1680" font-size="10" style="fill:blue">xs:enumeration</text><path d="M1980 1590 C2000 1590 1980 1690 2000 1690" style="fill:transparent;stroke:black" /><text x="2010" y="1690" font-size="8" style="fill:black">value: primerPlato</text><rect x="2000" y="1720" width="200" height="40" style="fill:white;stroke:black;stroke-width:1" /><text x="2010" y="1730" font-size="10" style="fill:blue">xs:enumeration</text><path d="M1980 1590 C2000 1590 1980 1740 2000 1740" style="fill:transparent;stroke:black" /><text x="2010" y="1740" font-size="8" style="fill:black">value: segundoPlato</text><rect x="2000" y="1770" width="200" height="40" style="fill:white;stroke:black;stroke-width:1" /><text x="2010" y="1780" font-size="10" style="fill:blue">xs:enumeration</text><path d="M1980 1590 C2000 1590 1980 1790 2000 1790" style="fill:transparent;stroke:black" /><text x="2010" y="1790" font-size="8" style="fill:black">value: postre</text><rect x="1340" y="1970" width="200" height="40" style="fill:white;stroke:black;stroke-width:1" /><text x="1350" y="1980" font-size="10" style="fill:blue">xs:attribute</text><path d="M1320 40 C1340 40 1320 1990 1340 1990" style="fill:transparent;stroke:black" /><text x="1350" y="1990" font-size="8" style="fill:black">name: dificultad</text><text x="1350" y="2000" font-size="8" style="fill:black">use: required</text><rect x="1560" y="1970" width="200" height="40" style="fill:white;stroke:black;stroke-width:1" /><text x="1570" y="1980" font-size="10" style="fill:blue">xs:simpleType</text><path d="M1540 1990 C1560 1990 1540 1990 1560 1990" style="fill:transparent;stroke:black" /><rect x="1780" y="1970" width="200" height="40" style="fill:white;stroke:black;stroke-width:1" /><text x="1790" y="1980" font-size="10" style="fill:blue">xs:restriction</text><path d="M1760 1990 C1780 1990 1760 1990 1780 1990" style="fill:transparent;stroke:black" /><text x="1790" y="1990" font-size="8" style="fill:black">base: xs:string</text><rect x="2000" y="1970" width="200" height="40" style="fill:white;stroke:black;stroke-width:1" /><text x="2010" y="1980" font-size="10" style="fill:blue">xs:enumeration</text><path d="M1980 1990 C2000 1990 1980 1990 2000 1990" style="fill:transparent;stroke:black" /><text x="2010" y="1990" font-size="8" style="fill:black">value: fácil</text><rect x="2000" y="2020" width="200" height="40" style="fill:white;stroke:black;stroke-width:1" /><text x="2010" y="2030" font-size="10" style="fill:blue">xs:enumeration</text><path d="M1980 1990 C2000 1990 1980 2040 2000 2040" style="fill:transparent;stroke:black" /><text x="2010" y="2040" font-size="8" style="fill:black">value: media</text><rect x="2000" y="2070" width="200" height="40" style="fill:white;stroke:black;stroke-width:1" /><text x="2010" y="2080" font-size="10" style="fill:blue">xs:enumeration</text><path d="M1980 1990 C2000 1990 1980 2090 2000 2090" style="fill:transparent;stroke:black" /><text x="2010" y="2090" font-size="8" style="fill:black">value: difícil</text></svg>