<?xml version="1.0" encoding="utf-8"?>
<svg width="auto" height="4270" style="overflow:visible " version="1.1" xmlns="http://www.w3.org/2000/svg">
    <rect x="20" y="20" width="200" height="40" style="fill:white;stroke:black;stroke-width:1"/>
    <text x="30" y="30" font-size="10" style="fill:blue">html</text>
    <text x="30" y="40" font-size="8" style="fill:black">lang: es</text>
    <rect x="240" y="20" width="200" height="40" style="fill:white;stroke:black;stroke-width:1"/>
    <text x="250" y="30" font-size="10" style="fill:blue">head</text>
    <path d="M220 40 C240 40 220 40 240 40" style="fill:transparent;stroke:black"/>
    <rect x="460" y="20" width="200" height="40" style="fill:white;stroke:black;stroke-width:1"/>
    <text x="470" y="30" font-size="10" style="fill:blue">meta</text>
    <path d="M440 40 C460 40 440 40 460 40" style="fill:transparent;stroke:black"/>
    <text x="470" y="40" font-size="8" style="fill:black">charset: utf-8</text>
    <rect x="460" y="70" width="200" height="40" style="fill:white;stroke:black;stroke-width:1"/>
    <text x="470" y="80" font-size="10" style="fill:blue">meta</text>
    <path d="M440 40 C460 40 440 90 460 90" style="fill:transparent;stroke:black"/>
    <text x="470" y="90" font-size="8" style="fill:black">name: author</text>
    <text x="470" y="100" font-size="8" style="fill:black">content: Iván González Mahagamage</text>
    <rect x="460" y="120" width="200" height="40" style="fill:white;stroke:black;stroke-width:1"/>
    <text x="470" y="130" font-size="10" style="fill:blue">meta</text>
    <path d="M440 40 C460 40 440 140 460 140" style="fill:transparent;stroke:black"/>
    <text x="470" y="140" font-size="8" style="fill:black">name: description</text>
    <text x="470" y="150" font-size="8" style="fill:black">content: Práctica 05 de la asignatura Software y Estándares
        para la Web
    </text>
    <rect x="460" y="170" width="200" height="40" style="fill:white;stroke:black;stroke-width:1"/>
    <text x="470" y="180" font-size="10" style="fill:blue">meta</text>
    <path d="M440 40 C460 40 440 190 460 190" style="fill:transparent;stroke:black"/>
    <text x="470" y="190" font-size="8" style="fill:black">name: keywords</text>
    <text x="470" y="200" font-size="8" style="fill:black">content:
        Práctica,05,HTML,HTML5,introduccion,Software,Estándares,Web
    </text>
    <rect x="460" y="220" width="200" height="40" style="fill:white;stroke:black;stroke-width:1"/>
    <text x="470" y="230" font-size="10" style="fill:blue">title</text>
    <path d="M440 40 C460 40 440 240 460 240" style="fill:transparent;stroke:black"/>
    <rect x="526" y="220" width="137" height="40" style="fill:green;stroke:black;stroke-width:1"/>
    <text x="536" y="230" font-size="8" style="fill:white">Práctica 05 | Software y Estándares para la Web</text>
    <rect x="460" y="270" width="200" height="40" style="fill:white;stroke:black;stroke-width:1"/>
    <text x="470" y="280" font-size="10" style="fill:blue">link</text>
    <path d="M440 40 C460 40 440 290 460 290" style="fill:transparent;stroke:black"/>
    <text x="470" y="290" font-size="8" style="fill:black">href: https://fonts.googleapis.com/css?family=Ubuntu</text>
    <text x="470" y="300" font-size="8" style="fill:black">rel: stylesheet</text>
    <rect x="460" y="320" width="200" height="40" style="fill:white;stroke:black;stroke-width:1"/>
    <text x="470" y="330" font-size="10" style="fill:blue">link</text>
    <path d="M440 40 C460 40 440 340 460 340" style="fill:transparent;stroke:black"/>
    <text x="470" y="340" font-size="8" style="fill:black">href: https://fonts.googleapis.com/css?family=Titillium+Web
    </text>
    <text x="470" y="350" font-size="8" style="fill:black">rel: stylesheet</text>
    <rect x="460" y="370" width="200" height="40" style="fill:white;stroke:black;stroke-width:1"/>
    <text x="470" y="380" font-size="10" style="fill:blue">link</text>
    <path d="M440 40 C460 40 440 390 460 390" style="fill:transparent;stroke:black"/>
    <text x="470" y="390" font-size="8" style="fill:black">rel: icon</text>
    <text x="470" y="400" font-size="8" style="fill:black">type: image/x-icon</text>
    <text x="470" y="410" font-size="8" style="fill:black">href:
        https://unioviedo-my.sharepoint.com/personal/uo239795_uniovi_es/_layouts/15/guestaccess.aspx?docid=1b184fdc380484a7bbdad079aa2a52135&amp;authkey=ATTjsDQ1WDwFg-XqhaEbSF4&amp;e=168190abc0264416a06fc92675ca41aa
    </text>
    <rect x="460" y="420" width="200" height="40" style="fill:white;stroke:black;stroke-width:1"/>
    <text x="470" y="430" font-size="10" style="fill:blue">link</text>
    <path d="M440 40 C460 40 440 440 460 440" style="fill:transparent;stroke:black"/>
    <text x="470" y="440" font-size="8" style="fill:black">rel: stylesheet</text>
    <text x="470" y="450" font-size="8" style="fill:black">type: text/css</text>
    <text x="470" y="460" font-size="8" style="fill:black">href: ../../style/navDesplegable.css</text>
    <rect x="460" y="470" width="200" height="40" style="fill:white;stroke:black;stroke-width:1"/>
    <text x="470" y="480" font-size="10" style="fill:blue">link</text>
    <path d="M440 40 C460 40 440 490 460 490" style="fill:transparent;stroke:black"/>
    <text x="470" y="490" font-size="8" style="fill:black">rel: stylesheet</text>
    <text x="470" y="500" font-size="8" style="fill:black">type: text/css</text>
    <text x="470" y="510" font-size="8" style="fill:black">href: ../../style/style.css</text>
    <rect x="460" y="520" width="200" height="40" style="fill:white;stroke:black;stroke-width:1"/>
    <text x="470" y="530" font-size="10" style="fill:blue">link</text>
    <path d="M440 40 C460 40 440 540 460 540" style="fill:transparent;stroke:black"/>
    <text x="470" y="540" font-size="8" style="fill:black">rel: stylesheet</text>
    <text x="470" y="550" font-size="8" style="fill:black">type: text/css</text>
    <text x="470" y="560" font-size="8" style="fill:black">href: ../../style/practica05.css</text>
    <rect x="240" y="620" width="200" height="40" style="fill:white;stroke:black;stroke-width:1"/>
    <text x="250" y="630" font-size="10" style="fill:blue">body</text>
    <path d="M220 40 C240 40 220 640 240 640" style="fill:transparent;stroke:black"/>
    <rect x="460" y="620" width="200" height="40" style="fill:white;stroke:black;stroke-width:1"/>
    <text x="470" y="630" font-size="10" style="fill:blue">header</text>
    <path d="M440 640 C460 640 440 640 460 640" style="fill:transparent;stroke:black"/>
    <rect x="680" y="620" width="200" height="40" style="fill:white;stroke:black;stroke-width:1"/>
    <text x="690" y="630" font-size="10" style="fill:blue">h1</text>
    <path d="M660 640 C680 640 660 640 680 640" style="fill:transparent;stroke:black"/>
    <rect x="746" y="620" width="137" height="40" style="fill:green;stroke:black;stroke-width:1"/>
    <text x="756" y="630" font-size="8" style="fill:white">Canción de hielo y fuego</text>
    <rect x="680" y="670" width="200" height="40" style="fill:white;stroke:black;stroke-width:1"/>
    <text x="690" y="680" font-size="10" style="fill:blue">nav</text>
    <path d="M660 640 C680 640 660 690 680 690" style="fill:transparent;stroke:black"/>
    <rect x="900" y="670" width="200" height="40" style="fill:white;stroke:black;stroke-width:1"/>
    <text x="910" y="680" font-size="10" style="fill:blue">ul</text>
    <path d="M880 690 C900 690 880 690 900 690" style="fill:transparent;stroke:black"/>
    <rect x="1120" y="670" width="200" height="40" style="fill:white;stroke:black;stroke-width:1"/>
    <text x="1130" y="680" font-size="10" style="fill:blue">li</text>
    <path d="M1100 690 C1120 690 1100 690 1120 690" style="fill:transparent;stroke:black"/>
    <rect x="1340" y="670" width="200" height="40" style="fill:white;stroke:black;stroke-width:1"/>
    <text x="1350" y="680" font-size="10" style="fill:blue">a</text>
    <path d="M1320 690 C1340 690 1320 690 1340 690" style="fill:transparent;stroke:black"/>
    <text x="1350" y="690" font-size="8" style="fill:black">href: ../../index.html</text>
    <rect x="1406" y="670" width="137" height="40" style="fill:green;stroke:black;stroke-width:1"/>
    <text x="1416" y="680" font-size="8" style="fill:white">Portada</text>
    <rect x="1120" y="770" width="200" height="40" style="fill:white;stroke:black;stroke-width:1"/>
    <text x="1130" y="780" font-size="10" style="fill:blue">li</text>
    <path d="M1100 690 C1120 690 1100 790 1120 790" style="fill:transparent;stroke:black"/>
    <rect x="1340" y="770" width="200" height="40" style="fill:white;stroke:black;stroke-width:1"/>
    <text x="1350" y="780" font-size="10" style="fill:blue">a</text>
    <path d="M1320 790 C1340 790 1320 790 1340 790" style="fill:transparent;stroke:black"/>
    <text x="1350" y="790" font-size="8" style="fill:black">href: ../../aficiones.html</text>
    <rect x="1406" y="770" width="137" height="40" style="fill:green;stroke:black;stroke-width:1"/>
    <text x="1416" y="780" font-size="8" style="fill:white">Aficiones</text>
    <rect x="1120" y="870" width="200" height="40" style="fill:white;stroke:black;stroke-width:1"/>
    <text x="1130" y="880" font-size="10" style="fill:blue">li</text>
    <path d="M1100 690 C1120 690 1100 890 1120 890" style="fill:transparent;stroke:black"/>
    <rect x="1340" y="870" width="200" height="40" style="fill:white;stroke:black;stroke-width:1"/>
    <text x="1350" y="880" font-size="10" style="fill:blue">a</text>
    <path d="M1320 890 C1340 890 1320 890 1340 890" style="fill:transparent;stroke:black"/>
    <text x="1350" y="890" font-size="8" style="fill:black">href: ../../sew.html</text>
    <rect x="1406" y="870" width="137" height="40" style="fill:green;stroke:black;stroke-width:1"/>
    <text x="1416" y="880" font-size="8" style="fill:white">SEW</text>
    <rect x="1340" y="920" width="200" height="40" style="fill:white;stroke:black;stroke-width:1"/>
    <text x="1350" y="930" font-size="10" style="fill:blue">ul</text>
    <path d="M1320 890 C1340 890 1320 940 1340 940" style="fill:transparent;stroke:black"/>
    <rect x="1560" y="920" width="200" height="40" style="fill:white;stroke:black;stroke-width:1"/>
    <text x="1570" y="930" font-size="10" style="fill:blue">li</text>
    <path d="M1540 940 C1560 940 1540 940 1560 940" style="fill:transparent;stroke:black"/>
    <rect x="1780" y="920" width="200" height="40" style="fill:white;stroke:black;stroke-width:1"/>
    <text x="1790" y="930" font-size="10" style="fill:blue">a</text>
    <path d="M1760 940 C1780 940 1760 940 1780 940" style="fill:transparent;stroke:black"/>
    <text x="1790" y="940" font-size="8" style="fill:black">href: ../../SEW/p0/index.html</text>
    <rect x="1846" y="920" width="137" height="40" style="fill:green;stroke:black;stroke-width:1"/>
    <text x="1856" y="930" font-size="8" style="fill:white">Práctica 00</text>
    <rect x="1560" y="1020" width="200" height="40" style="fill:white;stroke:black;stroke-width:1"/>
    <text x="1570" y="1030" font-size="10" style="fill:blue">li</text>
    <path d="M1540 940 C1560 940 1540 1040 1560 1040" style="fill:transparent;stroke:black"/>
    <rect x="1780" y="1020" width="200" height="40" style="fill:white;stroke:black;stroke-width:1"/>
    <text x="1790" y="1030" font-size="10" style="fill:blue">a</text>
    <path d="M1760 1040 C1780 1040 1760 1040 1780 1040" style="fill:transparent;stroke:black"/>
    <text x="1790" y="1040" font-size="8" style="fill:black">href: ../../SEW/p1/p1.html</text>
    <rect x="1846" y="1020" width="137" height="40" style="fill:green;stroke:black;stroke-width:1"/>
    <text x="1856" y="1030" font-size="8" style="fill:white">Práctica 01</text>
    <rect x="1560" y="1120" width="200" height="40" style="fill:white;stroke:black;stroke-width:1"/>
    <text x="1570" y="1130" font-size="10" style="fill:blue">li</text>
    <path d="M1540 940 C1560 940 1540 1140 1560 1140" style="fill:transparent;stroke:black"/>
    <rect x="1780" y="1120" width="200" height="40" style="fill:white;stroke:black;stroke-width:1"/>
    <text x="1790" y="1130" font-size="10" style="fill:blue">a</text>
    <path d="M1760 1140 C1780 1140 1760 1140 1780 1140" style="fill:transparent;stroke:black"/>
    <text x="1790" y="1140" font-size="8" style="fill:black">href: ../../SEW/p3/p3.html</text>
    <rect x="1846" y="1120" width="137" height="40" style="fill:green;stroke:black;stroke-width:1"/>
    <text x="1856" y="1130" font-size="8" style="fill:white">Práctica 03</text>
    <rect x="1780" y="1170" width="200" height="40" style="fill:white;stroke:black;stroke-width:1"/>
    <text x="1790" y="1180" font-size="10" style="fill:blue">ul</text>
    <path d="M1760 1140 C1780 1140 1760 1190 1780 1190" style="fill:transparent;stroke:black"/>
    <rect x="2000" y="1170" width="200" height="40" style="fill:white;stroke:black;stroke-width:1"/>
    <text x="2010" y="1180" font-size="10" style="fill:blue">li</text>
    <path d="M1980 1190 C2000 1190 1980 1190 2000 1190" style="fill:transparent;stroke:black"/>
    <rect x="2220" y="1170" width="200" height="40" style="fill:white;stroke:black;stroke-width:1"/>
    <text x="2230" y="1180" font-size="10" style="fill:blue">a</text>
    <path d="M2200 1190 C2220 1190 2200 1190 2220 1190" style="fill:transparent;stroke:black"/>
    <text x="2230" y="1190" font-size="8" style="fill:black">href: ../../SEW/p3/p3_1_introduccion.html</text>
    <rect x="2286" y="1170" width="137" height="40" style="fill:green;stroke:black;stroke-width:1"/>
    <text x="2296" y="1180" font-size="8" style="fill:white">Introducción</text>
    <rect x="2000" y="1270" width="200" height="40" style="fill:white;stroke:black;stroke-width:1"/>
    <text x="2010" y="1280" font-size="10" style="fill:blue">li</text>
    <path d="M1980 1190 C2000 1190 1980 1290 2000 1290" style="fill:transparent;stroke:black"/>
    <rect x="2220" y="1270" width="200" height="40" style="fill:white;stroke:black;stroke-width:1"/>
    <text x="2230" y="1280" font-size="10" style="fill:blue">a</text>
    <path d="M2200 1290 C2220 1290 2200 1290 2220 1290" style="fill:transparent;stroke:black"/>
    <text x="2230" y="1290" font-size="8" style="fill:black">href: ../../SEW/p3/p3_2_libros.html</text>
    <rect x="2286" y="1270" width="137" height="40" style="fill:green;stroke:black;stroke-width:1"/>
    <text x="2296" y="1280" font-size="8" style="fill:white">Libros</text>
    <rect x="2000" y="1370" width="200" height="40" style="fill:white;stroke:black;stroke-width:1"/>
    <text x="2010" y="1380" font-size="10" style="fill:blue">li</text>
    <path d="M1980 1190 C2000 1190 1980 1390 2000 1390" style="fill:transparent;stroke:black"/>
    <rect x="2220" y="1370" width="200" height="40" style="fill:white;stroke:black;stroke-width:1"/>
    <text x="2230" y="1380" font-size="10" style="fill:blue">a</text>
    <path d="M2200 1390 C2220 1390 2200 1390 2220 1390" style="fill:transparent;stroke:black"/>
    <text x="2230" y="1390" font-size="8" style="fill:black">href: ../../SEW/p3/p3_3_resumen.html</text>
    <rect x="2286" y="1370" width="137" height="40" style="fill:green;stroke:black;stroke-width:1"/>
    <text x="2296" y="1380" font-size="8" style="fill:white">Resumen</text>
    <rect x="2000" y="1470" width="200" height="40" style="fill:white;stroke:black;stroke-width:1"/>
    <text x="2010" y="1480" font-size="10" style="fill:blue">li</text>
    <path d="M1980 1190 C2000 1190 1980 1490 2000 1490" style="fill:transparent;stroke:black"/>
    <rect x="2220" y="1470" width="200" height="40" style="fill:white;stroke:black;stroke-width:1"/>
    <text x="2230" y="1480" font-size="10" style="fill:blue">a</text>
    <path d="M2200 1490 C2220 1490 2200 1490 2220 1490" style="fill:transparent;stroke:black"/>
    <text x="2230" y="1490" font-size="8" style="fill:black">href: ../../SEW/p3/p3_4_personajes.html</text>
    <rect x="2286" y="1470" width="137" height="40" style="fill:green;stroke:black;stroke-width:1"/>
    <text x="2296" y="1480" font-size="8" style="fill:white">Personajes</text>
    <rect x="2000" y="1570" width="200" height="40" style="fill:white;stroke:black;stroke-width:1"/>
    <text x="2010" y="1580" font-size="10" style="fill:blue">li</text>
    <path d="M1980 1190 C2000 1190 1980 1590 2000 1590" style="fill:transparent;stroke:black"/>
    <rect x="2220" y="1570" width="200" height="40" style="fill:white;stroke:black;stroke-width:1"/>
    <text x="2230" y="1580" font-size="10" style="fill:blue">a</text>
    <path d="M2200 1590 C2220 1590 2200 1590 2220 1590" style="fill:transparent;stroke:black"/>
    <text x="2230" y="1590" font-size="8" style="fill:black">href: ../../SEW/p3/p3_5_fuentes.html</text>
    <rect x="2286" y="1570" width="137" height="40" style="fill:green;stroke:black;stroke-width:1"/>
    <text x="2296" y="1580" font-size="8" style="fill:white">Fuentes</text>
    <rect x="2000" y="1670" width="200" height="40" style="fill:white;stroke:black;stroke-width:1"/>
    <text x="2010" y="1680" font-size="10" style="fill:blue">li</text>
    <path d="M1980 1190 C2000 1190 1980 1690 2000 1690" style="fill:transparent;stroke:black"/>
    <rect x="2220" y="1670" width="200" height="40" style="fill:white;stroke:black;stroke-width:1"/>
    <text x="2230" y="1680" font-size="10" style="fill:blue">a</text>
    <path d="M2200 1690 C2220 1690 2200 1690 2220 1690" style="fill:transparent;stroke:black"/>
    <text x="2230" y="1690" font-size="8" style="fill:black">href: ../../SEW/p3/p3_6_adaptaciones.html</text>
    <rect x="2286" y="1670" width="137" height="40" style="fill:green;stroke:black;stroke-width:1"/>
    <text x="2296" y="1680" font-size="8" style="fill:white">Adaptaciones</text>
    <rect x="2000" y="1770" width="200" height="40" style="fill:white;stroke:black;stroke-width:1"/>
    <text x="2010" y="1780" font-size="10" style="fill:blue">li</text>
    <path d="M1980 1190 C2000 1190 1980 1790 2000 1790" style="fill:transparent;stroke:black"/>
    <rect x="2220" y="1770" width="200" height="40" style="fill:white;stroke:black;stroke-width:1"/>
    <text x="2230" y="1780" font-size="10" style="fill:blue">a</text>
    <path d="M2200 1790 C2220 1790 2200 1790 2220 1790" style="fill:transparent;stroke:black"/>
    <text x="2230" y="1790" font-size="8" style="fill:black">href: ../../SEW/p3/p3_7_mas.html</text>
    <rect x="2286" y="1770" width="137" height="40" style="fill:green;stroke:black;stroke-width:1"/>
    <text x="2296" y="1780" font-size="8" style="fill:white">Más información</text>
    <rect x="1560" y="1970" width="200" height="40" style="fill:white;stroke:black;stroke-width:1"/>
    <text x="1570" y="1980" font-size="10" style="fill:blue">li</text>
    <path d="M1540 940 C1560 940 1540 1990 1560 1990" style="fill:transparent;stroke:black"/>
    <rect x="1780" y="1970" width="200" height="40" style="fill:white;stroke:black;stroke-width:1"/>
    <text x="1790" y="1980" font-size="10" style="fill:blue">a</text>
    <path d="M1760 1990 C1780 1990 1760 1990 1780 1990" style="fill:transparent;stroke:black"/>
    <text x="1790" y="1990" font-size="8" style="fill:black">href: ../../SEW/p5/p5.html</text>
    <rect x="1846" y="1970" width="137" height="40" style="fill:green;stroke:black;stroke-width:1"/>
    <text x="1856" y="1980" font-size="8" style="fill:white">Práctica 05</text>
    <rect x="1780" y="2020" width="200" height="40" style="fill:white;stroke:black;stroke-width:1"/>
    <text x="1790" y="2030" font-size="10" style="fill:blue">ul</text>
    <path d="M1760 1990 C1780 1990 1760 2040 1780 2040" style="fill:transparent;stroke:black"/>
    <rect x="2000" y="2020" width="200" height="40" style="fill:white;stroke:black;stroke-width:1"/>
    <text x="2010" y="2030" font-size="10" style="fill:blue">li</text>
    <path d="M1980 2040 C2000 2040 1980 2040 2000 2040" style="fill:transparent;stroke:black"/>
    <rect x="2220" y="2020" width="200" height="40" style="fill:white;stroke:black;stroke-width:1"/>
    <text x="2230" y="2030" font-size="10" style="fill:blue">a</text>
    <path d="M2200 2040 C2220 2040 2200 2040 2220 2040" style="fill:transparent;stroke:black"/>
    <text x="2230" y="2040" font-size="8" style="fill:black">href: ../../SEW/p5/p5_1_introduccion.html</text>
    <rect x="2286" y="2020" width="137" height="40" style="fill:green;stroke:black;stroke-width:1"/>
    <text x="2296" y="2030" font-size="8" style="fill:white">Introducción</text>
    <rect x="2000" y="2120" width="200" height="40" style="fill:white;stroke:black;stroke-width:1"/>
    <text x="2010" y="2130" font-size="10" style="fill:blue">li</text>
    <path d="M1980 2040 C2000 2040 1980 2140 2000 2140" style="fill:transparent;stroke:black"/>
    <rect x="2220" y="2120" width="200" height="40" style="fill:white;stroke:black;stroke-width:1"/>
    <text x="2230" y="2130" font-size="10" style="fill:blue">a</text>
    <path d="M2200 2140 C2220 2140 2200 2140 2220 2140" style="fill:transparent;stroke:black"/>
    <text x="2230" y="2140" font-size="8" style="fill:black">href: ../../SEW/p5/p5_2_libros.html</text>
    <rect x="2286" y="2120" width="137" height="40" style="fill:green;stroke:black;stroke-width:1"/>
    <text x="2296" y="2130" font-size="8" style="fill:white">Libros</text>
    <rect x="2000" y="2220" width="200" height="40" style="fill:white;stroke:black;stroke-width:1"/>
    <text x="2010" y="2230" font-size="10" style="fill:blue">li</text>
    <path d="M1980 2040 C2000 2040 1980 2240 2000 2240" style="fill:transparent;stroke:black"/>
    <rect x="2220" y="2220" width="200" height="40" style="fill:white;stroke:black;stroke-width:1"/>
    <text x="2230" y="2230" font-size="10" style="fill:blue">a</text>
    <path d="M2200 2240 C2220 2240 2200 2240 2220 2240" style="fill:transparent;stroke:black"/>
    <text x="2230" y="2240" font-size="8" style="fill:black">href: ../../SEW/p5/p5_3_resumen.html</text>
    <rect x="2286" y="2220" width="137" height="40" style="fill:green;stroke:black;stroke-width:1"/>
    <text x="2296" y="2230" font-size="8" style="fill:white">Resumen</text>
    <rect x="2000" y="2320" width="200" height="40" style="fill:white;stroke:black;stroke-width:1"/>
    <text x="2010" y="2330" font-size="10" style="fill:blue">li</text>
    <path d="M1980 2040 C2000 2040 1980 2340 2000 2340" style="fill:transparent;stroke:black"/>
    <rect x="2220" y="2320" width="200" height="40" style="fill:white;stroke:black;stroke-width:1"/>
    <text x="2230" y="2330" font-size="10" style="fill:blue">a</text>
    <path d="M2200 2340 C2220 2340 2200 2340 2220 2340" style="fill:transparent;stroke:black"/>
    <text x="2230" y="2340" font-size="8" style="fill:black">href: ../../SEW/p5/p5_4_personajes.html</text>
    <rect x="2286" y="2320" width="137" height="40" style="fill:green;stroke:black;stroke-width:1"/>
    <text x="2296" y="2330" font-size="8" style="fill:white">Personajes</text>
    <rect x="2000" y="2420" width="200" height="40" style="fill:white;stroke:black;stroke-width:1"/>
    <text x="2010" y="2430" font-size="10" style="fill:blue">li</text>
    <path d="M1980 2040 C2000 2040 1980 2440 2000 2440" style="fill:transparent;stroke:black"/>
    <rect x="2220" y="2420" width="200" height="40" style="fill:white;stroke:black;stroke-width:1"/>
    <text x="2230" y="2430" font-size="10" style="fill:blue">a</text>
    <path d="M2200 2440 C2220 2440 2200 2440 2220 2440" style="fill:transparent;stroke:black"/>
    <text x="2230" y="2440" font-size="8" style="fill:black">href: ../../SEW/p5/p5_5_fuentes.html</text>
    <rect x="2286" y="2420" width="137" height="40" style="fill:green;stroke:black;stroke-width:1"/>
    <text x="2296" y="2430" font-size="8" style="fill:white">Fuentes</text>
    <rect x="2000" y="2520" width="200" height="40" style="fill:white;stroke:black;stroke-width:1"/>
    <text x="2010" y="2530" font-size="10" style="fill:blue">li</text>
    <path d="M1980 2040 C2000 2040 1980 2540 2000 2540" style="fill:transparent;stroke:black"/>
    <rect x="2220" y="2520" width="200" height="40" style="fill:white;stroke:black;stroke-width:1"/>
    <text x="2230" y="2530" font-size="10" style="fill:blue">a</text>
    <path d="M2200 2540 C2220 2540 2200 2540 2220 2540" style="fill:transparent;stroke:black"/>
    <text x="2230" y="2540" font-size="8" style="fill:black">href: ../../SEW/p5/p5_6_adaptaciones.html</text>
    <rect x="2286" y="2520" width="137" height="40" style="fill:green;stroke:black;stroke-width:1"/>
    <text x="2296" y="2530" font-size="8" style="fill:white">Adaptaciones</text>
    <rect x="2000" y="2620" width="200" height="40" style="fill:white;stroke:black;stroke-width:1"/>
    <text x="2010" y="2630" font-size="10" style="fill:blue">li</text>
    <path d="M1980 2040 C2000 2040 1980 2640 2000 2640" style="fill:transparent;stroke:black"/>
    <rect x="2220" y="2620" width="200" height="40" style="fill:white;stroke:black;stroke-width:1"/>
    <text x="2230" y="2630" font-size="10" style="fill:blue">a</text>
    <path d="M2200 2640 C2220 2640 2200 2640 2220 2640" style="fill:transparent;stroke:black"/>
    <text x="2230" y="2640" font-size="8" style="fill:black">href: ../../SEW/p5/p5_7_mas.html</text>
    <rect x="2286" y="2620" width="137" height="40" style="fill:green;stroke:black;stroke-width:1"/>
    <text x="2296" y="2630" font-size="8" style="fill:white">Más información</text>
    <rect x="460" y="3070" width="200" height="40" style="fill:white;stroke:black;stroke-width:1"/>
    <text x="470" y="3080" font-size="10" style="fill:blue">main</text>
    <path d="M440 640 C460 640 440 3090 460 3090" style="fill:transparent;stroke:black"/>
    <rect x="680" y="3070" width="200" height="40" style="fill:white;stroke:black;stroke-width:1"/>
    <text x="690" y="3080" font-size="10" style="fill:blue">h2</text>
    <path d="M660 3090 C680 3090 660 3090 680 3090" style="fill:transparent;stroke:black"/>
    <rect x="746" y="3070" width="137" height="40" style="fill:green;stroke:black;stroke-width:1"/>
    <text x="756" y="3080" font-size="8" style="fill:white">Introducción</text>
    <rect x="680" y="3120" width="200" height="40" style="fill:white;stroke:black;stroke-width:1"/>
    <text x="690" y="3130" font-size="10" style="fill:blue">p</text>
    <path d="M660 3090 C680 3090 660 3140 680 3140" style="fill:transparent;stroke:black"/>
    <rect x="746" y="3120" width="137" height="40" style="fill:green;stroke:black;stroke-width:1"/>
    <text x="756" y="3130" font-size="8" style="fill:white">
        Es una multipremiada serie de novelas de fantasía épica escritas por el novelista y guionista estadounidense
        George R. R. Martin. Martin comenzó a escribir la serie en 1993 y el primer tomo se publicó en 1996.
        Originalmente planeada como una trilogía, actualmente se espera que la serie sea una heptalogía, ya que tiene
        cinco tomos publicados y dos más planeados. También hay tres novelas cortas que actúan como precuelas de la
        serie; y una serie de novelas cortas que recopilan los capítulos dedicados a un personaje determinado, ya
        publicados en las novelas principales. La serie ha sido traducida a más de treinta idiomas y el cuarto tomo
        alcanzó el primer lugar en la lista de best sellers del New York Times tras su publicación. En septiembre de
        2013, la serie había vendido alrededor de 24 millones de copias en todo el mundo.
    </text>
    <rect x="680" y="3170" width="200" height="40" style="fill:white;stroke:black;stroke-width:1"/>
    <text x="690" y="3180" font-size="10" style="fill:blue">p</text>
    <path d="M660 3090 C680 3090 660 3190 680 3190" style="fill:transparent;stroke:black"/>
    <rect x="746" y="3170" width="137" height="40" style="fill:green;stroke:black;stroke-width:1"/>
    <text x="756" y="3180" font-size="8" style="fill:white">
        La historia de Canción de hielo y fuego se sitúa en un mundo ficticio medieval, principalmente en un continente
        llamado Poniente pero también en un vasto continente oriental, conocido como Essos. La mayor parte de los
        personajes son humanos, pero a medida que la serie avanza aparecen otras razas.
    </text>
    <rect x="680" y="3220" width="200" height="40" style="fill:white;stroke:black;stroke-width:1"/>
    <text x="690" y="3230" font-size="10" style="fill:blue">p</text>
    <path d="M660 3090 C680 3090 660 3240 680 3240" style="fill:transparent;stroke:black"/>
    <rect x="746" y="3220" width="137" height="40" style="fill:green;stroke:black;stroke-width:1"/>
    <text x="756" y="3230" font-size="8" style="fill:white">Hay tres líneas argumentales en la serie:</text>
    <rect x="680" y="3270" width="200" height="40" style="fill:white;stroke:black;stroke-width:1"/>
    <text x="690" y="3280" font-size="10" style="fill:blue">ul</text>
    <path d="M660 3090 C680 3090 660 3290 680 3290" style="fill:transparent;stroke:black"/>
    <rect x="900" y="3270" width="200" height="40" style="fill:white;stroke:black;stroke-width:1"/>
    <text x="910" y="3280" font-size="10" style="fill:blue">li</text>
    <path d="M880 3290 C900 3290 880 3290 900 3290" style="fill:transparent;stroke:black"/>
    <rect x="966" y="3270" width="137" height="40" style="fill:green;stroke:black;stroke-width:1"/>
    <text x="976" y="3280" font-size="8" style="fill:white">la crónica de la guerra civil dinástica por el control de
        Poniente entre varias familias nobles;
    </text>
    <rect x="900" y="3320" width="200" height="40" style="fill:white;stroke:black;stroke-width:1"/>
    <text x="910" y="3330" font-size="10" style="fill:blue">li</text>
    <path d="M880 3290 C900 3290 880 3340 900 3340" style="fill:transparent;stroke:black"/>
    <rect x="966" y="3320" width="137" height="40" style="fill:green;stroke:black;stroke-width:1"/>
    <text x="976" y="3330" font-size="8" style="fill:white">la creciente amenaza de los Otros y los salvajes, apenas
        contenida por un inmenso muro de hielo que protege
        el norte de Poniente;
    </text>
    <rect x="900" y="3370" width="200" height="40" style="fill:white;stroke:black;stroke-width:1"/>
    <text x="910" y="3380" font-size="10" style="fill:blue">li</text>
    <path d="M880 3290 C900 3290 880 3390 900 3390" style="fill:transparent;stroke:black"/>
    <rect x="966" y="3370" width="137" height="40" style="fill:green;stroke:black;stroke-width:1"/>
    <text x="976" y="3380" font-size="8" style="fill:white">
        y el viaje de Daenerys Targaryen, la hija exiliada del rey que fue asesinado en otra guerra civil quince
        años antes del comienzo de la serie, quien busca regresar a Poniente a reclamar sus derechos.
    </text>
    <rect x="680" y="3470" width="200" height="40" style="fill:white;stroke:black;stroke-width:1"/>
    <text x="690" y="3480" font-size="10" style="fill:blue">p</text>
    <path d="M660 3090 C680 3090 660 3490 680 3490" style="fill:transparent;stroke:black"/>
    <rect x="746" y="3470" width="137" height="40" style="fill:green;stroke:black;stroke-width:1"/>
    <text x="756" y="3480" font-size="8" style="fill:white">
        Estas tres historias interactúan entre sí y son extremadamente codependientes. La serie está narrada en tercera
        persona a través de los ojos de varios personajes. Al final del quinto tomo, ha habido treinta y un puntos de
        vista, incluyendo nueve personajes que solo han aparecido una vez (ocho de ellos, porque mueren violentamente).
        Si bien la serie se sitúa en un mundo ficticio y Martin ha citado a J. R. R. Tolkien, Jack Vance y a Tad
        Williams, como sus influencias, la serie difiere de los trabajos de estos autores en el hecho de que se interesa
        y utiliza más los elementos realistas que los fantásticos. Mientras Tolkien se inspiraba en la mitología,
        Canción de hielo y fuego se inspira en la historia medieval, especialmente en la Guerra de las Dos Rosas y la
        dinámica de su primer libro, así como la trama principal, es muy similar a la obra Los reyes malditos del
        escritor Maurice Druon, sobre la cual Martin ha dicho que es "el verdadero juego de tronos" y que "los Stark y
        los Lannister no aventajan en nada a los Capetos y los Plantagenet". Asimismo, la serie se considera una de las
        obras más innovadoras del género, debido al gran número y la complejidad de sus personajes, lo intrincado de las
        tramas políticas, y su falta de censura en temas de violencia, sexo o incluso al abordar tabúes como el incesto.
    </text>
    <rect x="680" y="3520" width="200" height="40" style="fill:white;stroke:black;stroke-width:1"/>
    <text x="690" y="3530" font-size="10" style="fill:blue">p</text>
    <path d="M660 3090 C680 3090 660 3540 680 3540" style="fill:transparent;stroke:black"/>
    <rect x="900" y="3520" width="200" height="40" style="fill:white;stroke:black;stroke-width:1"/>
    <text x="910" y="3530" font-size="10" style="fill:blue">a</text>
    <path d="M880 3540 C900 3540 880 3540 900 3540" style="fill:transparent;stroke:black"/>
    <text x="910" y="3540" font-size="8" style="fill:black">href: ../p1/p1.svg</text>
    <rect x="966" y="3520" width="137" height="40" style="fill:green;stroke:black;stroke-width:1"/>
    <text x="976" y="3530" font-size="8" style="fill:white">Enlace al árbol DOM</text>
    <rect x="460" y="3670" width="200" height="40" style="fill:white;stroke:black;stroke-width:1"/>
    <text x="470" y="3680" font-size="10" style="fill:blue">footer</text>
    <path d="M440 640 C460 640 440 3690 460 3690" style="fill:transparent;stroke:black"/>
    <rect x="680" y="3670" width="200" height="40" style="fill:white;stroke:black;stroke-width:1"/>
    <text x="690" y="3680" font-size="10" style="fill:blue">address</text>
    <path d="M660 3690 C680 3690 660 3690 680 3690" style="fill:transparent;stroke:black"/>
    <rect x="900" y="3670" width="200" height="40" style="fill:white;stroke:black;stroke-width:1"/>
    <text x="910" y="3680" font-size="10" style="fill:blue">p</text>
    <path d="M880 3690 C900 3690 880 3690 900 3690" style="fill:transparent;stroke:black"/>
    <rect x="966" y="3670" width="137" height="40" style="fill:green;stroke:black;stroke-width:1"/>
    <text x="976" y="3680" font-size="8" style="fill:white">Autor: Iván González Mahagamage</text>
    <rect x="900" y="3720" width="200" height="40" style="fill:white;stroke:black;stroke-width:1"/>
    <text x="910" y="3730" font-size="10" style="fill:blue">p</text>
    <path d="M880 3690 C900 3690 880 3740 900 3740" style="fill:transparent;stroke:black"/>
    <rect x="966" y="3720" width="137" height="40" style="fill:green;stroke:black;stroke-width:1"/>
    <text x="976" y="3730" font-size="8" style="fill:white">Contacto:</text>
    <rect x="1120" y="3720" width="200" height="40" style="fill:white;stroke:black;stroke-width:1"/>
    <text x="1130" y="3730" font-size="10" style="fill:blue">a</text>
    <path d="M1100 3740 C1120 3740 1100 3740 1120 3740" style="fill:transparent;stroke:black"/>
    <text x="1130" y="3740" font-size="8" style="fill:black">href: mailto:uo239795@uniovi.es</text>
    <rect x="1186" y="3720" width="137" height="40" style="fill:green;stroke:black;stroke-width:1"/>
    <text x="1196" y="3730" font-size="8" style="fill:white">uo239795@uniovi.es</text>
    <rect x="680" y="3870" width="200" height="40" style="fill:white;stroke:black;stroke-width:1"/>
    <text x="690" y="3880" font-size="10" style="fill:blue">p</text>
    <path d="M660 3690 C680 3690 660 3890 680 3890" style="fill:transparent;stroke:black"/>
    <rect x="900" y="3870" width="200" height="40" style="fill:white;stroke:black;stroke-width:1"/>
    <text x="910" y="3880" font-size="10" style="fill:blue">a</text>
    <path d="M880 3890 C900 3890 880 3890 900 3890" style="fill:transparent;stroke:black"/>
    <text x="910" y="3890" font-size="8" style="fill:black">href: https://validator.w3.org/check?uri=referer</text>
    <rect x="1120" y="3870" width="200" height="40" style="fill:white;stroke:black;stroke-width:1"/>
    <text x="1130" y="3880" font-size="10" style="fill:blue">img</text>
    <path d="M1100 3890 C1120 3890 1100 3890 1120 3890" style="fill:transparent;stroke:black"/>
    <text x="1130" y="3890" font-size="8" style="fill:black">src:
        https://unioviedo-my.sharepoint.com/personal/uo239795_uniovi_es/_layouts/15/guestaccess.aspx?docid=1dc29309c5f484ddbb0d9db5b1c80c434&amp;authkey=ARFq9i5Nm2QpUmJj55IcDgQ&amp;e=705a58700abd4191a586e91989da4a0e
    </text>
    <text x="1130" y="3900" font-size="8" style="fill:black">alt: HTML5 Válido</text>
    <text x="1130" y="3910" font-size="8" style="fill:black">longdesc: https://validator.w3.org/check?uri=referer</text>
    <rect x="900" y="3970" width="200" height="40" style="fill:white;stroke:black;stroke-width:1"/>
    <text x="910" y="3980" font-size="10" style="fill:blue">a</text>
    <path d="M880 3890 C900 3890 880 3990 900 3990" style="fill:transparent;stroke:black"/>
    <text x="910" y="3990" font-size="8" style="fill:black">href: http://jigsaw.w3.org/css-validator/check/referer
    </text>
    <rect x="1120" y="3970" width="200" height="40" style="fill:white;stroke:black;stroke-width:1"/>
    <text x="1130" y="3980" font-size="10" style="fill:blue">img</text>
    <path d="M1100 3990 C1120 3990 1100 3990 1120 3990" style="fill:transparent;stroke:black"/>
    <text x="1130" y="3990" font-size="8" style="fill:black">src:
        https://unioviedo-my.sharepoint.com/personal/uo239795_uniovi_es/_layouts/15/guestaccess.aspx?docid=190f4b784428a40a2b969ae7f977a3d85&amp;authkey=AegPExwjY0qZ80NLtEpPmYo&amp;amp;e=41cf2c002341476e8abb088bc7c0a15b
    </text>
    <text x="1130" y="4000" font-size="8" style="fill:black">alt: ¡CSS Válido!</text>
</svg>