<?xml version="1.0" encoding="utf-8"?>
<svg width="auto" height="6220" style="overflow:visible " version="1.1" xmlns="http://www.w3.org/2000/svg">
    <rect x="20" y="20" width="200" height="40" style="fill:white;stroke:black;stroke-width:1"/>
    <text x="30" y="30" font-size="10" style="fill:blue">html</text>
    <text x="30" y="40" font-size="8" style="fill:black">lang: es</text>
    <rect x="240" y="20" width="200" height="40" style="fill:white;stroke:black;stroke-width:1"/>
    <text x="250" y="30" font-size="10" style="fill:blue">head</text>
    <path d="M220 40 C240 40 220 40 240 40" style="fill:transparent;stroke:black"/>
    <rect x="460" y="20" width="200" height="40" style="fill:white;stroke:black;stroke-width:1"/>
    <text x="470" y="30" font-size="10" style="fill:blue">meta</text>
    <path d="M440 40 C460 40 440 40 460 40" style="fill:transparent;stroke:black"/>
    <text x="470" y="40" font-size="8" style="fill:black">charset: utf-8</text>
    <rect x="460" y="70" width="200" height="40" style="fill:white;stroke:black;stroke-width:1"/>
    <text x="470" y="80" font-size="10" style="fill:blue">meta</text>
    <path d="M440 40 C460 40 440 90 460 90" style="fill:transparent;stroke:black"/>
    <text x="470" y="90" font-size="8" style="fill:black">name: author</text>
    <text x="470" y="100" font-size="8" style="fill:black">content: Iván González Mahagamage</text>
    <rect x="460" y="120" width="200" height="40" style="fill:white;stroke:black;stroke-width:1"/>
    <text x="470" y="130" font-size="10" style="fill:blue">meta</text>
    <path d="M440 40 C460 40 440 140 460 140" style="fill:transparent;stroke:black"/>
    <text x="470" y="140" font-size="8" style="fill:black">name: description</text>
    <text x="470" y="150" font-size="8" style="fill:black">content: Indice de las prácticas de la asignatura Software y
        Estándares para la Web
    </text>
    <rect x="460" y="170" width="200" height="40" style="fill:white;stroke:black;stroke-width:1"/>
    <text x="470" y="180" font-size="10" style="fill:blue">meta</text>
    <path d="M440 40 C460 40 440 190 460 190" style="fill:transparent;stroke:black"/>
    <text x="470" y="190" font-size="8" style="fill:black">name: keywords</text>
    <text x="470" y="200" font-size="8" style="fill:black">content: Software,Estándares,Web,sew</text>
    <rect x="460" y="220" width="200" height="40" style="fill:white;stroke:black;stroke-width:1"/>
    <text x="470" y="230" font-size="10" style="fill:blue">title</text>
    <path d="M440 40 C460 40 440 240 460 240" style="fill:transparent;stroke:black"/>
    <rect x="526" y="220" width="137" height="40" style="fill:green;stroke:black;stroke-width:1"/>
    <text x="536" y="230" font-size="8" style="fill:white">SEW | UO239795</text>
    <rect x="460" y="270" width="200" height="40" style="fill:white;stroke:black;stroke-width:1"/>
    <text x="470" y="280" font-size="10" style="fill:blue">link</text>
    <path d="M440 40 C460 40 440 290 460 290" style="fill:transparent;stroke:black"/>
    <text x="470" y="290" font-size="8" style="fill:black">href: https://fonts.googleapis.com/css?family=Ubuntu</text>
    <text x="470" y="300" font-size="8" style="fill:black">rel: stylesheet</text>
    <rect x="460" y="320" width="200" height="40" style="fill:white;stroke:black;stroke-width:1"/>
    <text x="470" y="330" font-size="10" style="fill:blue">link</text>
    <path d="M440 40 C460 40 440 340 460 340" style="fill:transparent;stroke:black"/>
    <text x="470" y="340" font-size="8" style="fill:black">href: https://fonts.googleapis.com/css?family=Titillium+Web
    </text>
    <text x="470" y="350" font-size="8" style="fill:black">rel: stylesheet</text>
    <rect x="460" y="370" width="200" height="40" style="fill:white;stroke:black;stroke-width:1"/>
    <text x="470" y="380" font-size="10" style="fill:blue">link</text>
    <path d="M440 40 C460 40 440 390 460 390" style="fill:transparent;stroke:black"/>
    <text x="470" y="390" font-size="8" style="fill:black">rel: icon</text>
    <text x="470" y="400" font-size="8" style="fill:black">type: image/x-icon</text>
    <text x="470" y="410" font-size="8" style="fill:black">href:
        https://unioviedo-my.sharepoint.com/personal/uo239795_uniovi_es/_layouts/15/guestaccess.aspx?docid=1b184fdc380484a7bbdad079aa2a52135&amp;authkey=ATTjsDQ1WDwFg-XqhaEbSF4&amp;e=168190abc0264416a06fc92675ca41aa
    </text>
    <rect x="460" y="420" width="200" height="40" style="fill:white;stroke:black;stroke-width:1"/>
    <text x="470" y="430" font-size="10" style="fill:blue">link</text>
    <path d="M440 40 C460 40 440 440 460 440" style="fill:transparent;stroke:black"/>
    <text x="470" y="440" font-size="8" style="fill:black">rel: stylesheet</text>
    <text x="470" y="450" font-size="8" style="fill:black">type: text/css</text>
    <text x="470" y="460" font-size="8" style="fill:black">href: style/navDesplegable.css</text>
    <rect x="460" y="470" width="200" height="40" style="fill:white;stroke:black;stroke-width:1"/>
    <text x="470" y="480" font-size="10" style="fill:blue">link</text>
    <path d="M440 40 C460 40 440 490 460 490" style="fill:transparent;stroke:black"/>
    <text x="470" y="490" font-size="8" style="fill:black">rel: stylesheet</text>
    <text x="470" y="500" font-size="8" style="fill:black">type: text/css</text>
    <text x="470" y="510" font-size="8" style="fill:black">href: style/style.css</text>
    <rect x="240" y="570" width="200" height="40" style="fill:white;stroke:black;stroke-width:1"/>
    <text x="250" y="580" font-size="10" style="fill:blue">body</text>
    <path d="M220 40 C240 40 220 590 240 590" style="fill:transparent;stroke:black"/>
    <rect x="460" y="570" width="200" height="40" style="fill:white;stroke:black;stroke-width:1"/>
    <text x="470" y="580" font-size="10" style="fill:blue">header</text>
    <path d="M440 590 C460 590 440 590 460 590" style="fill:transparent;stroke:black"/>
    <rect x="680" y="570" width="200" height="40" style="fill:white;stroke:black;stroke-width:1"/>
    <text x="690" y="580" font-size="10" style="fill:blue">h1</text>
    <path d="M660 590 C680 590 660 590 680 590" style="fill:transparent;stroke:black"/>
    <rect x="746" y="570" width="137" height="40" style="fill:green;stroke:black;stroke-width:1"/>
    <text x="756" y="580" font-size="8" style="fill:white">Prácticas de Software y Estándares para la Web</text>
    <rect x="680" y="620" width="200" height="40" style="fill:white;stroke:black;stroke-width:1"/>
    <text x="690" y="630" font-size="10" style="fill:blue">nav</text>
    <path d="M660 590 C680 590 660 640 680 640" style="fill:transparent;stroke:black"/>
    <rect x="900" y="620" width="200" height="40" style="fill:white;stroke:black;stroke-width:1"/>
    <text x="910" y="630" font-size="10" style="fill:blue">ul</text>
    <path d="M880 640 C900 640 880 640 900 640" style="fill:transparent;stroke:black"/>
    <rect x="1120" y="620" width="200" height="40" style="fill:white;stroke:black;stroke-width:1"/>
    <text x="1130" y="630" font-size="10" style="fill:blue">li</text>
    <path d="M1100 640 C1120 640 1100 640 1120 640" style="fill:transparent;stroke:black"/>
    <rect x="1340" y="620" width="200" height="40" style="fill:white;stroke:black;stroke-width:1"/>
    <text x="1350" y="630" font-size="10" style="fill:blue">a</text>
    <path d="M1320 640 C1340 640 1320 640 1340 640" style="fill:transparent;stroke:black"/>
    <text x="1350" y="640" font-size="8" style="fill:black">href: index.html</text>
    <rect x="1406" y="620" width="137" height="40" style="fill:green;stroke:black;stroke-width:1"/>
    <text x="1416" y="630" font-size="8" style="fill:white">Portada</text>
    <rect x="1120" y="720" width="200" height="40" style="fill:white;stroke:black;stroke-width:1"/>
    <text x="1130" y="730" font-size="10" style="fill:blue">li</text>
    <path d="M1100 640 C1120 640 1100 740 1120 740" style="fill:transparent;stroke:black"/>
    <rect x="1340" y="720" width="200" height="40" style="fill:white;stroke:black;stroke-width:1"/>
    <text x="1350" y="730" font-size="10" style="fill:blue">a</text>
    <path d="M1320 740 C1340 740 1320 740 1340 740" style="fill:transparent;stroke:black"/>
    <text x="1350" y="740" font-size="8" style="fill:black">href: aficiones.html</text>
    <rect x="1406" y="720" width="137" height="40" style="fill:green;stroke:black;stroke-width:1"/>
    <text x="1416" y="730" font-size="8" style="fill:white">Aficiones</text>
    <rect x="1120" y="820" width="200" height="40" style="fill:white;stroke:black;stroke-width:1"/>
    <text x="1130" y="830" font-size="10" style="fill:blue">li</text>
    <path d="M1100 640 C1120 640 1100 840 1120 840" style="fill:transparent;stroke:black"/>
    <rect x="1340" y="820" width="200" height="40" style="fill:white;stroke:black;stroke-width:1"/>
    <text x="1350" y="830" font-size="10" style="fill:blue">a</text>
    <path d="M1320 840 C1340 840 1320 840 1340 840" style="fill:transparent;stroke:black"/>
    <text x="1350" y="840" font-size="8" style="fill:black">href: sew.html</text>
    <rect x="1406" y="820" width="137" height="40" style="fill:green;stroke:black;stroke-width:1"/>
    <text x="1416" y="830" font-size="8" style="fill:white">SEW</text>
    <rect x="1340" y="870" width="200" height="40" style="fill:white;stroke:black;stroke-width:1"/>
    <text x="1350" y="880" font-size="10" style="fill:blue">ul</text>
    <path d="M1320 840 C1340 840 1320 890 1340 890" style="fill:transparent;stroke:black"/>
    <rect x="1560" y="870" width="200" height="40" style="fill:white;stroke:black;stroke-width:1"/>
    <text x="1570" y="880" font-size="10" style="fill:blue">li</text>
    <path d="M1540 890 C1560 890 1540 890 1560 890" style="fill:transparent;stroke:black"/>
    <rect x="1780" y="870" width="200" height="40" style="fill:white;stroke:black;stroke-width:1"/>
    <text x="1790" y="880" font-size="10" style="fill:blue">a</text>
    <path d="M1760 890 C1780 890 1760 890 1780 890" style="fill:transparent;stroke:black"/>
    <text x="1790" y="890" font-size="8" style="fill:black">href: SEW/p0/index.html</text>
    <rect x="1846" y="870" width="137" height="40" style="fill:green;stroke:black;stroke-width:1"/>
    <text x="1856" y="880" font-size="8" style="fill:white">Práctica 00</text>
    <rect x="1560" y="970" width="200" height="40" style="fill:white;stroke:black;stroke-width:1"/>
    <text x="1570" y="980" font-size="10" style="fill:blue">li</text>
    <path d="M1540 890 C1560 890 1540 990 1560 990" style="fill:transparent;stroke:black"/>
    <rect x="1780" y="970" width="200" height="40" style="fill:white;stroke:black;stroke-width:1"/>
    <text x="1790" y="980" font-size="10" style="fill:blue">a</text>
    <path d="M1760 990 C1780 990 1760 990 1780 990" style="fill:transparent;stroke:black"/>
    <text x="1790" y="990" font-size="8" style="fill:black">href: SEW/p1/p1.html</text>
    <rect x="1846" y="970" width="137" height="40" style="fill:green;stroke:black;stroke-width:1"/>
    <text x="1856" y="980" font-size="8" style="fill:white">Práctica 01</text>
    <rect x="1560" y="1070" width="200" height="40" style="fill:white;stroke:black;stroke-width:1"/>
    <text x="1570" y="1080" font-size="10" style="fill:blue">li</text>
    <path d="M1540 890 C1560 890 1540 1090 1560 1090" style="fill:transparent;stroke:black"/>
    <rect x="1780" y="1070" width="200" height="40" style="fill:white;stroke:black;stroke-width:1"/>
    <text x="1790" y="1080" font-size="10" style="fill:blue">a</text>
    <path d="M1760 1090 C1780 1090 1760 1090 1780 1090" style="fill:transparent;stroke:black"/>
    <text x="1790" y="1090" font-size="8" style="fill:black">href: SEW/p2/p2.html</text>
    <rect x="1846" y="1070" width="137" height="40" style="fill:green;stroke:black;stroke-width:1"/>
    <text x="1856" y="1080" font-size="8" style="fill:white">Práctica 02</text>
    <rect x="1560" y="1170" width="200" height="40" style="fill:white;stroke:black;stroke-width:1"/>
    <text x="1570" y="1180" font-size="10" style="fill:blue">li</text>
    <path d="M1540 890 C1560 890 1540 1190 1560 1190" style="fill:transparent;stroke:black"/>
    <rect x="1780" y="1170" width="200" height="40" style="fill:white;stroke:black;stroke-width:1"/>
    <text x="1790" y="1180" font-size="10" style="fill:blue">a</text>
    <path d="M1760 1190 C1780 1190 1760 1190 1780 1190" style="fill:transparent;stroke:black"/>
    <text x="1790" y="1190" font-size="8" style="fill:black">href: SEW/p3/p3.html</text>
    <rect x="1846" y="1170" width="137" height="40" style="fill:green;stroke:black;stroke-width:1"/>
    <text x="1856" y="1180" font-size="8" style="fill:white">Práctica 03</text>
    <rect x="1780" y="1220" width="200" height="40" style="fill:white;stroke:black;stroke-width:1"/>
    <text x="1790" y="1230" font-size="10" style="fill:blue">ul</text>
    <path d="M1760 1190 C1780 1190 1760 1240 1780 1240" style="fill:transparent;stroke:black"/>
    <rect x="2000" y="1220" width="200" height="40" style="fill:white;stroke:black;stroke-width:1"/>
    <text x="2010" y="1230" font-size="10" style="fill:blue">li</text>
    <path d="M1980 1240 C2000 1240 1980 1240 2000 1240" style="fill:transparent;stroke:black"/>
    <rect x="2220" y="1220" width="200" height="40" style="fill:white;stroke:black;stroke-width:1"/>
    <text x="2230" y="1230" font-size="10" style="fill:blue">a</text>
    <path d="M2200 1240 C2220 1240 2200 1240 2220 1240" style="fill:transparent;stroke:black"/>
    <text x="2230" y="1240" font-size="8" style="fill:black">href: SEW/p3/p3_1_introduccion.html</text>
    <rect x="2286" y="1220" width="137" height="40" style="fill:green;stroke:black;stroke-width:1"/>
    <text x="2296" y="1230" font-size="8" style="fill:white">Introducción P3</text>
    <rect x="2000" y="1320" width="200" height="40" style="fill:white;stroke:black;stroke-width:1"/>
    <text x="2010" y="1330" font-size="10" style="fill:blue">li</text>
    <path d="M1980 1240 C2000 1240 1980 1340 2000 1340" style="fill:transparent;stroke:black"/>
    <rect x="2220" y="1320" width="200" height="40" style="fill:white;stroke:black;stroke-width:1"/>
    <text x="2230" y="1330" font-size="10" style="fill:blue">a</text>
    <path d="M2200 1340 C2220 1340 2200 1340 2220 1340" style="fill:transparent;stroke:black"/>
    <text x="2230" y="1340" font-size="8" style="fill:black">href: SEW/p3/p3_2_libros.html</text>
    <rect x="2286" y="1320" width="137" height="40" style="fill:green;stroke:black;stroke-width:1"/>
    <text x="2296" y="1330" font-size="8" style="fill:white">Libros P3</text>
    <rect x="2000" y="1420" width="200" height="40" style="fill:white;stroke:black;stroke-width:1"/>
    <text x="2010" y="1430" font-size="10" style="fill:blue">li</text>
    <path d="M1980 1240 C2000 1240 1980 1440 2000 1440" style="fill:transparent;stroke:black"/>
    <rect x="2220" y="1420" width="200" height="40" style="fill:white;stroke:black;stroke-width:1"/>
    <text x="2230" y="1430" font-size="10" style="fill:blue">a</text>
    <path d="M2200 1440 C2220 1440 2200 1440 2220 1440" style="fill:transparent;stroke:black"/>
    <text x="2230" y="1440" font-size="8" style="fill:black">href: SEW/p3/p3_3_resumen.html</text>
    <rect x="2286" y="1420" width="137" height="40" style="fill:green;stroke:black;stroke-width:1"/>
    <text x="2296" y="1430" font-size="8" style="fill:white">Resumen P3</text>
    <rect x="2000" y="1520" width="200" height="40" style="fill:white;stroke:black;stroke-width:1"/>
    <text x="2010" y="1530" font-size="10" style="fill:blue">li</text>
    <path d="M1980 1240 C2000 1240 1980 1540 2000 1540" style="fill:transparent;stroke:black"/>
    <rect x="2220" y="1520" width="200" height="40" style="fill:white;stroke:black;stroke-width:1"/>
    <text x="2230" y="1530" font-size="10" style="fill:blue">a</text>
    <path d="M2200 1540 C2220 1540 2200 1540 2220 1540" style="fill:transparent;stroke:black"/>
    <text x="2230" y="1540" font-size="8" style="fill:black">href: SEW/p3/p3_4_personajes.html</text>
    <rect x="2286" y="1520" width="137" height="40" style="fill:green;stroke:black;stroke-width:1"/>
    <text x="2296" y="1530" font-size="8" style="fill:white">Personajes P3</text>
    <rect x="2000" y="1620" width="200" height="40" style="fill:white;stroke:black;stroke-width:1"/>
    <text x="2010" y="1630" font-size="10" style="fill:blue">li</text>
    <path d="M1980 1240 C2000 1240 1980 1640 2000 1640" style="fill:transparent;stroke:black"/>
    <rect x="2220" y="1620" width="200" height="40" style="fill:white;stroke:black;stroke-width:1"/>
    <text x="2230" y="1630" font-size="10" style="fill:blue">a</text>
    <path d="M2200 1640 C2220 1640 2200 1640 2220 1640" style="fill:transparent;stroke:black"/>
    <text x="2230" y="1640" font-size="8" style="fill:black">href: SEW/p3/p3_5_fuentes.html</text>
    <rect x="2286" y="1620" width="137" height="40" style="fill:green;stroke:black;stroke-width:1"/>
    <text x="2296" y="1630" font-size="8" style="fill:white">Fuentes P3</text>
    <rect x="2000" y="1720" width="200" height="40" style="fill:white;stroke:black;stroke-width:1"/>
    <text x="2010" y="1730" font-size="10" style="fill:blue">li</text>
    <path d="M1980 1240 C2000 1240 1980 1740 2000 1740" style="fill:transparent;stroke:black"/>
    <rect x="2220" y="1720" width="200" height="40" style="fill:white;stroke:black;stroke-width:1"/>
    <text x="2230" y="1730" font-size="10" style="fill:blue">a</text>
    <path d="M2200 1740 C2220 1740 2200 1740 2220 1740" style="fill:transparent;stroke:black"/>
    <text x="2230" y="1740" font-size="8" style="fill:black">href: SEW/p3/p3_6_adaptaciones.html</text>
    <rect x="2286" y="1720" width="137" height="40" style="fill:green;stroke:black;stroke-width:1"/>
    <text x="2296" y="1730" font-size="8" style="fill:white">Adaptaciones P3</text>
    <rect x="2000" y="1820" width="200" height="40" style="fill:white;stroke:black;stroke-width:1"/>
    <text x="2010" y="1830" font-size="10" style="fill:blue">li</text>
    <path d="M1980 1240 C2000 1240 1980 1840 2000 1840" style="fill:transparent;stroke:black"/>
    <rect x="2220" y="1820" width="200" height="40" style="fill:white;stroke:black;stroke-width:1"/>
    <text x="2230" y="1830" font-size="10" style="fill:blue">a</text>
    <path d="M2200 1840 C2220 1840 2200 1840 2220 1840" style="fill:transparent;stroke:black"/>
    <text x="2230" y="1840" font-size="8" style="fill:black">href: SEW/p3/p3_7_mas.html</text>
    <rect x="2286" y="1820" width="137" height="40" style="fill:green;stroke:black;stroke-width:1"/>
    <text x="2296" y="1830" font-size="8" style="fill:white">Más información P3</text>
    <rect x="1560" y="2020" width="200" height="40" style="fill:white;stroke:black;stroke-width:1"/>
    <text x="1570" y="2030" font-size="10" style="fill:blue">li</text>
    <path d="M1540 890 C1560 890 1540 2040 1560 2040" style="fill:transparent;stroke:black"/>
    <rect x="1780" y="2020" width="200" height="40" style="fill:white;stroke:black;stroke-width:1"/>
    <text x="1790" y="2030" font-size="10" style="fill:blue">a</text>
    <path d="M1760 2040 C1780 2040 1760 2040 1780 2040" style="fill:transparent;stroke:black"/>
    <text x="1790" y="2040" font-size="8" style="fill:black">href: SEW/p5/p5.html</text>
    <rect x="1846" y="2020" width="137" height="40" style="fill:green;stroke:black;stroke-width:1"/>
    <text x="1856" y="2030" font-size="8" style="fill:white">Práctica 05</text>
    <rect x="1780" y="2070" width="200" height="40" style="fill:white;stroke:black;stroke-width:1"/>
    <text x="1790" y="2080" font-size="10" style="fill:blue">ul</text>
    <path d="M1760 2040 C1780 2040 1760 2090 1780 2090" style="fill:transparent;stroke:black"/>
    <rect x="2000" y="2070" width="200" height="40" style="fill:white;stroke:black;stroke-width:1"/>
    <text x="2010" y="2080" font-size="10" style="fill:blue">li</text>
    <path d="M1980 2090 C2000 2090 1980 2090 2000 2090" style="fill:transparent;stroke:black"/>
    <rect x="2220" y="2070" width="200" height="40" style="fill:white;stroke:black;stroke-width:1"/>
    <text x="2230" y="2080" font-size="10" style="fill:blue">a</text>
    <path d="M2200 2090 C2220 2090 2200 2090 2220 2090" style="fill:transparent;stroke:black"/>
    <text x="2230" y="2090" font-size="8" style="fill:black">href: SEW/p5/p5_1_introduccion.html</text>
    <rect x="2286" y="2070" width="137" height="40" style="fill:green;stroke:black;stroke-width:1"/>
    <text x="2296" y="2080" font-size="8" style="fill:white">Introducción P5</text>
    <rect x="2000" y="2170" width="200" height="40" style="fill:white;stroke:black;stroke-width:1"/>
    <text x="2010" y="2180" font-size="10" style="fill:blue">li</text>
    <path d="M1980 2090 C2000 2090 1980 2190 2000 2190" style="fill:transparent;stroke:black"/>
    <rect x="2220" y="2170" width="200" height="40" style="fill:white;stroke:black;stroke-width:1"/>
    <text x="2230" y="2180" font-size="10" style="fill:blue">a</text>
    <path d="M2200 2190 C2220 2190 2200 2190 2220 2190" style="fill:transparent;stroke:black"/>
    <text x="2230" y="2190" font-size="8" style="fill:black">href: SEW/p5/p5_2_libros.html</text>
    <rect x="2286" y="2170" width="137" height="40" style="fill:green;stroke:black;stroke-width:1"/>
    <text x="2296" y="2180" font-size="8" style="fill:white">Libros P5</text>
    <rect x="2000" y="2270" width="200" height="40" style="fill:white;stroke:black;stroke-width:1"/>
    <text x="2010" y="2280" font-size="10" style="fill:blue">li</text>
    <path d="M1980 2090 C2000 2090 1980 2290 2000 2290" style="fill:transparent;stroke:black"/>
    <rect x="2220" y="2270" width="200" height="40" style="fill:white;stroke:black;stroke-width:1"/>
    <text x="2230" y="2280" font-size="10" style="fill:blue">a</text>
    <path d="M2200 2290 C2220 2290 2200 2290 2220 2290" style="fill:transparent;stroke:black"/>
    <text x="2230" y="2290" font-size="8" style="fill:black">href: SEW/p5/p5_3_resumen.html</text>
    <rect x="2286" y="2270" width="137" height="40" style="fill:green;stroke:black;stroke-width:1"/>
    <text x="2296" y="2280" font-size="8" style="fill:white">Resumen P5</text>
    <rect x="2000" y="2370" width="200" height="40" style="fill:white;stroke:black;stroke-width:1"/>
    <text x="2010" y="2380" font-size="10" style="fill:blue">li</text>
    <path d="M1980 2090 C2000 2090 1980 2390 2000 2390" style="fill:transparent;stroke:black"/>
    <rect x="2220" y="2370" width="200" height="40" style="fill:white;stroke:black;stroke-width:1"/>
    <text x="2230" y="2380" font-size="10" style="fill:blue">a</text>
    <path d="M2200 2390 C2220 2390 2200 2390 2220 2390" style="fill:transparent;stroke:black"/>
    <text x="2230" y="2390" font-size="8" style="fill:black">href: SEW/p5/p5_4_personajes.html</text>
    <rect x="2286" y="2370" width="137" height="40" style="fill:green;stroke:black;stroke-width:1"/>
    <text x="2296" y="2380" font-size="8" style="fill:white">Personajes P5</text>
    <rect x="2000" y="2470" width="200" height="40" style="fill:white;stroke:black;stroke-width:1"/>
    <text x="2010" y="2480" font-size="10" style="fill:blue">li</text>
    <path d="M1980 2090 C2000 2090 1980 2490 2000 2490" style="fill:transparent;stroke:black"/>
    <rect x="2220" y="2470" width="200" height="40" style="fill:white;stroke:black;stroke-width:1"/>
    <text x="2230" y="2480" font-size="10" style="fill:blue">a</text>
    <path d="M2200 2490 C2220 2490 2200 2490 2220 2490" style="fill:transparent;stroke:black"/>
    <text x="2230" y="2490" font-size="8" style="fill:black">href: SEW/p5/p5_5_fuentes.html</text>
    <rect x="2286" y="2470" width="137" height="40" style="fill:green;stroke:black;stroke-width:1"/>
    <text x="2296" y="2480" font-size="8" style="fill:white">Fuentes P5</text>
    <rect x="2000" y="2570" width="200" height="40" style="fill:white;stroke:black;stroke-width:1"/>
    <text x="2010" y="2580" font-size="10" style="fill:blue">li</text>
    <path d="M1980 2090 C2000 2090 1980 2590 2000 2590" style="fill:transparent;stroke:black"/>
    <rect x="2220" y="2570" width="200" height="40" style="fill:white;stroke:black;stroke-width:1"/>
    <text x="2230" y="2580" font-size="10" style="fill:blue">a</text>
    <path d="M2200 2590 C2220 2590 2200 2590 2220 2590" style="fill:transparent;stroke:black"/>
    <text x="2230" y="2590" font-size="8" style="fill:black">href: SEW/p5/p5_6_adaptaciones.html</text>
    <rect x="2286" y="2570" width="137" height="40" style="fill:green;stroke:black;stroke-width:1"/>
    <text x="2296" y="2580" font-size="8" style="fill:white">Adaptaciones P5</text>
    <rect x="2000" y="2670" width="200" height="40" style="fill:white;stroke:black;stroke-width:1"/>
    <text x="2010" y="2680" font-size="10" style="fill:blue">li</text>
    <path d="M1980 2090 C2000 2090 1980 2690 2000 2690" style="fill:transparent;stroke:black"/>
    <rect x="2220" y="2670" width="200" height="40" style="fill:white;stroke:black;stroke-width:1"/>
    <text x="2230" y="2680" font-size="10" style="fill:blue">a</text>
    <path d="M2200 2690 C2220 2690 2200 2690 2220 2690" style="fill:transparent;stroke:black"/>
    <text x="2230" y="2690" font-size="8" style="fill:black">href: SEW/p5/p5_7_mas.html</text>
    <rect x="2286" y="2670" width="137" height="40" style="fill:green;stroke:black;stroke-width:1"/>
    <text x="2296" y="2680" font-size="8" style="fill:white">Más información P5</text>
    <rect x="460" y="3120" width="200" height="40" style="fill:white;stroke:black;stroke-width:1"/>
    <text x="470" y="3130" font-size="10" style="fill:blue">main</text>
    <path d="M440 590 C460 590 440 3140 460 3140" style="fill:transparent;stroke:black"/>
    <rect x="680" y="3120" width="200" height="40" style="fill:white;stroke:black;stroke-width:1"/>
    <text x="690" y="3130" font-size="10" style="fill:blue">nav</text>
    <path d="M660 3140 C680 3140 660 3140 680 3140" style="fill:transparent;stroke:black"/>
    <rect x="900" y="3120" width="200" height="40" style="fill:white;stroke:black;stroke-width:1"/>
    <text x="910" y="3130" font-size="10" style="fill:blue">ul</text>
    <path d="M880 3140 C900 3140 880 3140 900 3140" style="fill:transparent;stroke:black"/>
    <rect x="1120" y="3120" width="200" height="40" style="fill:white;stroke:black;stroke-width:1"/>
    <text x="1130" y="3130" font-size="10" style="fill:blue">li</text>
    <path d="M1100 3140 C1120 3140 1100 3140 1120 3140" style="fill:transparent;stroke:black"/>
    <rect x="1340" y="3120" width="200" height="40" style="fill:white;stroke:black;stroke-width:1"/>
    <text x="1350" y="3130" font-size="10" style="fill:blue">a</text>
    <path d="M1320 3140 C1340 3140 1320 3140 1340 3140" style="fill:transparent;stroke:black"/>
    <text x="1350" y="3140" font-size="8" style="fill:black">href: index.html</text>
    <rect x="1406" y="3120" width="137" height="40" style="fill:green;stroke:black;stroke-width:1"/>
    <text x="1416" y="3130" font-size="8" style="fill:white">Portada</text>
    <rect x="1120" y="3220" width="200" height="40" style="fill:white;stroke:black;stroke-width:1"/>
    <text x="1130" y="3230" font-size="10" style="fill:blue">li</text>
    <path d="M1100 3140 C1120 3140 1100 3240 1120 3240" style="fill:transparent;stroke:black"/>
    <rect x="1340" y="3220" width="200" height="40" style="fill:white;stroke:black;stroke-width:1"/>
    <text x="1350" y="3230" font-size="10" style="fill:blue">a</text>
    <path d="M1320 3240 C1340 3240 1320 3240 1340 3240" style="fill:transparent;stroke:black"/>
    <text x="1350" y="3240" font-size="8" style="fill:black">href: aficiones.html</text>
    <rect x="1406" y="3220" width="137" height="40" style="fill:green;stroke:black;stroke-width:1"/>
    <text x="1416" y="3230" font-size="8" style="fill:white">Aficiones</text>
    <rect x="1120" y="3320" width="200" height="40" style="fill:white;stroke:black;stroke-width:1"/>
    <text x="1130" y="3330" font-size="10" style="fill:blue">li</text>
    <path d="M1100 3140 C1120 3140 1100 3340 1120 3340" style="fill:transparent;stroke:black"/>
    <rect x="1340" y="3320" width="200" height="40" style="fill:white;stroke:black;stroke-width:1"/>
    <text x="1350" y="3330" font-size="10" style="fill:blue">a</text>
    <path d="M1320 3340 C1340 3340 1320 3340 1340 3340" style="fill:transparent;stroke:black"/>
    <text x="1350" y="3340" font-size="8" style="fill:black">href: sew.html</text>
    <rect x="1406" y="3320" width="137" height="40" style="fill:green;stroke:black;stroke-width:1"/>
    <text x="1416" y="3330" font-size="8" style="fill:white">SEW</text>
    <rect x="1340" y="3370" width="200" height="40" style="fill:white;stroke:black;stroke-width:1"/>
    <text x="1350" y="3380" font-size="10" style="fill:blue">ul</text>
    <path d="M1320 3340 C1340 3340 1320 3390 1340 3390" style="fill:transparent;stroke:black"/>
    <rect x="1560" y="3370" width="200" height="40" style="fill:white;stroke:black;stroke-width:1"/>
    <text x="1570" y="3380" font-size="10" style="fill:blue">li</text>
    <path d="M1540 3390 C1560 3390 1540 3390 1560 3390" style="fill:transparent;stroke:black"/>
    <rect x="1780" y="3370" width="200" height="40" style="fill:white;stroke:black;stroke-width:1"/>
    <text x="1790" y="3380" font-size="10" style="fill:blue">a</text>
    <path d="M1760 3390 C1780 3390 1760 3390 1780 3390" style="fill:transparent;stroke:black"/>
    <text x="1790" y="3390" font-size="8" style="fill:black">href: SEW/p0/index.html</text>
    <rect x="1846" y="3370" width="137" height="40" style="fill:green;stroke:black;stroke-width:1"/>
    <text x="1856" y="3380" font-size="8" style="fill:white">Práctica 00</text>
    <rect x="1560" y="3470" width="200" height="40" style="fill:white;stroke:black;stroke-width:1"/>
    <text x="1570" y="3480" font-size="10" style="fill:blue">li</text>
    <path d="M1540 3390 C1560 3390 1540 3490 1560 3490" style="fill:transparent;stroke:black"/>
    <rect x="1780" y="3470" width="200" height="40" style="fill:white;stroke:black;stroke-width:1"/>
    <text x="1790" y="3480" font-size="10" style="fill:blue">a</text>
    <path d="M1760 3490 C1780 3490 1760 3490 1780 3490" style="fill:transparent;stroke:black"/>
    <text x="1790" y="3490" font-size="8" style="fill:black">href: SEW/p1/p1.html</text>
    <rect x="1846" y="3470" width="137" height="40" style="fill:green;stroke:black;stroke-width:1"/>
    <text x="1856" y="3480" font-size="8" style="fill:white">Práctica 01</text>
    <rect x="1560" y="3570" width="200" height="40" style="fill:white;stroke:black;stroke-width:1"/>
    <text x="1570" y="3580" font-size="10" style="fill:blue">li</text>
    <path d="M1540 3390 C1560 3390 1540 3590 1560 3590" style="fill:transparent;stroke:black"/>
    <rect x="1780" y="3570" width="200" height="40" style="fill:white;stroke:black;stroke-width:1"/>
    <text x="1790" y="3580" font-size="10" style="fill:blue">a</text>
    <path d="M1760 3590 C1780 3590 1760 3590 1780 3590" style="fill:transparent;stroke:black"/>
    <text x="1790" y="3590" font-size="8" style="fill:black">href: SEW/p3/p3.html</text>
    <rect x="1846" y="3570" width="137" height="40" style="fill:green;stroke:black;stroke-width:1"/>
    <text x="1856" y="3580" font-size="8" style="fill:white">Práctica 03</text>
    <rect x="1780" y="3620" width="200" height="40" style="fill:white;stroke:black;stroke-width:1"/>
    <text x="1790" y="3630" font-size="10" style="fill:blue">ul</text>
    <path d="M1760 3590 C1780 3590 1760 3640 1780 3640" style="fill:transparent;stroke:black"/>
    <rect x="2000" y="3620" width="200" height="40" style="fill:white;stroke:black;stroke-width:1"/>
    <text x="2010" y="3630" font-size="10" style="fill:blue">li</text>
    <path d="M1980 3640 C2000 3640 1980 3640 2000 3640" style="fill:transparent;stroke:black"/>
    <rect x="2220" y="3620" width="200" height="40" style="fill:white;stroke:black;stroke-width:1"/>
    <text x="2230" y="3630" font-size="10" style="fill:blue">a</text>
    <path d="M2200 3640 C2220 3640 2200 3640 2220 3640" style="fill:transparent;stroke:black"/>
    <text x="2230" y="3640" font-size="8" style="fill:black">href: SEW/p3/p3_1_introduccion.html</text>
    <rect x="2286" y="3620" width="137" height="40" style="fill:green;stroke:black;stroke-width:1"/>
    <text x="2296" y="3630" font-size="8" style="fill:white">Introducción P3</text>
    <rect x="2000" y="3720" width="200" height="40" style="fill:white;stroke:black;stroke-width:1"/>
    <text x="2010" y="3730" font-size="10" style="fill:blue">li</text>
    <path d="M1980 3640 C2000 3640 1980 3740 2000 3740" style="fill:transparent;stroke:black"/>
    <rect x="2220" y="3720" width="200" height="40" style="fill:white;stroke:black;stroke-width:1"/>
    <text x="2230" y="3730" font-size="10" style="fill:blue">a</text>
    <path d="M2200 3740 C2220 3740 2200 3740 2220 3740" style="fill:transparent;stroke:black"/>
    <text x="2230" y="3740" font-size="8" style="fill:black">href: SEW/p3/p3_2_libros.html</text>
    <rect x="2286" y="3720" width="137" height="40" style="fill:green;stroke:black;stroke-width:1"/>
    <text x="2296" y="3730" font-size="8" style="fill:white">Libros P3</text>
    <rect x="2000" y="3820" width="200" height="40" style="fill:white;stroke:black;stroke-width:1"/>
    <text x="2010" y="3830" font-size="10" style="fill:blue">li</text>
    <path d="M1980 3640 C2000 3640 1980 3840 2000 3840" style="fill:transparent;stroke:black"/>
    <rect x="2220" y="3820" width="200" height="40" style="fill:white;stroke:black;stroke-width:1"/>
    <text x="2230" y="3830" font-size="10" style="fill:blue">a</text>
    <path d="M2200 3840 C2220 3840 2200 3840 2220 3840" style="fill:transparent;stroke:black"/>
    <text x="2230" y="3840" font-size="8" style="fill:black">href: SEW/p3/p3_3_resumen.html</text>
    <rect x="2286" y="3820" width="137" height="40" style="fill:green;stroke:black;stroke-width:1"/>
    <text x="2296" y="3830" font-size="8" style="fill:white">Resumen P3</text>
    <rect x="2000" y="3920" width="200" height="40" style="fill:white;stroke:black;stroke-width:1"/>
    <text x="2010" y="3930" font-size="10" style="fill:blue">li</text>
    <path d="M1980 3640 C2000 3640 1980 3940 2000 3940" style="fill:transparent;stroke:black"/>
    <rect x="2220" y="3920" width="200" height="40" style="fill:white;stroke:black;stroke-width:1"/>
    <text x="2230" y="3930" font-size="10" style="fill:blue">a</text>
    <path d="M2200 3940 C2220 3940 2200 3940 2220 3940" style="fill:transparent;stroke:black"/>
    <text x="2230" y="3940" font-size="8" style="fill:black">href: SEW/p3/p3_4_personajes.html</text>
    <rect x="2286" y="3920" width="137" height="40" style="fill:green;stroke:black;stroke-width:1"/>
    <text x="2296" y="3930" font-size="8" style="fill:white">Personajes P3</text>
    <rect x="2000" y="4020" width="200" height="40" style="fill:white;stroke:black;stroke-width:1"/>
    <text x="2010" y="4030" font-size="10" style="fill:blue">li</text>
    <path d="M1980 3640 C2000 3640 1980 4040 2000 4040" style="fill:transparent;stroke:black"/>
    <rect x="2220" y="4020" width="200" height="40" style="fill:white;stroke:black;stroke-width:1"/>
    <text x="2230" y="4030" font-size="10" style="fill:blue">a</text>
    <path d="M2200 4040 C2220 4040 2200 4040 2220 4040" style="fill:transparent;stroke:black"/>
    <text x="2230" y="4040" font-size="8" style="fill:black">href: SEW/p3/p3_5_fuentes.html</text>
    <rect x="2286" y="4020" width="137" height="40" style="fill:green;stroke:black;stroke-width:1"/>
    <text x="2296" y="4030" font-size="8" style="fill:white">Fuentes P3</text>
    <rect x="2000" y="4120" width="200" height="40" style="fill:white;stroke:black;stroke-width:1"/>
    <text x="2010" y="4130" font-size="10" style="fill:blue">li</text>
    <path d="M1980 3640 C2000 3640 1980 4140 2000 4140" style="fill:transparent;stroke:black"/>
    <rect x="2220" y="4120" width="200" height="40" style="fill:white;stroke:black;stroke-width:1"/>
    <text x="2230" y="4130" font-size="10" style="fill:blue">a</text>
    <path d="M2200 4140 C2220 4140 2200 4140 2220 4140" style="fill:transparent;stroke:black"/>
    <text x="2230" y="4140" font-size="8" style="fill:black">href: SEW/p3/p3_6_adaptaciones.html</text>
    <rect x="2286" y="4120" width="137" height="40" style="fill:green;stroke:black;stroke-width:1"/>
    <text x="2296" y="4130" font-size="8" style="fill:white">Adaptaciones P3</text>
    <rect x="2000" y="4220" width="200" height="40" style="fill:white;stroke:black;stroke-width:1"/>
    <text x="2010" y="4230" font-size="10" style="fill:blue">li</text>
    <path d="M1980 3640 C2000 3640 1980 4240 2000 4240" style="fill:transparent;stroke:black"/>
    <rect x="2220" y="4220" width="200" height="40" style="fill:white;stroke:black;stroke-width:1"/>
    <text x="2230" y="4230" font-size="10" style="fill:blue">a</text>
    <path d="M2200 4240 C2220 4240 2200 4240 2220 4240" style="fill:transparent;stroke:black"/>
    <text x="2230" y="4240" font-size="8" style="fill:black">href: SEW/p3/p3_7_mas.html</text>
    <rect x="2286" y="4220" width="137" height="40" style="fill:green;stroke:black;stroke-width:1"/>
    <text x="2296" y="4230" font-size="8" style="fill:white">Más información P3</text>
    <rect x="1560" y="4420" width="200" height="40" style="fill:white;stroke:black;stroke-width:1"/>
    <text x="1570" y="4430" font-size="10" style="fill:blue">li</text>
    <path d="M1540 3390 C1560 3390 1540 4440 1560 4440" style="fill:transparent;stroke:black"/>
    <rect x="1780" y="4420" width="200" height="40" style="fill:white;stroke:black;stroke-width:1"/>
    <text x="1790" y="4430" font-size="10" style="fill:blue">a</text>
    <path d="M1760 4440 C1780 4440 1760 4440 1780 4440" style="fill:transparent;stroke:black"/>
    <text x="1790" y="4440" font-size="8" style="fill:black">href: SEW/p5/p5.html</text>
    <rect x="1846" y="4420" width="137" height="40" style="fill:green;stroke:black;stroke-width:1"/>
    <text x="1856" y="4430" font-size="8" style="fill:white">Práctica 05</text>
    <rect x="1780" y="4470" width="200" height="40" style="fill:white;stroke:black;stroke-width:1"/>
    <text x="1790" y="4480" font-size="10" style="fill:blue">ul</text>
    <path d="M1760 4440 C1780 4440 1760 4490 1780 4490" style="fill:transparent;stroke:black"/>
    <rect x="2000" y="4470" width="200" height="40" style="fill:white;stroke:black;stroke-width:1"/>
    <text x="2010" y="4480" font-size="10" style="fill:blue">li</text>
    <path d="M1980 4490 C2000 4490 1980 4490 2000 4490" style="fill:transparent;stroke:black"/>
    <rect x="2220" y="4470" width="200" height="40" style="fill:white;stroke:black;stroke-width:1"/>
    <text x="2230" y="4480" font-size="10" style="fill:blue">a</text>
    <path d="M2200 4490 C2220 4490 2200 4490 2220 4490" style="fill:transparent;stroke:black"/>
    <text x="2230" y="4490" font-size="8" style="fill:black">href: SEW/p5/p5_1_introduccion.html</text>
    <rect x="2286" y="4470" width="137" height="40" style="fill:green;stroke:black;stroke-width:1"/>
    <text x="2296" y="4480" font-size="8" style="fill:white">Introducción P5</text>
    <rect x="2000" y="4570" width="200" height="40" style="fill:white;stroke:black;stroke-width:1"/>
    <text x="2010" y="4580" font-size="10" style="fill:blue">li</text>
    <path d="M1980 4490 C2000 4490 1980 4590 2000 4590" style="fill:transparent;stroke:black"/>
    <rect x="2220" y="4570" width="200" height="40" style="fill:white;stroke:black;stroke-width:1"/>
    <text x="2230" y="4580" font-size="10" style="fill:blue">a</text>
    <path d="M2200 4590 C2220 4590 2200 4590 2220 4590" style="fill:transparent;stroke:black"/>
    <text x="2230" y="4590" font-size="8" style="fill:black">href: SEW/p5/p5_2_libros.html</text>
    <rect x="2286" y="4570" width="137" height="40" style="fill:green;stroke:black;stroke-width:1"/>
    <text x="2296" y="4580" font-size="8" style="fill:white">Libros P5</text>
    <rect x="2000" y="4670" width="200" height="40" style="fill:white;stroke:black;stroke-width:1"/>
    <text x="2010" y="4680" font-size="10" style="fill:blue">li</text>
    <path d="M1980 4490 C2000 4490 1980 4690 2000 4690" style="fill:transparent;stroke:black"/>
    <rect x="2220" y="4670" width="200" height="40" style="fill:white;stroke:black;stroke-width:1"/>
    <text x="2230" y="4680" font-size="10" style="fill:blue">a</text>
    <path d="M2200 4690 C2220 4690 2200 4690 2220 4690" style="fill:transparent;stroke:black"/>
    <text x="2230" y="4690" font-size="8" style="fill:black">href: SEW/p5/p5_3_resumen.html</text>
    <rect x="2286" y="4670" width="137" height="40" style="fill:green;stroke:black;stroke-width:1"/>
    <text x="2296" y="4680" font-size="8" style="fill:white">Resumen P5</text>
    <rect x="2000" y="4770" width="200" height="40" style="fill:white;stroke:black;stroke-width:1"/>
    <text x="2010" y="4780" font-size="10" style="fill:blue">li</text>
    <path d="M1980 4490 C2000 4490 1980 4790 2000 4790" style="fill:transparent;stroke:black"/>
    <rect x="2220" y="4770" width="200" height="40" style="fill:white;stroke:black;stroke-width:1"/>
    <text x="2230" y="4780" font-size="10" style="fill:blue">a</text>
    <path d="M2200 4790 C2220 4790 2200 4790 2220 4790" style="fill:transparent;stroke:black"/>
    <text x="2230" y="4790" font-size="8" style="fill:black">href: SEW/p5/p5_4_personajes.html</text>
    <rect x="2286" y="4770" width="137" height="40" style="fill:green;stroke:black;stroke-width:1"/>
    <text x="2296" y="4780" font-size="8" style="fill:white">Personajes P5</text>
    <rect x="2000" y="4870" width="200" height="40" style="fill:white;stroke:black;stroke-width:1"/>
    <text x="2010" y="4880" font-size="10" style="fill:blue">li</text>
    <path d="M1980 4490 C2000 4490 1980 4890 2000 4890" style="fill:transparent;stroke:black"/>
    <rect x="2220" y="4870" width="200" height="40" style="fill:white;stroke:black;stroke-width:1"/>
    <text x="2230" y="4880" font-size="10" style="fill:blue">a</text>
    <path d="M2200 4890 C2220 4890 2200 4890 2220 4890" style="fill:transparent;stroke:black"/>
    <text x="2230" y="4890" font-size="8" style="fill:black">href: SEW/p5/p5_5_fuentes.html</text>
    <rect x="2286" y="4870" width="137" height="40" style="fill:green;stroke:black;stroke-width:1"/>
    <text x="2296" y="4880" font-size="8" style="fill:white">Fuentes P5</text>
    <rect x="2000" y="4970" width="200" height="40" style="fill:white;stroke:black;stroke-width:1"/>
    <text x="2010" y="4980" font-size="10" style="fill:blue">li</text>
    <path d="M1980 4490 C2000 4490 1980 4990 2000 4990" style="fill:transparent;stroke:black"/>
    <rect x="2220" y="4970" width="200" height="40" style="fill:white;stroke:black;stroke-width:1"/>
    <text x="2230" y="4980" font-size="10" style="fill:blue">a</text>
    <path d="M2200 4990 C2220 4990 2200 4990 2220 4990" style="fill:transparent;stroke:black"/>
    <text x="2230" y="4990" font-size="8" style="fill:black">href: SEW/p5/p5_6_adaptaciones.html</text>
    <rect x="2286" y="4970" width="137" height="40" style="fill:green;stroke:black;stroke-width:1"/>
    <text x="2296" y="4980" font-size="8" style="fill:white">Adaptaciones P5</text>
    <rect x="2000" y="5070" width="200" height="40" style="fill:white;stroke:black;stroke-width:1"/>
    <text x="2010" y="5080" font-size="10" style="fill:blue">li</text>
    <path d="M1980 4490 C2000 4490 1980 5090 2000 5090" style="fill:transparent;stroke:black"/>
    <rect x="2220" y="5070" width="200" height="40" style="fill:white;stroke:black;stroke-width:1"/>
    <text x="2230" y="5080" font-size="10" style="fill:blue">a</text>
    <path d="M2200 5090 C2220 5090 2200 5090 2220 5090" style="fill:transparent;stroke:black"/>
    <text x="2230" y="5090" font-size="8" style="fill:black">href: SEW/p5/p5_7_mas.html</text>
    <rect x="2286" y="5070" width="137" height="40" style="fill:green;stroke:black;stroke-width:1"/>
    <text x="2296" y="5080" font-size="8" style="fill:white">Más información P5</text>
    <rect x="460" y="5520" width="200" height="40" style="fill:white;stroke:black;stroke-width:1"/>
    <text x="470" y="5530" font-size="10" style="fill:blue">footer</text>
    <path d="M440 590 C460 590 440 5540 460 5540" style="fill:transparent;stroke:black"/>
    <rect x="680" y="5520" width="200" height="40" style="fill:white;stroke:black;stroke-width:1"/>
    <text x="690" y="5530" font-size="10" style="fill:blue">address</text>
    <path d="M660 5540 C680 5540 660 5540 680 5540" style="fill:transparent;stroke:black"/>
    <rect x="900" y="5520" width="200" height="40" style="fill:white;stroke:black;stroke-width:1"/>
    <text x="910" y="5530" font-size="10" style="fill:blue">p</text>
    <path d="M880 5540 C900 5540 880 5540 900 5540" style="fill:transparent;stroke:black"/>
    <rect x="966" y="5520" width="137" height="40" style="fill:green;stroke:black;stroke-width:1"/>
    <text x="976" y="5530" font-size="8" style="fill:white">Autor: Iván González Mahagamage</text>
    <rect x="900" y="5570" width="200" height="40" style="fill:white;stroke:black;stroke-width:1"/>
    <text x="910" y="5580" font-size="10" style="fill:blue">p</text>
    <path d="M880 5540 C900 5540 880 5590 900 5590" style="fill:transparent;stroke:black"/>
    <rect x="966" y="5570" width="137" height="40" style="fill:green;stroke:black;stroke-width:1"/>
    <text x="976" y="5580" font-size="8" style="fill:white">Contacto:</text>
    <rect x="1120" y="5570" width="200" height="40" style="fill:white;stroke:black;stroke-width:1"/>
    <text x="1130" y="5580" font-size="10" style="fill:blue">a</text>
    <path d="M1100 5590 C1120 5590 1100 5590 1120 5590" style="fill:transparent;stroke:black"/>
    <text x="1130" y="5590" font-size="8" style="fill:black">href: mailto:uo239795@uniovi.es</text>
    <rect x="1186" y="5570" width="137" height="40" style="fill:green;stroke:black;stroke-width:1"/>
    <text x="1196" y="5580" font-size="8" style="fill:white">uo239795@uniovi.es</text>
    <rect x="680" y="5720" width="200" height="40" style="fill:white;stroke:black;stroke-width:1"/>
    <text x="690" y="5730" font-size="10" style="fill:blue">p</text>
    <path d="M660 5540 C680 5540 660 5740 680 5740" style="fill:transparent;stroke:black"/>
    <rect x="900" y="5720" width="200" height="40" style="fill:white;stroke:black;stroke-width:1"/>
    <text x="910" y="5730" font-size="10" style="fill:blue">a</text>
    <path d="M880 5740 C900 5740 880 5740 900 5740" style="fill:transparent;stroke:black"/>
    <text x="910" y="5740" font-size="8" style="fill:black">href: https://validator.w3.org/check?uri=referer</text>
    <rect x="1120" y="5720" width="200" height="40" style="fill:white;stroke:black;stroke-width:1"/>
    <text x="1130" y="5730" font-size="10" style="fill:blue">img</text>
    <path d="M1100 5740 C1120 5740 1100 5740 1120 5740" style="fill:transparent;stroke:black"/>
    <text x="1130" y="5740" font-size="8" style="fill:black">src:
        https://unioviedo-my.sharepoint.com/personal/uo239795_uniovi_es/_layouts/15/guestaccess.aspx?docid=1dc29309c5f484ddbb0d9db5b1c80c434&amp;authkey=ARFq9i5Nm2QpUmJj55IcDgQ&amp;e=705a58700abd4191a586e91989da4a0e
    </text>
    <text x="1130" y="5750" font-size="8" style="fill:black">alt: HTML5 Válido</text>
    <text x="1130" y="5760" font-size="8" style="fill:black">longdesc: https://validator.w3.org/check?uri=referer</text>
    <rect x="900" y="5820" width="200" height="40" style="fill:white;stroke:black;stroke-width:1"/>
    <text x="910" y="5830" font-size="10" style="fill:blue">a</text>
    <path d="M880 5740 C900 5740 880 5840 900 5840" style="fill:transparent;stroke:black"/>
    <text x="910" y="5840" font-size="8" style="fill:black">href: http://jigsaw.w3.org/css-validator/check/referer
    </text>
    <rect x="1120" y="5820" width="200" height="40" style="fill:white;stroke:black;stroke-width:1"/>
    <text x="1130" y="5830" font-size="10" style="fill:blue">img</text>
    <path d="M1100 5840 C1120 5840 1100 5840 1120 5840" style="fill:transparent;stroke:black"/>
    <text x="1130" y="5840" font-size="8" style="fill:black">src:
        https://unioviedo-my.sharepoint.com/personal/uo239795_uniovi_es/_layouts/15/guestaccess.aspx?docid=190f4b784428a40a2b969ae7f977a3d85&amp;authkey=AegPExwjY0qZ80NLtEpPmYo&amp;amp;e=41cf2c002341476e8abb088bc7c0a15b
    </text>
    <text x="1130" y="5850" font-size="8" style="fill:black">alt: ¡CSS Válido!</text>
    <rect x="680" y="5970" width="200" height="40" style="fill:white;stroke:black;stroke-width:1"/>
    <text x="690" y="5980" font-size="10" style="fill:blue">p</text>
    <path d="M660 5540 C680 5540 660 5990 680 5990" style="fill:transparent;stroke:black"/>
    <rect x="900" y="5970" width="200" height="40" style="fill:white;stroke:black;stroke-width:1"/>
    <text x="910" y="5980" font-size="10" style="fill:blue">a</text>
    <path d="M880 5990 C900 5990 880 5990 900 5990" style="fill:transparent;stroke:black"/>
    <text x="910" y="5990" font-size="8" style="fill:black">href: sew.svg</text>
    <rect x="966" y="5970" width="137" height="40" style="fill:green;stroke:black;stroke-width:1"/>
    <text x="976" y="5980" font-size="8" style="fill:white">Mostrar árbol DOM</text>
</svg>