<?xml version="1.0" encoding="utf-8"?>
<svg width="auto" height="5120" style="overflow:visible " version="1.1" xmlns="http://www.w3.org/2000/svg">
    <rect x="20" y="20" width="200" height="40" style="fill:white;stroke:black;stroke-width:1"/>
    <text x="30" y="30" font-size="10" style="fill:blue">html</text>
    <text x="30" y="40" font-size="8" style="fill:black">lang: es</text>
    <rect x="240" y="20" width="200" height="40" style="fill:white;stroke:black;stroke-width:1"/>
    <text x="250" y="30" font-size="10" style="fill:blue">head</text>
    <path d="M220 40 C240 40 220 40 240 40" style="fill:transparent;stroke:black"/>
    <rect x="460" y="20" width="200" height="40" style="fill:white;stroke:black;stroke-width:1"/>
    <text x="470" y="30" font-size="10" style="fill:blue">meta</text>
    <path d="M440 40 C460 40 440 40 460 40" style="fill:transparent;stroke:black"/>
    <text x="470" y="40" font-size="8" style="fill:black">charset: utf-8</text>
    <rect x="460" y="70" width="200" height="40" style="fill:white;stroke:black;stroke-width:1"/>
    <text x="470" y="80" font-size="10" style="fill:blue">meta</text>
    <path d="M440 40 C460 40 440 90 460 90" style="fill:transparent;stroke:black"/>
    <text x="470" y="90" font-size="8" style="fill:black">name: author</text>
    <text x="470" y="100" font-size="8" style="fill:black">content: Iván González Mahagamage</text>
    <rect x="460" y="120" width="200" height="40" style="fill:white;stroke:black;stroke-width:1"/>
    <text x="470" y="130" font-size="10" style="fill:blue">meta</text>
    <path d="M440 40 C460 40 440 140 460 140" style="fill:transparent;stroke:black"/>
    <text x="470" y="140" font-size="8" style="fill:black">name: description</text>
    <text x="470" y="150" font-size="8" style="fill:black">content: Portada de las prácticas de la asignatura Software y
        Estándares para la Web
    </text>
    <rect x="460" y="170" width="200" height="40" style="fill:white;stroke:black;stroke-width:1"/>
    <text x="470" y="180" font-size="10" style="fill:blue">meta</text>
    <path d="M440 40 C460 40 440 190 460 190" style="fill:transparent;stroke:black"/>
    <text x="470" y="190" font-size="8" style="fill:black">name: keywords</text>
    <text x="470" y="200" font-size="8" style="fill:black">content: Portada,Software,Estándares,Web</text>
    <rect x="460" y="220" width="200" height="40" style="fill:white;stroke:black;stroke-width:1"/>
    <text x="470" y="230" font-size="10" style="fill:blue">title</text>
    <path d="M440 40 C460 40 440 240 460 240" style="fill:transparent;stroke:black"/>
    <rect x="526" y="220" width="137" height="40" style="fill:green;stroke:black;stroke-width:1"/>
    <text x="536" y="230" font-size="8" style="fill:white">Aficiones | UO239795</text>
    <rect x="460" y="270" width="200" height="40" style="fill:white;stroke:black;stroke-width:1"/>
    <text x="470" y="280" font-size="10" style="fill:blue">link</text>
    <path d="M440 40 C460 40 440 290 460 290" style="fill:transparent;stroke:black"/>
    <text x="470" y="290" font-size="8" style="fill:black">href: https://fonts.googleapis.com/css?family=Ubuntu</text>
    <text x="470" y="300" font-size="8" style="fill:black">rel: stylesheet</text>
    <rect x="460" y="320" width="200" height="40" style="fill:white;stroke:black;stroke-width:1"/>
    <text x="470" y="330" font-size="10" style="fill:blue">link</text>
    <path d="M440 40 C460 40 440 340 460 340" style="fill:transparent;stroke:black"/>
    <text x="470" y="340" font-size="8" style="fill:black">href: https://fonts.googleapis.com/css?family=Titillium+Web
    </text>
    <text x="470" y="350" font-size="8" style="fill:black">rel: stylesheet</text>
    <rect x="460" y="370" width="200" height="40" style="fill:white;stroke:black;stroke-width:1"/>
    <text x="470" y="380" font-size="10" style="fill:blue">link</text>
    <path d="M440 40 C460 40 440 390 460 390" style="fill:transparent;stroke:black"/>
    <text x="470" y="390" font-size="8" style="fill:black">rel: icon</text>
    <text x="470" y="400" font-size="8" style="fill:black">type: image/x-icon</text>
    <text x="470" y="410" font-size="8" style="fill:black">href:
        https://unioviedo-my.sharepoint.com/personal/uo239795_uniovi_es/_layouts/15/guestaccess.aspx?docid=1b184fdc380484a7bbdad079aa2a52135&amp;authkey=ATTjsDQ1WDwFg-XqhaEbSF4&amp;e=168190abc0264416a06fc92675ca41aa
    </text>
    <rect x="460" y="420" width="200" height="40" style="fill:white;stroke:black;stroke-width:1"/>
    <text x="470" y="430" font-size="10" style="fill:blue">link</text>
    <path d="M440 40 C460 40 440 440 460 440" style="fill:transparent;stroke:black"/>
    <text x="470" y="440" font-size="8" style="fill:black">rel: stylesheet</text>
    <text x="470" y="450" font-size="8" style="fill:black">type: text/css</text>
    <text x="470" y="460" font-size="8" style="fill:black">href: style/navDesplegable.css</text>
    <rect x="460" y="470" width="200" height="40" style="fill:white;stroke:black;stroke-width:1"/>
    <text x="470" y="480" font-size="10" style="fill:blue">link</text>
    <path d="M440 40 C460 40 440 490 460 490" style="fill:transparent;stroke:black"/>
    <text x="470" y="490" font-size="8" style="fill:black">rel: stylesheet</text>
    <text x="470" y="500" font-size="8" style="fill:black">type: text/css</text>
    <text x="470" y="510" font-size="8" style="fill:black">href: style/style.css</text>
    <rect x="460" y="520" width="200" height="40" style="fill:white;stroke:black;stroke-width:1"/>
    <text x="470" y="530" font-size="10" style="fill:blue">link</text>
    <path d="M440 40 C460 40 440 540 460 540" style="fill:transparent;stroke:black"/>
    <text x="470" y="540" font-size="8" style="fill:black">rel: stylesheet</text>
    <text x="470" y="550" font-size="8" style="fill:black">type: text/css</text>
    <text x="470" y="560" font-size="8" style="fill:black">href: style/aside.css</text>
    <rect x="460" y="570" width="200" height="40" style="fill:white;stroke:black;stroke-width:1"/>
    <text x="470" y="580" font-size="10" style="fill:blue">link</text>
    <path d="M440 40 C460 40 440 590 460 590" style="fill:transparent;stroke:black"/>
    <text x="470" y="590" font-size="8" style="fill:black">rel: stylesheet</text>
    <text x="470" y="600" font-size="8" style="fill:black">type: text/css</text>
    <text x="470" y="610" font-size="8" style="fill:black">href: style/practica05.css</text>
    <rect x="240" y="670" width="200" height="40" style="fill:white;stroke:black;stroke-width:1"/>
    <text x="250" y="680" font-size="10" style="fill:blue">body</text>
    <path d="M220 40 C240 40 220 690 240 690" style="fill:transparent;stroke:black"/>
    <rect x="460" y="670" width="200" height="40" style="fill:white;stroke:black;stroke-width:1"/>
    <text x="470" y="680" font-size="10" style="fill:blue">header</text>
    <path d="M440 690 C460 690 440 690 460 690" style="fill:transparent;stroke:black"/>
    <rect x="680" y="670" width="200" height="40" style="fill:white;stroke:black;stroke-width:1"/>
    <text x="690" y="680" font-size="10" style="fill:blue">h1</text>
    <path d="M660 690 C680 690 660 690 680 690" style="fill:transparent;stroke:black"/>
    <rect x="746" y="670" width="137" height="40" style="fill:green;stroke:black;stroke-width:1"/>
    <text x="756" y="680" font-size="8" style="fill:white">Aficiones</text>
    <rect x="680" y="720" width="200" height="40" style="fill:white;stroke:black;stroke-width:1"/>
    <text x="690" y="730" font-size="10" style="fill:blue">nav</text>
    <path d="M660 690 C680 690 660 740 680 740" style="fill:transparent;stroke:black"/>
    <rect x="900" y="720" width="200" height="40" style="fill:white;stroke:black;stroke-width:1"/>
    <text x="910" y="730" font-size="10" style="fill:blue">ul</text>
    <path d="M880 740 C900 740 880 740 900 740" style="fill:transparent;stroke:black"/>
    <rect x="1120" y="720" width="200" height="40" style="fill:white;stroke:black;stroke-width:1"/>
    <text x="1130" y="730" font-size="10" style="fill:blue">li</text>
    <path d="M1100 740 C1120 740 1100 740 1120 740" style="fill:transparent;stroke:black"/>
    <rect x="1340" y="720" width="200" height="40" style="fill:white;stroke:black;stroke-width:1"/>
    <text x="1350" y="730" font-size="10" style="fill:blue">a</text>
    <path d="M1320 740 C1340 740 1320 740 1340 740" style="fill:transparent;stroke:black"/>
    <text x="1350" y="740" font-size="8" style="fill:black">href: index.html</text>
    <rect x="1406" y="720" width="137" height="40" style="fill:green;stroke:black;stroke-width:1"/>
    <text x="1416" y="730" font-size="8" style="fill:white">Portada</text>
    <rect x="1120" y="820" width="200" height="40" style="fill:white;stroke:black;stroke-width:1"/>
    <text x="1130" y="830" font-size="10" style="fill:blue">li</text>
    <path d="M1100 740 C1120 740 1100 840 1120 840" style="fill:transparent;stroke:black"/>
    <rect x="1340" y="820" width="200" height="40" style="fill:white;stroke:black;stroke-width:1"/>
    <text x="1350" y="830" font-size="10" style="fill:blue">a</text>
    <path d="M1320 840 C1340 840 1320 840 1340 840" style="fill:transparent;stroke:black"/>
    <text x="1350" y="840" font-size="8" style="fill:black">href: aficiones.html</text>
    <rect x="1406" y="820" width="137" height="40" style="fill:green;stroke:black;stroke-width:1"/>
    <text x="1416" y="830" font-size="8" style="fill:white">Aficiones</text>
    <rect x="1120" y="920" width="200" height="40" style="fill:white;stroke:black;stroke-width:1"/>
    <text x="1130" y="930" font-size="10" style="fill:blue">li</text>
    <path d="M1100 740 C1120 740 1100 940 1120 940" style="fill:transparent;stroke:black"/>
    <rect x="1340" y="920" width="200" height="40" style="fill:white;stroke:black;stroke-width:1"/>
    <text x="1350" y="930" font-size="10" style="fill:blue">a</text>
    <path d="M1320 940 C1340 940 1320 940 1340 940" style="fill:transparent;stroke:black"/>
    <text x="1350" y="940" font-size="8" style="fill:black">href: sew.html</text>
    <rect x="1406" y="920" width="137" height="40" style="fill:green;stroke:black;stroke-width:1"/>
    <text x="1416" y="930" font-size="8" style="fill:white">SEW</text>
    <rect x="1340" y="970" width="200" height="40" style="fill:white;stroke:black;stroke-width:1"/>
    <text x="1350" y="980" font-size="10" style="fill:blue">ul</text>
    <path d="M1320 940 C1340 940 1320 990 1340 990" style="fill:transparent;stroke:black"/>
    <rect x="1560" y="970" width="200" height="40" style="fill:white;stroke:black;stroke-width:1"/>
    <text x="1570" y="980" font-size="10" style="fill:blue">li</text>
    <path d="M1540 990 C1560 990 1540 990 1560 990" style="fill:transparent;stroke:black"/>
    <rect x="1780" y="970" width="200" height="40" style="fill:white;stroke:black;stroke-width:1"/>
    <text x="1790" y="980" font-size="10" style="fill:blue">a</text>
    <path d="M1760 990 C1780 990 1760 990 1780 990" style="fill:transparent;stroke:black"/>
    <text x="1790" y="990" font-size="8" style="fill:black">href: SEW/p0/index.html</text>
    <rect x="1846" y="970" width="137" height="40" style="fill:green;stroke:black;stroke-width:1"/>
    <text x="1856" y="980" font-size="8" style="fill:white">Práctica 00</text>
    <rect x="1560" y="1070" width="200" height="40" style="fill:white;stroke:black;stroke-width:1"/>
    <text x="1570" y="1080" font-size="10" style="fill:blue">li</text>
    <path d="M1540 990 C1560 990 1540 1090 1560 1090" style="fill:transparent;stroke:black"/>
    <rect x="1780" y="1070" width="200" height="40" style="fill:white;stroke:black;stroke-width:1"/>
    <text x="1790" y="1080" font-size="10" style="fill:blue">a</text>
    <path d="M1760 1090 C1780 1090 1760 1090 1780 1090" style="fill:transparent;stroke:black"/>
    <text x="1790" y="1090" font-size="8" style="fill:black">href: SEW/p1/p1.html</text>
    <rect x="1846" y="1070" width="137" height="40" style="fill:green;stroke:black;stroke-width:1"/>
    <text x="1856" y="1080" font-size="8" style="fill:white">Práctica 01</text>
    <rect x="1560" y="1170" width="200" height="40" style="fill:white;stroke:black;stroke-width:1"/>
    <text x="1570" y="1180" font-size="10" style="fill:blue">li</text>
    <path d="M1540 990 C1560 990 1540 1190 1560 1190" style="fill:transparent;stroke:black"/>
    <rect x="1780" y="1170" width="200" height="40" style="fill:white;stroke:black;stroke-width:1"/>
    <text x="1790" y="1180" font-size="10" style="fill:blue">a</text>
    <path d="M1760 1190 C1780 1190 1760 1190 1780 1190" style="fill:transparent;stroke:black"/>
    <text x="1790" y="1190" font-size="8" style="fill:black">href: SEW/p3/p3.html</text>
    <rect x="1846" y="1170" width="137" height="40" style="fill:green;stroke:black;stroke-width:1"/>
    <text x="1856" y="1180" font-size="8" style="fill:white">Práctica 03</text>
    <rect x="1780" y="1220" width="200" height="40" style="fill:white;stroke:black;stroke-width:1"/>
    <text x="1790" y="1230" font-size="10" style="fill:blue">ul</text>
    <path d="M1760 1190 C1780 1190 1760 1240 1780 1240" style="fill:transparent;stroke:black"/>
    <rect x="2000" y="1220" width="200" height="40" style="fill:white;stroke:black;stroke-width:1"/>
    <text x="2010" y="1230" font-size="10" style="fill:blue">li</text>
    <path d="M1980 1240 C2000 1240 1980 1240 2000 1240" style="fill:transparent;stroke:black"/>
    <rect x="2220" y="1220" width="200" height="40" style="fill:white;stroke:black;stroke-width:1"/>
    <text x="2230" y="1230" font-size="10" style="fill:blue">a</text>
    <path d="M2200 1240 C2220 1240 2200 1240 2220 1240" style="fill:transparent;stroke:black"/>
    <text x="2230" y="1240" font-size="8" style="fill:black">href: SEW/p3/p3_1_introduccion.html</text>
    <rect x="2286" y="1220" width="137" height="40" style="fill:green;stroke:black;stroke-width:1"/>
    <text x="2296" y="1230" font-size="8" style="fill:white">Introducción P3</text>
    <rect x="2000" y="1320" width="200" height="40" style="fill:white;stroke:black;stroke-width:1"/>
    <text x="2010" y="1330" font-size="10" style="fill:blue">li</text>
    <path d="M1980 1240 C2000 1240 1980 1340 2000 1340" style="fill:transparent;stroke:black"/>
    <rect x="2220" y="1320" width="200" height="40" style="fill:white;stroke:black;stroke-width:1"/>
    <text x="2230" y="1330" font-size="10" style="fill:blue">a</text>
    <path d="M2200 1340 C2220 1340 2200 1340 2220 1340" style="fill:transparent;stroke:black"/>
    <text x="2230" y="1340" font-size="8" style="fill:black">href: SEW/p3/p3_2_libros.html</text>
    <rect x="2286" y="1320" width="137" height="40" style="fill:green;stroke:black;stroke-width:1"/>
    <text x="2296" y="1330" font-size="8" style="fill:white">Libros P3</text>
    <rect x="2000" y="1420" width="200" height="40" style="fill:white;stroke:black;stroke-width:1"/>
    <text x="2010" y="1430" font-size="10" style="fill:blue">li</text>
    <path d="M1980 1240 C2000 1240 1980 1440 2000 1440" style="fill:transparent;stroke:black"/>
    <rect x="2220" y="1420" width="200" height="40" style="fill:white;stroke:black;stroke-width:1"/>
    <text x="2230" y="1430" font-size="10" style="fill:blue">a</text>
    <path d="M2200 1440 C2220 1440 2200 1440 2220 1440" style="fill:transparent;stroke:black"/>
    <text x="2230" y="1440" font-size="8" style="fill:black">href: SEW/p3/p3_3_resumen.html</text>
    <rect x="2286" y="1420" width="137" height="40" style="fill:green;stroke:black;stroke-width:1"/>
    <text x="2296" y="1430" font-size="8" style="fill:white">Resumen P3</text>
    <rect x="2000" y="1520" width="200" height="40" style="fill:white;stroke:black;stroke-width:1"/>
    <text x="2010" y="1530" font-size="10" style="fill:blue">li</text>
    <path d="M1980 1240 C2000 1240 1980 1540 2000 1540" style="fill:transparent;stroke:black"/>
    <rect x="2220" y="1520" width="200" height="40" style="fill:white;stroke:black;stroke-width:1"/>
    <text x="2230" y="1530" font-size="10" style="fill:blue">a</text>
    <path d="M2200 1540 C2220 1540 2200 1540 2220 1540" style="fill:transparent;stroke:black"/>
    <text x="2230" y="1540" font-size="8" style="fill:black">href: SEW/p3/p3_4_personajes.html</text>
    <rect x="2286" y="1520" width="137" height="40" style="fill:green;stroke:black;stroke-width:1"/>
    <text x="2296" y="1530" font-size="8" style="fill:white">Personajes P3</text>
    <rect x="2000" y="1620" width="200" height="40" style="fill:white;stroke:black;stroke-width:1"/>
    <text x="2010" y="1630" font-size="10" style="fill:blue">li</text>
    <path d="M1980 1240 C2000 1240 1980 1640 2000 1640" style="fill:transparent;stroke:black"/>
    <rect x="2220" y="1620" width="200" height="40" style="fill:white;stroke:black;stroke-width:1"/>
    <text x="2230" y="1630" font-size="10" style="fill:blue">a</text>
    <path d="M2200 1640 C2220 1640 2200 1640 2220 1640" style="fill:transparent;stroke:black"/>
    <text x="2230" y="1640" font-size="8" style="fill:black">href: SEW/p3/p3_5_fuentes.html</text>
    <rect x="2286" y="1620" width="137" height="40" style="fill:green;stroke:black;stroke-width:1"/>
    <text x="2296" y="1630" font-size="8" style="fill:white">Fuentes P3</text>
    <rect x="2000" y="1720" width="200" height="40" style="fill:white;stroke:black;stroke-width:1"/>
    <text x="2010" y="1730" font-size="10" style="fill:blue">li</text>
    <path d="M1980 1240 C2000 1240 1980 1740 2000 1740" style="fill:transparent;stroke:black"/>
    <rect x="2220" y="1720" width="200" height="40" style="fill:white;stroke:black;stroke-width:1"/>
    <text x="2230" y="1730" font-size="10" style="fill:blue">a</text>
    <path d="M2200 1740 C2220 1740 2200 1740 2220 1740" style="fill:transparent;stroke:black"/>
    <text x="2230" y="1740" font-size="8" style="fill:black">href: SEW/p3/p3_6_adaptaciones.html</text>
    <rect x="2286" y="1720" width="137" height="40" style="fill:green;stroke:black;stroke-width:1"/>
    <text x="2296" y="1730" font-size="8" style="fill:white">Adaptaciones P3</text>
    <rect x="2000" y="1820" width="200" height="40" style="fill:white;stroke:black;stroke-width:1"/>
    <text x="2010" y="1830" font-size="10" style="fill:blue">li</text>
    <path d="M1980 1240 C2000 1240 1980 1840 2000 1840" style="fill:transparent;stroke:black"/>
    <rect x="2220" y="1820" width="200" height="40" style="fill:white;stroke:black;stroke-width:1"/>
    <text x="2230" y="1830" font-size="10" style="fill:blue">a</text>
    <path d="M2200 1840 C2220 1840 2200 1840 2220 1840" style="fill:transparent;stroke:black"/>
    <text x="2230" y="1840" font-size="8" style="fill:black">href: SEW/p3/p3_7_mas.html</text>
    <rect x="2286" y="1820" width="137" height="40" style="fill:green;stroke:black;stroke-width:1"/>
    <text x="2296" y="1830" font-size="8" style="fill:white">Más información P3</text>
    <rect x="1560" y="2020" width="200" height="40" style="fill:white;stroke:black;stroke-width:1"/>
    <text x="1570" y="2030" font-size="10" style="fill:blue">li</text>
    <path d="M1540 990 C1560 990 1540 2040 1560 2040" style="fill:transparent;stroke:black"/>
    <rect x="1780" y="2020" width="200" height="40" style="fill:white;stroke:black;stroke-width:1"/>
    <text x="1790" y="2030" font-size="10" style="fill:blue">a</text>
    <path d="M1760 2040 C1780 2040 1760 2040 1780 2040" style="fill:transparent;stroke:black"/>
    <text x="1790" y="2040" font-size="8" style="fill:black">href: SEW/p5/p5.html</text>
    <rect x="1846" y="2020" width="137" height="40" style="fill:green;stroke:black;stroke-width:1"/>
    <text x="1856" y="2030" font-size="8" style="fill:white">Práctica 05</text>
    <rect x="1780" y="2070" width="200" height="40" style="fill:white;stroke:black;stroke-width:1"/>
    <text x="1790" y="2080" font-size="10" style="fill:blue">ul</text>
    <path d="M1760 2040 C1780 2040 1760 2090 1780 2090" style="fill:transparent;stroke:black"/>
    <rect x="2000" y="2070" width="200" height="40" style="fill:white;stroke:black;stroke-width:1"/>
    <text x="2010" y="2080" font-size="10" style="fill:blue">li</text>
    <path d="M1980 2090 C2000 2090 1980 2090 2000 2090" style="fill:transparent;stroke:black"/>
    <rect x="2220" y="2070" width="200" height="40" style="fill:white;stroke:black;stroke-width:1"/>
    <text x="2230" y="2080" font-size="10" style="fill:blue">a</text>
    <path d="M2200 2090 C2220 2090 2200 2090 2220 2090" style="fill:transparent;stroke:black"/>
    <text x="2230" y="2090" font-size="8" style="fill:black">href: SEW/p5/p5_1_introduccion.html</text>
    <rect x="2286" y="2070" width="137" height="40" style="fill:green;stroke:black;stroke-width:1"/>
    <text x="2296" y="2080" font-size="8" style="fill:white">Introducción P5</text>
    <rect x="2000" y="2170" width="200" height="40" style="fill:white;stroke:black;stroke-width:1"/>
    <text x="2010" y="2180" font-size="10" style="fill:blue">li</text>
    <path d="M1980 2090 C2000 2090 1980 2190 2000 2190" style="fill:transparent;stroke:black"/>
    <rect x="2220" y="2170" width="200" height="40" style="fill:white;stroke:black;stroke-width:1"/>
    <text x="2230" y="2180" font-size="10" style="fill:blue">a</text>
    <path d="M2200 2190 C2220 2190 2200 2190 2220 2190" style="fill:transparent;stroke:black"/>
    <text x="2230" y="2190" font-size="8" style="fill:black">href: SEW/p5/p5_2_libros.html</text>
    <rect x="2286" y="2170" width="137" height="40" style="fill:green;stroke:black;stroke-width:1"/>
    <text x="2296" y="2180" font-size="8" style="fill:white">Libros P5</text>
    <rect x="2000" y="2270" width="200" height="40" style="fill:white;stroke:black;stroke-width:1"/>
    <text x="2010" y="2280" font-size="10" style="fill:blue">li</text>
    <path d="M1980 2090 C2000 2090 1980 2290 2000 2290" style="fill:transparent;stroke:black"/>
    <rect x="2220" y="2270" width="200" height="40" style="fill:white;stroke:black;stroke-width:1"/>
    <text x="2230" y="2280" font-size="10" style="fill:blue">a</text>
    <path d="M2200 2290 C2220 2290 2200 2290 2220 2290" style="fill:transparent;stroke:black"/>
    <text x="2230" y="2290" font-size="8" style="fill:black">href: SEW/p5/p5_3_resumen.html</text>
    <rect x="2286" y="2270" width="137" height="40" style="fill:green;stroke:black;stroke-width:1"/>
    <text x="2296" y="2280" font-size="8" style="fill:white">Resumen P5</text>
    <rect x="2000" y="2370" width="200" height="40" style="fill:white;stroke:black;stroke-width:1"/>
    <text x="2010" y="2380" font-size="10" style="fill:blue">li</text>
    <path d="M1980 2090 C2000 2090 1980 2390 2000 2390" style="fill:transparent;stroke:black"/>
    <rect x="2220" y="2370" width="200" height="40" style="fill:white;stroke:black;stroke-width:1"/>
    <text x="2230" y="2380" font-size="10" style="fill:blue">a</text>
    <path d="M2200 2390 C2220 2390 2200 2390 2220 2390" style="fill:transparent;stroke:black"/>
    <text x="2230" y="2390" font-size="8" style="fill:black">href: SEW/p5/p5_4_personajes.html</text>
    <rect x="2286" y="2370" width="137" height="40" style="fill:green;stroke:black;stroke-width:1"/>
    <text x="2296" y="2380" font-size="8" style="fill:white">Personajes P5</text>
    <rect x="2000" y="2470" width="200" height="40" style="fill:white;stroke:black;stroke-width:1"/>
    <text x="2010" y="2480" font-size="10" style="fill:blue">li</text>
    <path d="M1980 2090 C2000 2090 1980 2490 2000 2490" style="fill:transparent;stroke:black"/>
    <rect x="2220" y="2470" width="200" height="40" style="fill:white;stroke:black;stroke-width:1"/>
    <text x="2230" y="2480" font-size="10" style="fill:blue">a</text>
    <path d="M2200 2490 C2220 2490 2200 2490 2220 2490" style="fill:transparent;stroke:black"/>
    <text x="2230" y="2490" font-size="8" style="fill:black">href: SEW/p5/p5_5_fuentes.html</text>
    <rect x="2286" y="2470" width="137" height="40" style="fill:green;stroke:black;stroke-width:1"/>
    <text x="2296" y="2480" font-size="8" style="fill:white">Fuentes P5</text>
    <rect x="2000" y="2570" width="200" height="40" style="fill:white;stroke:black;stroke-width:1"/>
    <text x="2010" y="2580" font-size="10" style="fill:blue">li</text>
    <path d="M1980 2090 C2000 2090 1980 2590 2000 2590" style="fill:transparent;stroke:black"/>
    <rect x="2220" y="2570" width="200" height="40" style="fill:white;stroke:black;stroke-width:1"/>
    <text x="2230" y="2580" font-size="10" style="fill:blue">a</text>
    <path d="M2200 2590 C2220 2590 2200 2590 2220 2590" style="fill:transparent;stroke:black"/>
    <text x="2230" y="2590" font-size="8" style="fill:black">href: SEW/p5/p5_6_adaptaciones.html</text>
    <rect x="2286" y="2570" width="137" height="40" style="fill:green;stroke:black;stroke-width:1"/>
    <text x="2296" y="2580" font-size="8" style="fill:white">Adaptaciones P5</text>
    <rect x="2000" y="2670" width="200" height="40" style="fill:white;stroke:black;stroke-width:1"/>
    <text x="2010" y="2680" font-size="10" style="fill:blue">li</text>
    <path d="M1980 2090 C2000 2090 1980 2690 2000 2690" style="fill:transparent;stroke:black"/>
    <rect x="2220" y="2670" width="200" height="40" style="fill:white;stroke:black;stroke-width:1"/>
    <text x="2230" y="2680" font-size="10" style="fill:blue">a</text>
    <path d="M2200 2690 C2220 2690 2200 2690 2220 2690" style="fill:transparent;stroke:black"/>
    <text x="2230" y="2690" font-size="8" style="fill:black">href: SEW/p5/p5_7_mas.html</text>
    <rect x="2286" y="2670" width="137" height="40" style="fill:green;stroke:black;stroke-width:1"/>
    <text x="2296" y="2680" font-size="8" style="fill:white">Más información P5</text>
    <rect x="460" y="3120" width="200" height="40" style="fill:white;stroke:black;stroke-width:1"/>
    <text x="470" y="3130" font-size="10" style="fill:blue">main</text>
    <path d="M440 690 C460 690 440 3140 460 3140" style="fill:transparent;stroke:black"/>
    <rect x="680" y="3120" width="200" height="40" style="fill:white;stroke:black;stroke-width:1"/>
    <text x="690" y="3130" font-size="10" style="fill:blue">ul</text>
    <path d="M660 3140 C680 3140 660 3140 680 3140" style="fill:transparent;stroke:black"/>
    <rect x="900" y="3120" width="200" height="40" style="fill:white;stroke:black;stroke-width:1"/>
    <text x="910" y="3130" font-size="10" style="fill:blue">li</text>
    <path d="M880 3140 C900 3140 880 3140 900 3140" style="fill:transparent;stroke:black"/>
    <rect x="1120" y="3120" width="200" height="40" style="fill:white;stroke:black;stroke-width:1"/>
    <text x="1130" y="3130" font-size="10" style="fill:blue">h2</text>
    <path d="M1100 3140 C1120 3140 1100 3140 1120 3140" style="fill:transparent;stroke:black"/>
    <rect x="1186" y="3120" width="137" height="40" style="fill:green;stroke:black;stroke-width:1"/>
    <text x="1196" y="3130" font-size="8" style="fill:white">Overwatch</text>
    <rect x="1120" y="3170" width="200" height="40" style="fill:white;stroke:black;stroke-width:1"/>
    <text x="1130" y="3180" font-size="10" style="fill:blue">video</text>
    <path d="M1100 3140 C1120 3140 1100 3190 1120 3190" style="fill:transparent;stroke:black"/>
    <text x="1130" y="3190" font-size="8" style="fill:black">controls: controls</text>
    <rect x="1340" y="3170" width="200" height="40" style="fill:white;stroke:black;stroke-width:1"/>
    <text x="1350" y="3180" font-size="10" style="fill:blue">source</text>
    <path d="M1320 3190 C1340 3190 1320 3190 1340 3190" style="fill:transparent;stroke:black"/>
    <text x="1350" y="3190" font-size="8" style="fill:black">src:
        https://unioviedo-my.sharepoint.com/personal/uo239795_uniovi_es/_layouts/15/guestaccess.aspx?docid=1e426fbf70a5b4b89a667426ba10bb35b&amp;authkey=Aef6MlBgPIcUL-Ki80XvvBs&amp;e=3566699774b54ff794b86e59a80500f5
    </text>
    <text x="1350" y="3200" font-size="8" style="fill:black">type: video/mp4</text>
    <rect x="1186" y="3220" width="137" height="40" style="fill:green;stroke:black;stroke-width:1"/>
    <text x="1196" y="3230" font-size="8" style="fill:white">
        Overwatch - Intro
    </text>
    <rect x="900" y="3320" width="200" height="40" style="fill:white;stroke:black;stroke-width:1"/>
    <text x="910" y="3330" font-size="10" style="fill:blue">li</text>
    <path d="M880 3140 C900 3140 880 3340 900 3340" style="fill:transparent;stroke:black"/>
    <rect x="1120" y="3320" width="200" height="40" style="fill:white;stroke:black;stroke-width:1"/>
    <text x="1130" y="3330" font-size="10" style="fill:blue">h2</text>
    <path d="M1100 3340 C1120 3340 1100 3340 1120 3340" style="fill:transparent;stroke:black"/>
    <rect x="1186" y="3320" width="137" height="40" style="fill:green;stroke:black;stroke-width:1"/>
    <text x="1196" y="3330" font-size="8" style="fill:white">Heroes of the Storm</text>
    <rect x="1120" y="3370" width="200" height="40" style="fill:white;stroke:black;stroke-width:1"/>
    <text x="1130" y="3380" font-size="10" style="fill:blue">video</text>
    <path d="M1100 3340 C1120 3340 1100 3390 1120 3390" style="fill:transparent;stroke:black"/>
    <text x="1130" y="3390" font-size="8" style="fill:black">controls: controls</text>
    <rect x="1340" y="3370" width="200" height="40" style="fill:white;stroke:black;stroke-width:1"/>
    <text x="1350" y="3380" font-size="10" style="fill:blue">source</text>
    <path d="M1320 3390 C1340 3390 1320 3390 1340 3390" style="fill:transparent;stroke:black"/>
    <text x="1350" y="3390" font-size="8" style="fill:black">src:
        https://unioviedo-my.sharepoint.com/personal/uo239795_uniovi_es/_layouts/15/guestaccess.aspx?docid=1d35e7ef7222c4a758c7c3411c817b810&amp;authkey=AXq4fBEqZWSna7ToPut-tJE&amp;e=473751cb2d53498b862624b8d9af8b63
    </text>
    <text x="1350" y="3400" font-size="8" style="fill:black">type: video/mp4</text>
    <rect x="1186" y="3420" width="137" height="40" style="fill:green;stroke:black;stroke-width:1"/>
    <text x="1196" y="3430" font-size="8" style="fill:white">
        Heroes of the Storm - Intro
    </text>
    <rect x="900" y="3520" width="200" height="40" style="fill:white;stroke:black;stroke-width:1"/>
    <text x="910" y="3530" font-size="10" style="fill:blue">li</text>
    <path d="M880 3140 C900 3140 880 3540 900 3540" style="fill:transparent;stroke:black"/>
    <rect x="1120" y="3520" width="200" height="40" style="fill:white;stroke:black;stroke-width:1"/>
    <text x="1130" y="3530" font-size="10" style="fill:blue">h2</text>
    <path d="M1100 3540 C1120 3540 1100 3540 1120 3540" style="fill:transparent;stroke:black"/>
    <rect x="1186" y="3520" width="137" height="40" style="fill:green;stroke:black;stroke-width:1"/>
    <text x="1196" y="3530" font-size="8" style="fill:white">One Piece</text>
    <rect x="1120" y="3570" width="200" height="40" style="fill:white;stroke:black;stroke-width:1"/>
    <text x="1130" y="3580" font-size="10" style="fill:blue">video</text>
    <path d="M1100 3540 C1120 3540 1100 3590 1120 3590" style="fill:transparent;stroke:black"/>
    <text x="1130" y="3590" font-size="8" style="fill:black">controls: controls</text>
    <rect x="1340" y="3570" width="200" height="40" style="fill:white;stroke:black;stroke-width:1"/>
    <text x="1350" y="3580" font-size="10" style="fill:blue">source</text>
    <path d="M1320 3590 C1340 3590 1320 3590 1340 3590" style="fill:transparent;stroke:black"/>
    <text x="1350" y="3590" font-size="8" style="fill:black">src:
        https://unioviedo-my.sharepoint.com/personal/uo239795_uniovi_es/_layouts/15/guestaccess.aspx?docid=1b3b7a65a754a482d908f12f89ab20d52&amp;authkey=Aewn_M0dkb2spP0JFtGbZxU&amp;e=be52e864f91b402f84925bc3e5ea591d
    </text>
    <text x="1350" y="3600" font-size="8" style="fill:black">type: video/mp4</text>
    <rect x="1186" y="3620" width="137" height="40" style="fill:green;stroke:black;stroke-width:1"/>
    <text x="1196" y="3630" font-size="8" style="fill:white">
        One Piece - Intro
    </text>
    <rect x="900" y="3720" width="200" height="40" style="fill:white;stroke:black;stroke-width:1"/>
    <text x="910" y="3730" font-size="10" style="fill:blue">li</text>
    <path d="M880 3140 C900 3140 880 3740 900 3740" style="fill:transparent;stroke:black"/>
    <rect x="1120" y="3720" width="200" height="40" style="fill:white;stroke:black;stroke-width:1"/>
    <text x="1130" y="3730" font-size="10" style="fill:blue">h2</text>
    <path d="M1100 3740 C1120 3740 1100 3740 1120 3740" style="fill:transparent;stroke:black"/>
    <rect x="1186" y="3720" width="137" height="40" style="fill:green;stroke:black;stroke-width:1"/>
    <text x="1196" y="3730" font-size="8" style="fill:white">Naruto</text>
    <rect x="1120" y="3770" width="200" height="40" style="fill:white;stroke:black;stroke-width:1"/>
    <text x="1130" y="3780" font-size="10" style="fill:blue">video</text>
    <path d="M1100 3740 C1120 3740 1100 3790 1120 3790" style="fill:transparent;stroke:black"/>
    <text x="1130" y="3790" font-size="8" style="fill:black">controls: controls</text>
    <rect x="1340" y="3770" width="200" height="40" style="fill:white;stroke:black;stroke-width:1"/>
    <text x="1350" y="3780" font-size="10" style="fill:blue">source</text>
    <path d="M1320 3790 C1340 3790 1320 3790 1340 3790" style="fill:transparent;stroke:black"/>
    <text x="1350" y="3790" font-size="8" style="fill:black">src:
        https://unioviedo-my.sharepoint.com/personal/uo239795_uniovi_es/_layouts/15/guestaccess.aspx?docid=15aae01db80cb48abb0939ff09da07553&amp;authkey=AaXhHV74mUWy-QxLRoF2jI8&amp;e=7eb5d8bf9ae442f0b86b7819f16b4129
    </text>
    <text x="1350" y="3800" font-size="8" style="fill:black">type: video/mp4</text>
    <rect x="1186" y="3820" width="137" height="40" style="fill:green;stroke:black;stroke-width:1"/>
    <text x="1196" y="3830" font-size="8" style="fill:white">
        Naruto - Intro
    </text>
    <rect x="900" y="3920" width="200" height="40" style="fill:white;stroke:black;stroke-width:1"/>
    <text x="910" y="3930" font-size="10" style="fill:blue">li</text>
    <path d="M880 3140 C900 3140 880 3940 900 3940" style="fill:transparent;stroke:black"/>
    <rect x="1120" y="3920" width="200" height="40" style="fill:white;stroke:black;stroke-width:1"/>
    <text x="1130" y="3930" font-size="10" style="fill:blue">h2</text>
    <path d="M1100 3940 C1120 3940 1100 3940 1120 3940" style="fill:transparent;stroke:black"/>
    <rect x="1186" y="3920" width="137" height="40" style="fill:green;stroke:black;stroke-width:1"/>
    <text x="1196" y="3930" font-size="8" style="fill:white">Bleach</text>
    <rect x="1120" y="3970" width="200" height="40" style="fill:white;stroke:black;stroke-width:1"/>
    <text x="1130" y="3980" font-size="10" style="fill:blue">video</text>
    <path d="M1100 3940 C1120 3940 1100 3990 1120 3990" style="fill:transparent;stroke:black"/>
    <text x="1130" y="3990" font-size="8" style="fill:black">controls: controls</text>
    <rect x="1340" y="3970" width="200" height="40" style="fill:white;stroke:black;stroke-width:1"/>
    <text x="1350" y="3980" font-size="10" style="fill:blue">source</text>
    <path d="M1320 3990 C1340 3990 1320 3990 1340 3990" style="fill:transparent;stroke:black"/>
    <text x="1350" y="3990" font-size="8" style="fill:black">src:
        https://unioviedo-my.sharepoint.com/personal/uo239795_uniovi_es/_layouts/15/guestaccess.aspx?docid=16af6ecbf79c0414f8d17a313058d0944&amp;authkey=AbV0eMuogfpnETgpE_mVTHQ&amp;e=dbbdef6be6f9425a8eb9e0224b85a586
    </text>
    <text x="1350" y="4000" font-size="8" style="fill:black">type: video/mp4</text>
    <rect x="1186" y="4020" width="137" height="40" style="fill:green;stroke:black;stroke-width:1"/>
    <text x="1196" y="4030" font-size="8" style="fill:white">
        Bleach - Intro
    </text>
    <rect x="900" y="4120" width="200" height="40" style="fill:white;stroke:black;stroke-width:1"/>
    <text x="910" y="4130" font-size="10" style="fill:blue">li</text>
    <path d="M880 3140 C900 3140 880 4140 900 4140" style="fill:transparent;stroke:black"/>
    <rect x="1120" y="4120" width="200" height="40" style="fill:white;stroke:black;stroke-width:1"/>
    <text x="1130" y="4130" font-size="10" style="fill:blue">h2</text>
    <path d="M1100 4140 C1120 4140 1100 4140 1120 4140" style="fill:transparent;stroke:black"/>
    <rect x="1186" y="4120" width="137" height="40" style="fill:green;stroke:black;stroke-width:1"/>
    <text x="1196" y="4130" font-size="8" style="fill:white">Fairy Tail</text>
    <rect x="1120" y="4170" width="200" height="40" style="fill:white;stroke:black;stroke-width:1"/>
    <text x="1130" y="4180" font-size="10" style="fill:blue">video</text>
    <path d="M1100 4140 C1120 4140 1100 4190 1120 4190" style="fill:transparent;stroke:black"/>
    <text x="1130" y="4190" font-size="8" style="fill:black">controls: controls</text>
    <rect x="1340" y="4170" width="200" height="40" style="fill:white;stroke:black;stroke-width:1"/>
    <text x="1350" y="4180" font-size="10" style="fill:blue">source</text>
    <path d="M1320 4190 C1340 4190 1320 4190 1340 4190" style="fill:transparent;stroke:black"/>
    <text x="1350" y="4190" font-size="8" style="fill:black">src:
        https://unioviedo-my.sharepoint.com/personal/uo239795_uniovi_es/_layouts/15/guestaccess.aspx?docid=1ffdd6ebb6f5344d28a0d0d34763af910&amp;authkey=AeOoYFCaBEpAThzWDMrtcfo&amp;e=333bf926d6704db89a7b6135c8e0e0e4
    </text>
    <text x="1350" y="4200" font-size="8" style="fill:black">type: video/mp4</text>
    <rect x="1186" y="4220" width="137" height="40" style="fill:green;stroke:black;stroke-width:1"/>
    <text x="1196" y="4230" font-size="8" style="fill:white">
        Fairy Tail - Intro
    </text>
    <rect x="460" y="4420" width="200" height="40" style="fill:white;stroke:black;stroke-width:1"/>
    <text x="470" y="4430" font-size="10" style="fill:blue">footer</text>
    <path d="M440 690 C460 690 440 4440 460 4440" style="fill:transparent;stroke:black"/>
    <rect x="680" y="4420" width="200" height="40" style="fill:white;stroke:black;stroke-width:1"/>
    <text x="690" y="4430" font-size="10" style="fill:blue">address</text>
    <path d="M660 4440 C680 4440 660 4440 680 4440" style="fill:transparent;stroke:black"/>
    <rect x="900" y="4420" width="200" height="40" style="fill:white;stroke:black;stroke-width:1"/>
    <text x="910" y="4430" font-size="10" style="fill:blue">p</text>
    <path d="M880 4440 C900 4440 880 4440 900 4440" style="fill:transparent;stroke:black"/>
    <rect x="966" y="4420" width="137" height="40" style="fill:green;stroke:black;stroke-width:1"/>
    <text x="976" y="4430" font-size="8" style="fill:white">Autor: Iván González Mahagamage</text>
    <rect x="900" y="4470" width="200" height="40" style="fill:white;stroke:black;stroke-width:1"/>
    <text x="910" y="4480" font-size="10" style="fill:blue">p</text>
    <path d="M880 4440 C900 4440 880 4490 900 4490" style="fill:transparent;stroke:black"/>
    <rect x="966" y="4470" width="137" height="40" style="fill:green;stroke:black;stroke-width:1"/>
    <text x="976" y="4480" font-size="8" style="fill:white">Contacto:</text>
    <rect x="1120" y="4470" width="200" height="40" style="fill:white;stroke:black;stroke-width:1"/>
    <text x="1130" y="4480" font-size="10" style="fill:blue">a</text>
    <path d="M1100 4490 C1120 4490 1100 4490 1120 4490" style="fill:transparent;stroke:black"/>
    <text x="1130" y="4490" font-size="8" style="fill:black">href: mailto:uo239795@uniovi.es</text>
    <rect x="1186" y="4470" width="137" height="40" style="fill:green;stroke:black;stroke-width:1"/>
    <text x="1196" y="4480" font-size="8" style="fill:white">uo239795@uniovi.es</text>
    <rect x="680" y="4620" width="200" height="40" style="fill:white;stroke:black;stroke-width:1"/>
    <text x="690" y="4630" font-size="10" style="fill:blue">p</text>
    <path d="M660 4440 C680 4440 660 4640 680 4640" style="fill:transparent;stroke:black"/>
    <rect x="900" y="4620" width="200" height="40" style="fill:white;stroke:black;stroke-width:1"/>
    <text x="910" y="4630" font-size="10" style="fill:blue">a</text>
    <path d="M880 4640 C900 4640 880 4640 900 4640" style="fill:transparent;stroke:black"/>
    <text x="910" y="4640" font-size="8" style="fill:black">href: https://validator.w3.org/check?uri=referer</text>
    <rect x="1120" y="4620" width="200" height="40" style="fill:white;stroke:black;stroke-width:1"/>
    <text x="1130" y="4630" font-size="10" style="fill:blue">img</text>
    <path d="M1100 4640 C1120 4640 1100 4640 1120 4640" style="fill:transparent;stroke:black"/>
    <text x="1130" y="4640" font-size="8" style="fill:black">src:
        https://unioviedo-my.sharepoint.com/personal/uo239795_uniovi_es/_layouts/15/guestaccess.aspx?docid=1dc29309c5f484ddbb0d9db5b1c80c434&amp;authkey=ARFq9i5Nm2QpUmJj55IcDgQ&amp;e=705a58700abd4191a586e91989da4a0e
    </text>
    <text x="1130" y="4650" font-size="8" style="fill:black">alt: HTML5 Válido</text>
    <text x="1130" y="4660" font-size="8" style="fill:black">longdesc: https://validator.w3.org/check?uri=referer</text>
    <rect x="900" y="4720" width="200" height="40" style="fill:white;stroke:black;stroke-width:1"/>
    <text x="910" y="4730" font-size="10" style="fill:blue">a</text>
    <path d="M880 4640 C900 4640 880 4740 900 4740" style="fill:transparent;stroke:black"/>
    <text x="910" y="4740" font-size="8" style="fill:black">href: http://jigsaw.w3.org/css-validator/check/referer
    </text>
    <rect x="1120" y="4720" width="200" height="40" style="fill:white;stroke:black;stroke-width:1"/>
    <text x="1130" y="4730" font-size="10" style="fill:blue">img</text>
    <path d="M1100 4740 C1120 4740 1100 4740 1120 4740" style="fill:transparent;stroke:black"/>
    <text x="1130" y="4740" font-size="8" style="fill:black">src:
        https://unioviedo-my.sharepoint.com/personal/uo239795_uniovi_es/_layouts/15/guestaccess.aspx?docid=190f4b784428a40a2b969ae7f977a3d85&amp;authkey=AegPExwjY0qZ80NLtEpPmYo&amp;amp;e=41cf2c002341476e8abb088bc7c0a15b
    </text>
    <text x="1130" y="4750" font-size="8" style="fill:black">alt: ¡CSS Válido!</text>
    <rect x="680" y="4870" width="200" height="40" style="fill:white;stroke:black;stroke-width:1"/>
    <text x="690" y="4880" font-size="10" style="fill:blue">p</text>
    <path d="M660 4440 C680 4440 660 4890 680 4890" style="fill:transparent;stroke:black"/>
    <rect x="900" y="4870" width="200" height="40" style="fill:white;stroke:black;stroke-width:1"/>
    <text x="910" y="4880" font-size="10" style="fill:blue">a</text>
    <path d="M880 4890 C900 4890 880 4890 900 4890" style="fill:transparent;stroke:black"/>
    <text x="910" y="4890" font-size="8" style="fill:black">href: index.svg</text>
    <rect x="966" y="4870" width="137" height="40" style="fill:green;stroke:black;stroke-width:1"/>
    <text x="976" y="4880" font-size="8" style="fill:white">Mostrar árbol DOM</text>
</svg>