<?xml version="1.0" encoding="utf-8"?>
<svg width="auto" height="4170" style="overflow:visible " version="1.1" xmlns="http://www.w3.org/2000/svg">
    <rect x="20" y="20" width="200" height="40" style="fill:white;stroke:black;stroke-width:1"/>
    <text x="30" y="30" font-size="10" style="fill:blue">html</text>
    <text x="30" y="40" font-size="8" style="fill:black">lang: es</text>
    <rect x="240" y="20" width="200" height="40" style="fill:white;stroke:black;stroke-width:1"/>
    <text x="250" y="30" font-size="10" style="fill:blue">head</text>
    <path d="M220 40 C240 40 220 40 240 40" style="fill:transparent;stroke:black"/>
    <rect x="460" y="20" width="200" height="40" style="fill:white;stroke:black;stroke-width:1"/>
    <text x="470" y="30" font-size="10" style="fill:blue">meta</text>
    <path d="M440 40 C460 40 440 40 460 40" style="fill:transparent;stroke:black"/>
    <text x="470" y="40" font-size="8" style="fill:black">charset: utf-8</text>
    <rect x="460" y="70" width="200" height="40" style="fill:white;stroke:black;stroke-width:1"/>
    <text x="470" y="80" font-size="10" style="fill:blue">meta</text>
    <path d="M440 40 C460 40 440 90 460 90" style="fill:transparent;stroke:black"/>
    <text x="470" y="90" font-size="8" style="fill:black">name: author</text>
    <text x="470" y="100" font-size="8" style="fill:black">content: Iván González Mahagamage</text>
    <rect x="460" y="120" width="200" height="40" style="fill:white;stroke:black;stroke-width:1"/>
    <text x="470" y="130" font-size="10" style="fill:blue">meta</text>
    <path d="M440 40 C460 40 440 140 460 140" style="fill:transparent;stroke:black"/>
    <text x="470" y="140" font-size="8" style="fill:black">name: description</text>
    <text x="470" y="150" font-size="8" style="fill:black">content: Práctica 05 de la asignatura Software y Estándares
        para la Web
    </text>
    <rect x="460" y="170" width="200" height="40" style="fill:white;stroke:black;stroke-width:1"/>
    <text x="470" y="180" font-size="10" style="fill:blue">meta</text>
    <path d="M440 40 C460 40 440 190 460 190" style="fill:transparent;stroke:black"/>
    <text x="470" y="190" font-size="8" style="fill:black">name: keywords</text>
    <text x="470" y="200" font-size="8" style="fill:black">content:
        Práctica,05,HTML,HTML5,fuentes,Software,Estándares,Web
    </text>
    <rect x="460" y="220" width="200" height="40" style="fill:white;stroke:black;stroke-width:1"/>
    <text x="470" y="230" font-size="10" style="fill:blue">title</text>
    <path d="M440 40 C460 40 440 240 460 240" style="fill:transparent;stroke:black"/>
    <rect x="526" y="220" width="137" height="40" style="fill:green;stroke:black;stroke-width:1"/>
    <text x="536" y="230" font-size="8" style="fill:white">Práctica 05 | Software y Estándares para la Web</text>
    <rect x="460" y="270" width="200" height="40" style="fill:white;stroke:black;stroke-width:1"/>
    <text x="470" y="280" font-size="10" style="fill:blue">link</text>
    <path d="M440 40 C460 40 440 290 460 290" style="fill:transparent;stroke:black"/>
    <text x="470" y="290" font-size="8" style="fill:black">href: https://fonts.googleapis.com/css?family=Ubuntu</text>
    <text x="470" y="300" font-size="8" style="fill:black">rel: stylesheet</text>
    <rect x="460" y="320" width="200" height="40" style="fill:white;stroke:black;stroke-width:1"/>
    <text x="470" y="330" font-size="10" style="fill:blue">link</text>
    <path d="M440 40 C460 40 440 340 460 340" style="fill:transparent;stroke:black"/>
    <text x="470" y="340" font-size="8" style="fill:black">href: https://fonts.googleapis.com/css?family=Titillium+Web
    </text>
    <text x="470" y="350" font-size="8" style="fill:black">rel: stylesheet</text>
    <rect x="460" y="370" width="200" height="40" style="fill:white;stroke:black;stroke-width:1"/>
    <text x="470" y="380" font-size="10" style="fill:blue">link</text>
    <path d="M440 40 C460 40 440 390 460 390" style="fill:transparent;stroke:black"/>
    <text x="470" y="390" font-size="8" style="fill:black">rel: icon</text>
    <text x="470" y="400" font-size="8" style="fill:black">type: image/x-icon</text>
    <text x="470" y="410" font-size="8" style="fill:black">href:
        https://unioviedo-my.sharepoint.com/personal/uo239795_uniovi_es/_layouts/15/guestaccess.aspx?docid=1b184fdc380484a7bbdad079aa2a52135&amp;authkey=ATTjsDQ1WDwFg-XqhaEbSF4&amp;e=168190abc0264416a06fc92675ca41aa
    </text>
    <rect x="460" y="420" width="200" height="40" style="fill:white;stroke:black;stroke-width:1"/>
    <text x="470" y="430" font-size="10" style="fill:blue">link</text>
    <path d="M440 40 C460 40 440 440 460 440" style="fill:transparent;stroke:black"/>
    <text x="470" y="440" font-size="8" style="fill:black">rel: stylesheet</text>
    <text x="470" y="450" font-size="8" style="fill:black">type: text/css</text>
    <text x="470" y="460" font-size="8" style="fill:black">href: ../../style/navDesplegable.css</text>
    <rect x="460" y="470" width="200" height="40" style="fill:white;stroke:black;stroke-width:1"/>
    <text x="470" y="480" font-size="10" style="fill:blue">link</text>
    <path d="M440 40 C460 40 440 490 460 490" style="fill:transparent;stroke:black"/>
    <text x="470" y="490" font-size="8" style="fill:black">rel: stylesheet</text>
    <text x="470" y="500" font-size="8" style="fill:black">type: text/css</text>
    <text x="470" y="510" font-size="8" style="fill:black">href: ../../style/style.css</text>
    <rect x="460" y="520" width="200" height="40" style="fill:white;stroke:black;stroke-width:1"/>
    <text x="470" y="530" font-size="10" style="fill:blue">link</text>
    <path d="M440 40 C460 40 440 540 460 540" style="fill:transparent;stroke:black"/>
    <text x="470" y="540" font-size="8" style="fill:black">rel: stylesheet</text>
    <text x="470" y="550" font-size="8" style="fill:black">type: text/css</text>
    <text x="470" y="560" font-size="8" style="fill:black">href: ../../style/practica05.css</text>
    <rect x="240" y="620" width="200" height="40" style="fill:white;stroke:black;stroke-width:1"/>
    <text x="250" y="630" font-size="10" style="fill:blue">body</text>
    <path d="M220 40 C240 40 220 640 240 640" style="fill:transparent;stroke:black"/>
    <rect x="460" y="620" width="200" height="40" style="fill:white;stroke:black;stroke-width:1"/>
    <text x="470" y="630" font-size="10" style="fill:blue">header</text>
    <path d="M440 640 C460 640 440 640 460 640" style="fill:transparent;stroke:black"/>
    <rect x="680" y="620" width="200" height="40" style="fill:white;stroke:black;stroke-width:1"/>
    <text x="690" y="630" font-size="10" style="fill:blue">h1</text>
    <path d="M660 640 C680 640 660 640 680 640" style="fill:transparent;stroke:black"/>
    <rect x="746" y="620" width="137" height="40" style="fill:green;stroke:black;stroke-width:1"/>
    <text x="756" y="630" font-size="8" style="fill:white">Canción de hielo y fuego</text>
    <rect x="680" y="670" width="200" height="40" style="fill:white;stroke:black;stroke-width:1"/>
    <text x="690" y="680" font-size="10" style="fill:blue">nav</text>
    <path d="M660 640 C680 640 660 690 680 690" style="fill:transparent;stroke:black"/>
    <rect x="900" y="670" width="200" height="40" style="fill:white;stroke:black;stroke-width:1"/>
    <text x="910" y="680" font-size="10" style="fill:blue">ul</text>
    <path d="M880 690 C900 690 880 690 900 690" style="fill:transparent;stroke:black"/>
    <rect x="1120" y="670" width="200" height="40" style="fill:white;stroke:black;stroke-width:1"/>
    <text x="1130" y="680" font-size="10" style="fill:blue">li</text>
    <path d="M1100 690 C1120 690 1100 690 1120 690" style="fill:transparent;stroke:black"/>
    <rect x="1340" y="670" width="200" height="40" style="fill:white;stroke:black;stroke-width:1"/>
    <text x="1350" y="680" font-size="10" style="fill:blue">a</text>
    <path d="M1320 690 C1340 690 1320 690 1340 690" style="fill:transparent;stroke:black"/>
    <text x="1350" y="690" font-size="8" style="fill:black">href: ../../index.html</text>
    <rect x="1406" y="670" width="137" height="40" style="fill:green;stroke:black;stroke-width:1"/>
    <text x="1416" y="680" font-size="8" style="fill:white">Portada</text>
    <rect x="1120" y="770" width="200" height="40" style="fill:white;stroke:black;stroke-width:1"/>
    <text x="1130" y="780" font-size="10" style="fill:blue">li</text>
    <path d="M1100 690 C1120 690 1100 790 1120 790" style="fill:transparent;stroke:black"/>
    <rect x="1340" y="770" width="200" height="40" style="fill:white;stroke:black;stroke-width:1"/>
    <text x="1350" y="780" font-size="10" style="fill:blue">a</text>
    <path d="M1320 790 C1340 790 1320 790 1340 790" style="fill:transparent;stroke:black"/>
    <text x="1350" y="790" font-size="8" style="fill:black">href: ../../aficiones.html</text>
    <rect x="1406" y="770" width="137" height="40" style="fill:green;stroke:black;stroke-width:1"/>
    <text x="1416" y="780" font-size="8" style="fill:white">Aficiones</text>
    <rect x="1120" y="870" width="200" height="40" style="fill:white;stroke:black;stroke-width:1"/>
    <text x="1130" y="880" font-size="10" style="fill:blue">li</text>
    <path d="M1100 690 C1120 690 1100 890 1120 890" style="fill:transparent;stroke:black"/>
    <rect x="1340" y="870" width="200" height="40" style="fill:white;stroke:black;stroke-width:1"/>
    <text x="1350" y="880" font-size="10" style="fill:blue">a</text>
    <path d="M1320 890 C1340 890 1320 890 1340 890" style="fill:transparent;stroke:black"/>
    <text x="1350" y="890" font-size="8" style="fill:black">href: ../../sew.html</text>
    <rect x="1406" y="870" width="137" height="40" style="fill:green;stroke:black;stroke-width:1"/>
    <text x="1416" y="880" font-size="8" style="fill:white">SEW</text>
    <rect x="1340" y="920" width="200" height="40" style="fill:white;stroke:black;stroke-width:1"/>
    <text x="1350" y="930" font-size="10" style="fill:blue">ul</text>
    <path d="M1320 890 C1340 890 1320 940 1340 940" style="fill:transparent;stroke:black"/>
    <rect x="1560" y="920" width="200" height="40" style="fill:white;stroke:black;stroke-width:1"/>
    <text x="1570" y="930" font-size="10" style="fill:blue">li</text>
    <path d="M1540 940 C1560 940 1540 940 1560 940" style="fill:transparent;stroke:black"/>
    <rect x="1780" y="920" width="200" height="40" style="fill:white;stroke:black;stroke-width:1"/>
    <text x="1790" y="930" font-size="10" style="fill:blue">a</text>
    <path d="M1760 940 C1780 940 1760 940 1780 940" style="fill:transparent;stroke:black"/>
    <text x="1790" y="940" font-size="8" style="fill:black">href: ../../SEW/p0/index.html</text>
    <rect x="1846" y="920" width="137" height="40" style="fill:green;stroke:black;stroke-width:1"/>
    <text x="1856" y="930" font-size="8" style="fill:white">Práctica 00</text>
    <rect x="1560" y="1020" width="200" height="40" style="fill:white;stroke:black;stroke-width:1"/>
    <text x="1570" y="1030" font-size="10" style="fill:blue">li</text>
    <path d="M1540 940 C1560 940 1540 1040 1560 1040" style="fill:transparent;stroke:black"/>
    <rect x="1780" y="1020" width="200" height="40" style="fill:white;stroke:black;stroke-width:1"/>
    <text x="1790" y="1030" font-size="10" style="fill:blue">a</text>
    <path d="M1760 1040 C1780 1040 1760 1040 1780 1040" style="fill:transparent;stroke:black"/>
    <text x="1790" y="1040" font-size="8" style="fill:black">href: ../../SEW/p1/p1.html</text>
    <rect x="1846" y="1020" width="137" height="40" style="fill:green;stroke:black;stroke-width:1"/>
    <text x="1856" y="1030" font-size="8" style="fill:white">Práctica 01</text>
    <rect x="1560" y="1120" width="200" height="40" style="fill:white;stroke:black;stroke-width:1"/>
    <text x="1570" y="1130" font-size="10" style="fill:blue">li</text>
    <path d="M1540 940 C1560 940 1540 1140 1560 1140" style="fill:transparent;stroke:black"/>
    <rect x="1780" y="1120" width="200" height="40" style="fill:white;stroke:black;stroke-width:1"/>
    <text x="1790" y="1130" font-size="10" style="fill:blue">a</text>
    <path d="M1760 1140 C1780 1140 1760 1140 1780 1140" style="fill:transparent;stroke:black"/>
    <text x="1790" y="1140" font-size="8" style="fill:black">href: ../../SEW/p3/p3.html</text>
    <rect x="1846" y="1120" width="137" height="40" style="fill:green;stroke:black;stroke-width:1"/>
    <text x="1856" y="1130" font-size="8" style="fill:white">Práctica 03</text>
    <rect x="1780" y="1170" width="200" height="40" style="fill:white;stroke:black;stroke-width:1"/>
    <text x="1790" y="1180" font-size="10" style="fill:blue">ul</text>
    <path d="M1760 1140 C1780 1140 1760 1190 1780 1190" style="fill:transparent;stroke:black"/>
    <rect x="2000" y="1170" width="200" height="40" style="fill:white;stroke:black;stroke-width:1"/>
    <text x="2010" y="1180" font-size="10" style="fill:blue">li</text>
    <path d="M1980 1190 C2000 1190 1980 1190 2000 1190" style="fill:transparent;stroke:black"/>
    <rect x="2220" y="1170" width="200" height="40" style="fill:white;stroke:black;stroke-width:1"/>
    <text x="2230" y="1180" font-size="10" style="fill:blue">a</text>
    <path d="M2200 1190 C2220 1190 2200 1190 2220 1190" style="fill:transparent;stroke:black"/>
    <text x="2230" y="1190" font-size="8" style="fill:black">href: ../../SEW/p3/p3_1_introduccion.html</text>
    <rect x="2286" y="1170" width="137" height="40" style="fill:green;stroke:black;stroke-width:1"/>
    <text x="2296" y="1180" font-size="8" style="fill:white">Introducción</text>
    <rect x="2000" y="1270" width="200" height="40" style="fill:white;stroke:black;stroke-width:1"/>
    <text x="2010" y="1280" font-size="10" style="fill:blue">li</text>
    <path d="M1980 1190 C2000 1190 1980 1290 2000 1290" style="fill:transparent;stroke:black"/>
    <rect x="2220" y="1270" width="200" height="40" style="fill:white;stroke:black;stroke-width:1"/>
    <text x="2230" y="1280" font-size="10" style="fill:blue">a</text>
    <path d="M2200 1290 C2220 1290 2200 1290 2220 1290" style="fill:transparent;stroke:black"/>
    <text x="2230" y="1290" font-size="8" style="fill:black">href: ../../SEW/p3/p3_2_libros.html</text>
    <rect x="2286" y="1270" width="137" height="40" style="fill:green;stroke:black;stroke-width:1"/>
    <text x="2296" y="1280" font-size="8" style="fill:white">Libros</text>
    <rect x="2000" y="1370" width="200" height="40" style="fill:white;stroke:black;stroke-width:1"/>
    <text x="2010" y="1380" font-size="10" style="fill:blue">li</text>
    <path d="M1980 1190 C2000 1190 1980 1390 2000 1390" style="fill:transparent;stroke:black"/>
    <rect x="2220" y="1370" width="200" height="40" style="fill:white;stroke:black;stroke-width:1"/>
    <text x="2230" y="1380" font-size="10" style="fill:blue">a</text>
    <path d="M2200 1390 C2220 1390 2200 1390 2220 1390" style="fill:transparent;stroke:black"/>
    <text x="2230" y="1390" font-size="8" style="fill:black">href: ../../SEW/p3/p3_3_resumen.html</text>
    <rect x="2286" y="1370" width="137" height="40" style="fill:green;stroke:black;stroke-width:1"/>
    <text x="2296" y="1380" font-size="8" style="fill:white">Resumen</text>
    <rect x="2000" y="1470" width="200" height="40" style="fill:white;stroke:black;stroke-width:1"/>
    <text x="2010" y="1480" font-size="10" style="fill:blue">li</text>
    <path d="M1980 1190 C2000 1190 1980 1490 2000 1490" style="fill:transparent;stroke:black"/>
    <rect x="2220" y="1470" width="200" height="40" style="fill:white;stroke:black;stroke-width:1"/>
    <text x="2230" y="1480" font-size="10" style="fill:blue">a</text>
    <path d="M2200 1490 C2220 1490 2200 1490 2220 1490" style="fill:transparent;stroke:black"/>
    <text x="2230" y="1490" font-size="8" style="fill:black">href: ../../SEW/p3/p3_4_personajes.html</text>
    <rect x="2286" y="1470" width="137" height="40" style="fill:green;stroke:black;stroke-width:1"/>
    <text x="2296" y="1480" font-size="8" style="fill:white">Personajes</text>
    <rect x="2000" y="1570" width="200" height="40" style="fill:white;stroke:black;stroke-width:1"/>
    <text x="2010" y="1580" font-size="10" style="fill:blue">li</text>
    <path d="M1980 1190 C2000 1190 1980 1590 2000 1590" style="fill:transparent;stroke:black"/>
    <rect x="2220" y="1570" width="200" height="40" style="fill:white;stroke:black;stroke-width:1"/>
    <text x="2230" y="1580" font-size="10" style="fill:blue">a</text>
    <path d="M2200 1590 C2220 1590 2200 1590 2220 1590" style="fill:transparent;stroke:black"/>
    <text x="2230" y="1590" font-size="8" style="fill:black">href: ../../SEW/p3/p3_5_fuentes.html</text>
    <rect x="2286" y="1570" width="137" height="40" style="fill:green;stroke:black;stroke-width:1"/>
    <text x="2296" y="1580" font-size="8" style="fill:white">Fuentes</text>
    <rect x="2000" y="1670" width="200" height="40" style="fill:white;stroke:black;stroke-width:1"/>
    <text x="2010" y="1680" font-size="10" style="fill:blue">li</text>
    <path d="M1980 1190 C2000 1190 1980 1690 2000 1690" style="fill:transparent;stroke:black"/>
    <rect x="2220" y="1670" width="200" height="40" style="fill:white;stroke:black;stroke-width:1"/>
    <text x="2230" y="1680" font-size="10" style="fill:blue">a</text>
    <path d="M2200 1690 C2220 1690 2200 1690 2220 1690" style="fill:transparent;stroke:black"/>
    <text x="2230" y="1690" font-size="8" style="fill:black">href: ../../SEW/p3/p3_6_adaptaciones.html</text>
    <rect x="2286" y="1670" width="137" height="40" style="fill:green;stroke:black;stroke-width:1"/>
    <text x="2296" y="1680" font-size="8" style="fill:white">Adaptaciones</text>
    <rect x="2000" y="1770" width="200" height="40" style="fill:white;stroke:black;stroke-width:1"/>
    <text x="2010" y="1780" font-size="10" style="fill:blue">li</text>
    <path d="M1980 1190 C2000 1190 1980 1790 2000 1790" style="fill:transparent;stroke:black"/>
    <rect x="2220" y="1770" width="200" height="40" style="fill:white;stroke:black;stroke-width:1"/>
    <text x="2230" y="1780" font-size="10" style="fill:blue">a</text>
    <path d="M2200 1790 C2220 1790 2200 1790 2220 1790" style="fill:transparent;stroke:black"/>
    <text x="2230" y="1790" font-size="8" style="fill:black">href: ../../SEW/p3/p3_7_mas.html</text>
    <rect x="2286" y="1770" width="137" height="40" style="fill:green;stroke:black;stroke-width:1"/>
    <text x="2296" y="1780" font-size="8" style="fill:white">Más información</text>
    <rect x="1560" y="1970" width="200" height="40" style="fill:white;stroke:black;stroke-width:1"/>
    <text x="1570" y="1980" font-size="10" style="fill:blue">li</text>
    <path d="M1540 940 C1560 940 1540 1990 1560 1990" style="fill:transparent;stroke:black"/>
    <rect x="1780" y="1970" width="200" height="40" style="fill:white;stroke:black;stroke-width:1"/>
    <text x="1790" y="1980" font-size="10" style="fill:blue">a</text>
    <path d="M1760 1990 C1780 1990 1760 1990 1780 1990" style="fill:transparent;stroke:black"/>
    <text x="1790" y="1990" font-size="8" style="fill:black">href: ../../SEW/p5/p5.html</text>
    <rect x="1846" y="1970" width="137" height="40" style="fill:green;stroke:black;stroke-width:1"/>
    <text x="1856" y="1980" font-size="8" style="fill:white">Práctica 05</text>
    <rect x="1780" y="2020" width="200" height="40" style="fill:white;stroke:black;stroke-width:1"/>
    <text x="1790" y="2030" font-size="10" style="fill:blue">ul</text>
    <path d="M1760 1990 C1780 1990 1760 2040 1780 2040" style="fill:transparent;stroke:black"/>
    <rect x="2000" y="2020" width="200" height="40" style="fill:white;stroke:black;stroke-width:1"/>
    <text x="2010" y="2030" font-size="10" style="fill:blue">li</text>
    <path d="M1980 2040 C2000 2040 1980 2040 2000 2040" style="fill:transparent;stroke:black"/>
    <rect x="2220" y="2020" width="200" height="40" style="fill:white;stroke:black;stroke-width:1"/>
    <text x="2230" y="2030" font-size="10" style="fill:blue">a</text>
    <path d="M2200 2040 C2220 2040 2200 2040 2220 2040" style="fill:transparent;stroke:black"/>
    <text x="2230" y="2040" font-size="8" style="fill:black">href: ../../SEW/p5/p5_1_introduccion.html</text>
    <rect x="2286" y="2020" width="137" height="40" style="fill:green;stroke:black;stroke-width:1"/>
    <text x="2296" y="2030" font-size="8" style="fill:white">Introducción</text>
    <rect x="2000" y="2120" width="200" height="40" style="fill:white;stroke:black;stroke-width:1"/>
    <text x="2010" y="2130" font-size="10" style="fill:blue">li</text>
    <path d="M1980 2040 C2000 2040 1980 2140 2000 2140" style="fill:transparent;stroke:black"/>
    <rect x="2220" y="2120" width="200" height="40" style="fill:white;stroke:black;stroke-width:1"/>
    <text x="2230" y="2130" font-size="10" style="fill:blue">a</text>
    <path d="M2200 2140 C2220 2140 2200 2140 2220 2140" style="fill:transparent;stroke:black"/>
    <text x="2230" y="2140" font-size="8" style="fill:black">href: ../../SEW/p5/p5_2_libros.html</text>
    <rect x="2286" y="2120" width="137" height="40" style="fill:green;stroke:black;stroke-width:1"/>
    <text x="2296" y="2130" font-size="8" style="fill:white">Libros</text>
    <rect x="2000" y="2220" width="200" height="40" style="fill:white;stroke:black;stroke-width:1"/>
    <text x="2010" y="2230" font-size="10" style="fill:blue">li</text>
    <path d="M1980 2040 C2000 2040 1980 2240 2000 2240" style="fill:transparent;stroke:black"/>
    <rect x="2220" y="2220" width="200" height="40" style="fill:white;stroke:black;stroke-width:1"/>
    <text x="2230" y="2230" font-size="10" style="fill:blue">a</text>
    <path d="M2200 2240 C2220 2240 2200 2240 2220 2240" style="fill:transparent;stroke:black"/>
    <text x="2230" y="2240" font-size="8" style="fill:black">href: ../../SEW/p5/p5_3_resumen.html</text>
    <rect x="2286" y="2220" width="137" height="40" style="fill:green;stroke:black;stroke-width:1"/>
    <text x="2296" y="2230" font-size="8" style="fill:white">Resumen</text>
    <rect x="2000" y="2320" width="200" height="40" style="fill:white;stroke:black;stroke-width:1"/>
    <text x="2010" y="2330" font-size="10" style="fill:blue">li</text>
    <path d="M1980 2040 C2000 2040 1980 2340 2000 2340" style="fill:transparent;stroke:black"/>
    <rect x="2220" y="2320" width="200" height="40" style="fill:white;stroke:black;stroke-width:1"/>
    <text x="2230" y="2330" font-size="10" style="fill:blue">a</text>
    <path d="M2200 2340 C2220 2340 2200 2340 2220 2340" style="fill:transparent;stroke:black"/>
    <text x="2230" y="2340" font-size="8" style="fill:black">href: ../../SEW/p5/p5_4_personajes.html</text>
    <rect x="2286" y="2320" width="137" height="40" style="fill:green;stroke:black;stroke-width:1"/>
    <text x="2296" y="2330" font-size="8" style="fill:white">Personajes</text>
    <rect x="2000" y="2420" width="200" height="40" style="fill:white;stroke:black;stroke-width:1"/>
    <text x="2010" y="2430" font-size="10" style="fill:blue">li</text>
    <path d="M1980 2040 C2000 2040 1980 2440 2000 2440" style="fill:transparent;stroke:black"/>
    <rect x="2220" y="2420" width="200" height="40" style="fill:white;stroke:black;stroke-width:1"/>
    <text x="2230" y="2430" font-size="10" style="fill:blue">a</text>
    <path d="M2200 2440 C2220 2440 2200 2440 2220 2440" style="fill:transparent;stroke:black"/>
    <text x="2230" y="2440" font-size="8" style="fill:black">href: ../../SEW/p5/p5_5_fuentes.html</text>
    <rect x="2286" y="2420" width="137" height="40" style="fill:green;stroke:black;stroke-width:1"/>
    <text x="2296" y="2430" font-size="8" style="fill:white">Fuentes</text>
    <rect x="2000" y="2520" width="200" height="40" style="fill:white;stroke:black;stroke-width:1"/>
    <text x="2010" y="2530" font-size="10" style="fill:blue">li</text>
    <path d="M1980 2040 C2000 2040 1980 2540 2000 2540" style="fill:transparent;stroke:black"/>
    <rect x="2220" y="2520" width="200" height="40" style="fill:white;stroke:black;stroke-width:1"/>
    <text x="2230" y="2530" font-size="10" style="fill:blue">a</text>
    <path d="M2200 2540 C2220 2540 2200 2540 2220 2540" style="fill:transparent;stroke:black"/>
    <text x="2230" y="2540" font-size="8" style="fill:black">href: ../../SEW/p5/p5_6_adaptaciones.html</text>
    <rect x="2286" y="2520" width="137" height="40" style="fill:green;stroke:black;stroke-width:1"/>
    <text x="2296" y="2530" font-size="8" style="fill:white">Adaptaciones</text>
    <rect x="2000" y="2620" width="200" height="40" style="fill:white;stroke:black;stroke-width:1"/>
    <text x="2010" y="2630" font-size="10" style="fill:blue">li</text>
    <path d="M1980 2040 C2000 2040 1980 2640 2000 2640" style="fill:transparent;stroke:black"/>
    <rect x="2220" y="2620" width="200" height="40" style="fill:white;stroke:black;stroke-width:1"/>
    <text x="2230" y="2630" font-size="10" style="fill:blue">a</text>
    <path d="M2200 2640 C2220 2640 2200 2640 2220 2640" style="fill:transparent;stroke:black"/>
    <text x="2230" y="2640" font-size="8" style="fill:black">href: ../../SEW/p5/p5_7_mas.html</text>
    <rect x="2286" y="2620" width="137" height="40" style="fill:green;stroke:black;stroke-width:1"/>
    <text x="2296" y="2630" font-size="8" style="fill:white">Más información</text>
    <rect x="460" y="3070" width="200" height="40" style="fill:white;stroke:black;stroke-width:1"/>
    <text x="470" y="3080" font-size="10" style="fill:blue">main</text>
    <path d="M440 640 C460 640 440 3090 460 3090" style="fill:transparent;stroke:black"/>
    <rect x="680" y="3070" width="200" height="40" style="fill:white;stroke:black;stroke-width:1"/>
    <text x="690" y="3080" font-size="10" style="fill:blue">h2</text>
    <path d="M660 3090 C680 3090 660 3090 680 3090" style="fill:transparent;stroke:black"/>
    <rect x="746" y="3070" width="137" height="40" style="fill:green;stroke:black;stroke-width:1"/>
    <text x="756" y="3080" font-size="8" style="fill:white">Fuentes literarias e históricas</text>
    <rect x="680" y="3120" width="200" height="40" style="fill:white;stroke:black;stroke-width:1"/>
    <text x="690" y="3130" font-size="10" style="fill:blue">p</text>
    <path d="M660 3090 C680 3090 660 3140 680 3140" style="fill:transparent;stroke:black"/>
    <rect x="746" y="3120" width="137" height="40" style="fill:green;stroke:black;stroke-width:1"/>
    <text x="756" y="3130" font-size="8" style="fill:white">
        Se han observado numerosos paralelismos entre los eventos y personajes de Canción de hielo y fuego y los sucesos
        y personas implicados en la Guerra de las Rosas que enfrentó durante la Edad Media a dos casas nobles de
        Inglaterra. Dos de las familias principales en Canción de hielo y fuego, los Stark y los Lannister, podrían
        verse como representantes de la Casa de York y a la Casa de Lancaster, respectivamente.
    </text>
    <rect x="680" y="3170" width="200" height="40" style="fill:white;stroke:black;stroke-width:1"/>
    <text x="690" y="3180" font-size="10" style="fill:blue">p</text>
    <path d="M660 3090 C680 3090 660 3190 680 3190" style="fill:transparent;stroke:black"/>
    <rect x="746" y="3170" width="137" height="40" style="fill:green;stroke:black;stroke-width:1"/>
    <text x="756" y="3180" font-size="8" style="fill:white">
        Un conflicto similar inspirado por la realidad es la pelea por la sucesión llamada la Danza de los Dragones, que
        enfrenta a dos hermanos por la sucesión del trono: Aegon II y Rhaenyra. El conflicto histórico que provee la
        inspiración es la lucha entre la emperatriz Matilde de Inglaterra, hija de Enrique I de Inglaterra, y su primo
        Esteban de Blois. La hija (Matilde / Rhaenyra) es designada la sucesora de su padre, pero debido a diferentes
        razones, el varón rival se apodera de la corona y es proclamado como rey. Durante la lucha dinástica, la
        heredera original es derrocada y sucedida por su hijo (Aegon III / Enrique II de Inglaterra). Ni la emperatriz
        Matilde ni Rhaenyra llegaron a gobernar.
    </text>
    <rect x="680" y="3220" width="200" height="40" style="fill:white;stroke:black;stroke-width:1"/>
    <text x="690" y="3230" font-size="10" style="fill:blue">p</text>
    <path d="M660 3090 C680 3090 660 3240 680 3240" style="fill:transparent;stroke:black"/>
    <rect x="746" y="3220" width="137" height="40" style="fill:green;stroke:black;stroke-width:1"/>
    <text x="756" y="3230" font-size="8" style="fill:white">
        Martin es un ávido estudioso de la Europa medieval y ha dicho que la Guerra de las Rosas, junto con muchos otros
        eventos en Europa durante la Edad Media (como la cruzada albigense), han inspirado la saga. Sin embargo, insiste
        en que no hay una correspondencia exacta.
    </text>
    <rect x="680" y="3270" width="200" height="40" style="fill:white;stroke:black;stroke-width:1"/>
    <text x="690" y="3280" font-size="10" style="fill:blue">p</text>
    <path d="M660 3090 C680 3090 660 3290 680 3290" style="fill:transparent;stroke:black"/>
    <rect x="746" y="3270" width="137" height="40" style="fill:green;stroke:black;stroke-width:1"/>
    <text x="756" y="3280" font-size="8" style="fill:white">
        Cabría citar también, a modo de guiño histórico, la similitud de ciertos aspectos geográficos de la saga con
        algunos de la realidad de la historia medieval y pre-medieval europea, como lo es la semejanza entre el Muro de
        la novela de Martin, cuyo cometido principal es el de defender los siete Reinos de Poniente de posibles ataques
        por parte de los Otros y de los Salvajes del Norte, y el famoso Muro de Adriano, que pretendía defender la zona
        britana del Imperio romano de las incursiones de los pictos y escotos del norte de la isla. Así mismo, el mapa
        físico del continente de Poniente es bastante parecido (en cuanto a la forma, que no a las dimensiones y
        distribución o existencia de accidentes geográficos) al de las Islas Británicas. También se ven paralelismos en
        la ciudad libre de Braavos, con un Titán a imagen del Coloso de Rodas. También tiene otros paralelismos, al
        estar formada por pequeñas islas en una laguna y con una sociedad muy parecida a la Venecia medieval.
    </text>
    <rect x="680" y="3320" width="200" height="40" style="fill:white;stroke:black;stroke-width:1"/>
    <text x="690" y="3330" font-size="10" style="fill:blue">p</text>
    <path d="M660 3090 C680 3090 660 3340 680 3340" style="fill:transparent;stroke:black"/>
    <rect x="746" y="3320" width="137" height="40" style="fill:green;stroke:black;stroke-width:1"/>
    <text x="756" y="3330" font-size="8" style="fill:white">
        El asedio a Desembarco del Rey y su resolución tienen también un claro paralelismo con los intentos de conquista
        sucesivos que sufrió Constantinopla, de los siglos XII al XV.
    </text>
    <rect x="680" y="3370" width="200" height="40" style="fill:white;stroke:black;stroke-width:1"/>
    <text x="690" y="3380" font-size="10" style="fill:blue">p</text>
    <path d="M660 3090 C680 3090 660 3390 680 3390" style="fill:transparent;stroke:black"/>
    <rect x="746" y="3370" width="137" height="40" style="fill:green;stroke:black;stroke-width:1"/>
    <text x="756" y="3380" font-size="8" style="fill:white">
        Aunque no ha sido confirmado por Martin, es posible que las circunstancias del conflicto de Robb con los Frey
        (como resultado de la rotura de su compromiso de matrimonio con una Frey) estén inspirados en la obra Enrique IV
        de Shakespeare. En la obra de teatro, el nuevo rey de Inglaterra Eduardo IV de Inglaterra prefiere casarse con
        Lady Grey después de que hubiera mandado a su aliado Ricardo Neville, conde de Warwick, a pedir la mano de la
        hija del rey de Francia. Cuando las noticias de la boda de Enrique IV llegan a la corte francesa, el enfurecido
        Rey de Francia y el conde de Warwick se vuelven contra Eduardo, y unen sus fuerzas a las de sus enemigos, la
        casa de Lancaster.
    </text>
    <rect x="680" y="3420" width="200" height="40" style="fill:white;stroke:black;stroke-width:1"/>
    <text x="690" y="3430" font-size="10" style="fill:blue">p</text>
    <path d="M660 3090 C680 3090 660 3440 680 3440" style="fill:transparent;stroke:black"/>
    <rect x="746" y="3420" width="137" height="40" style="fill:green;stroke:black;stroke-width:1"/>
    <text x="756" y="3430" font-size="8" style="fill:white">
        Igualmente, el personaje de Tyrion Lannister parece inspirado en Claudio, el emperador romano. El primero es un
        hombre deforme del que la gente se burla llamándole "Gnomo", "Enano" o "Mediohombre", pero a lo largo de la
        novela se reivindica como un astuto estratega de aguda inteligencia. El segundo, Claudio, permaneció apartado
        del poder por sus deficiencias físicas (cojera y tartamudez) aunque finalmente llegó al trono imperial donde
        demostró ser un administrador capaz y un gran promotor de obras públicas. Durante su reinado, el imperio
        atravesó su periodo de mayor expansión tras la época de Augusto.
    </text>
    <rect x="680" y="3470" width="200" height="40" style="fill:white;stroke:black;stroke-width:1"/>
    <text x="690" y="3480" font-size="10" style="fill:blue">p</text>
    <path d="M660 3090 C680 3090 660 3490 680 3490" style="fill:transparent;stroke:black"/>
    <rect x="746" y="3470" width="137" height="40" style="fill:green;stroke:black;stroke-width:1"/>
    <text x="756" y="3480" font-size="8" style="fill:white">
        La relación que hubo entre Tywin Lannister y su padre Tytos Lannister es muy similar a la relación que hubo
        entre el rey de Inglaterra Enrique III de Inglaterra y su hijo Eduardo I de Inglaterra. Enrique era un hombre
        débil que prefería las artes a la guerra y que no garantizó demasiada gloria a su reino, mientras que su hijo
        Eduardo era más fuerte y se convirtió en un gran rey que conquistó Gales e impidió a los nobles tomar el poder.
        En las novelas Tytos era un hombre débil que trajo la ruina a la casa Lannister mientras que su hijo Tywin la
        llevó a la gloria y la convirtió en la casa más poderosa de Poniente. También cabe destacar la similitud entre
        Valyria y Roma, en cuanto a historia y características, y entre los idiomas latín y valyrio, que si bien no son
        parecidos cumplen la misma función históricamente y en la serie.
    </text>
    <rect x="460" y="3570" width="200" height="40" style="fill:white;stroke:black;stroke-width:1"/>
    <text x="470" y="3580" font-size="10" style="fill:blue">footer</text>
    <path d="M440 640 C460 640 440 3590 460 3590" style="fill:transparent;stroke:black"/>
    <rect x="680" y="3570" width="200" height="40" style="fill:white;stroke:black;stroke-width:1"/>
    <text x="690" y="3580" font-size="10" style="fill:blue">address</text>
    <path d="M660 3590 C680 3590 660 3590 680 3590" style="fill:transparent;stroke:black"/>
    <rect x="900" y="3570" width="200" height="40" style="fill:white;stroke:black;stroke-width:1"/>
    <text x="910" y="3580" font-size="10" style="fill:blue">p</text>
    <path d="M880 3590 C900 3590 880 3590 900 3590" style="fill:transparent;stroke:black"/>
    <rect x="966" y="3570" width="137" height="40" style="fill:green;stroke:black;stroke-width:1"/>
    <text x="976" y="3580" font-size="8" style="fill:white">Autor: Iván González Mahagamage</text>
    <rect x="900" y="3620" width="200" height="40" style="fill:white;stroke:black;stroke-width:1"/>
    <text x="910" y="3630" font-size="10" style="fill:blue">p</text>
    <path d="M880 3590 C900 3590 880 3640 900 3640" style="fill:transparent;stroke:black"/>
    <rect x="966" y="3620" width="137" height="40" style="fill:green;stroke:black;stroke-width:1"/>
    <text x="976" y="3630" font-size="8" style="fill:white">Contacto:</text>
    <rect x="1120" y="3620" width="200" height="40" style="fill:white;stroke:black;stroke-width:1"/>
    <text x="1130" y="3630" font-size="10" style="fill:blue">a</text>
    <path d="M1100 3640 C1120 3640 1100 3640 1120 3640" style="fill:transparent;stroke:black"/>
    <text x="1130" y="3640" font-size="8" style="fill:black">href: mailto:uo239795@uniovi.es</text>
    <rect x="1186" y="3620" width="137" height="40" style="fill:green;stroke:black;stroke-width:1"/>
    <text x="1196" y="3630" font-size="8" style="fill:white">uo239795@uniovi.es</text>
    <rect x="680" y="3770" width="200" height="40" style="fill:white;stroke:black;stroke-width:1"/>
    <text x="690" y="3780" font-size="10" style="fill:blue">p</text>
    <path d="M660 3590 C680 3590 660 3790 680 3790" style="fill:transparent;stroke:black"/>
    <rect x="900" y="3770" width="200" height="40" style="fill:white;stroke:black;stroke-width:1"/>
    <text x="910" y="3780" font-size="10" style="fill:blue">a</text>
    <path d="M880 3790 C900 3790 880 3790 900 3790" style="fill:transparent;stroke:black"/>
    <text x="910" y="3790" font-size="8" style="fill:black">href: https://validator.w3.org/check?uri=referer</text>
    <rect x="1120" y="3770" width="200" height="40" style="fill:white;stroke:black;stroke-width:1"/>
    <text x="1130" y="3780" font-size="10" style="fill:blue">img</text>
    <path d="M1100 3790 C1120 3790 1100 3790 1120 3790" style="fill:transparent;stroke:black"/>
    <text x="1130" y="3790" font-size="8" style="fill:black">src:
        https://unioviedo-my.sharepoint.com/personal/uo239795_uniovi_es/_layouts/15/guestaccess.aspx?docid=1dc29309c5f484ddbb0d9db5b1c80c434&amp;authkey=ARFq9i5Nm2QpUmJj55IcDgQ&amp;e=705a58700abd4191a586e91989da4a0e
    </text>
    <text x="1130" y="3800" font-size="8" style="fill:black">alt: HTML5 Válido</text>
    <text x="1130" y="3810" font-size="8" style="fill:black">longdesc: https://validator.w3.org/check?uri=referer</text>
    <rect x="900" y="3870" width="200" height="40" style="fill:white;stroke:black;stroke-width:1"/>
    <text x="910" y="3880" font-size="10" style="fill:blue">a</text>
    <path d="M880 3790 C900 3790 880 3890 900 3890" style="fill:transparent;stroke:black"/>
    <text x="910" y="3890" font-size="8" style="fill:black">href: http://jigsaw.w3.org/css-validator/check/referer
    </text>
    <rect x="1120" y="3870" width="200" height="40" style="fill:white;stroke:black;stroke-width:1"/>
    <text x="1130" y="3880" font-size="10" style="fill:blue">img</text>
    <path d="M1100 3890 C1120 3890 1100 3890 1120 3890" style="fill:transparent;stroke:black"/>
    <text x="1130" y="3890" font-size="8" style="fill:black">src:
        https://unioviedo-my.sharepoint.com/personal/uo239795_uniovi_es/_layouts/15/guestaccess.aspx?docid=190f4b784428a40a2b969ae7f977a3d85&amp;authkey=AegPExwjY0qZ80NLtEpPmYo&amp;amp;e=41cf2c002341476e8abb088bc7c0a15b
    </text>
    <text x="1130" y="3900" font-size="8" style="fill:black">alt: ¡CSS Válido!</text>
</svg>