<?xml version="1.0" encoding="utf-8"?>
<svg width="auto" height="4220" style="overflow:visible " version="1.1" xmlns="http://www.w3.org/2000/svg">
    <rect x="20" y="20" width="200" height="40" style="fill:white;stroke:black;stroke-width:1"/>
    <text x="30" y="30" font-size="10" style="fill:blue">html</text>
    <text x="30" y="40" font-size="8" style="fill:black">lang: es</text>
    <rect x="240" y="20" width="200" height="40" style="fill:white;stroke:black;stroke-width:1"/>
    <text x="250" y="30" font-size="10" style="fill:blue">head</text>
    <path d="M220 40 C240 40 220 40 240 40" style="fill:transparent;stroke:black"/>
    <rect x="460" y="20" width="200" height="40" style="fill:white;stroke:black;stroke-width:1"/>
    <text x="470" y="30" font-size="10" style="fill:blue">meta</text>
    <path d="M440 40 C460 40 440 40 460 40" style="fill:transparent;stroke:black"/>
    <text x="470" y="40" font-size="8" style="fill:black">charset: utf-8</text>
    <rect x="460" y="70" width="200" height="40" style="fill:white;stroke:black;stroke-width:1"/>
    <text x="470" y="80" font-size="10" style="fill:blue">meta</text>
    <path d="M440 40 C460 40 440 90 460 90" style="fill:transparent;stroke:black"/>
    <text x="470" y="90" font-size="8" style="fill:black">name: author</text>
    <text x="470" y="100" font-size="8" style="fill:black">content: Iván González Mahagamage</text>
    <rect x="460" y="120" width="200" height="40" style="fill:white;stroke:black;stroke-width:1"/>
    <text x="470" y="130" font-size="10" style="fill:blue">meta</text>
    <path d="M440 40 C460 40 440 140 460 140" style="fill:transparent;stroke:black"/>
    <text x="470" y="140" font-size="8" style="fill:black">name: description</text>
    <text x="470" y="150" font-size="8" style="fill:black">content: Práctica 03 de la asignatura Software y Estándares
        para la Web
    </text>
    <rect x="460" y="170" width="200" height="40" style="fill:white;stroke:black;stroke-width:1"/>
    <text x="470" y="180" font-size="10" style="fill:blue">meta</text>
    <path d="M440 40 C460 40 440 190 460 190" style="fill:transparent;stroke:black"/>
    <text x="470" y="190" font-size="8" style="fill:black">name: keywords</text>
    <text x="470" y="200" font-size="8" style="fill:black">content:
        Práctica,03,HTML,HTML5,introduccion,Software,Estándares,Web
    </text>
    <rect x="460" y="220" width="200" height="40" style="fill:white;stroke:black;stroke-width:1"/>
    <text x="470" y="230" font-size="10" style="fill:blue">title</text>
    <path d="M440 40 C460 40 440 240 460 240" style="fill:transparent;stroke:black"/>
    <rect x="526" y="220" width="137" height="40" style="fill:green;stroke:black;stroke-width:1"/>
    <text x="536" y="230" font-size="8" style="fill:white">Práctica 03 | Software y Estándares para la Web</text>
    <rect x="460" y="270" width="200" height="40" style="fill:white;stroke:black;stroke-width:1"/>
    <text x="470" y="280" font-size="10" style="fill:blue">link</text>
    <path d="M440 40 C460 40 440 290 460 290" style="fill:transparent;stroke:black"/>
    <text x="470" y="290" font-size="8" style="fill:black">href: https://fonts.googleapis.com/css?family=Ubuntu</text>
    <text x="470" y="300" font-size="8" style="fill:black">rel: stylesheet</text>
    <rect x="460" y="320" width="200" height="40" style="fill:white;stroke:black;stroke-width:1"/>
    <text x="470" y="330" font-size="10" style="fill:blue">link</text>
    <path d="M440 40 C460 40 440 340 460 340" style="fill:transparent;stroke:black"/>
    <text x="470" y="340" font-size="8" style="fill:black">href: https://fonts.googleapis.com/css?family=Titillium+Web
    </text>
    <text x="470" y="350" font-size="8" style="fill:black">rel: stylesheet</text>
    <rect x="460" y="370" width="200" height="40" style="fill:white;stroke:black;stroke-width:1"/>
    <text x="470" y="380" font-size="10" style="fill:blue">link</text>
    <path d="M440 40 C460 40 440 390 460 390" style="fill:transparent;stroke:black"/>
    <text x="470" y="390" font-size="8" style="fill:black">rel: icon</text>
    <text x="470" y="400" font-size="8" style="fill:black">type: image/x-icon</text>
    <text x="470" y="410" font-size="8" style="fill:black">href:
        https://unioviedo-my.sharepoint.com/personal/uo239795_uniovi_es/_layouts/15/guestaccess.aspx?docid=1b184fdc380484a7bbdad079aa2a52135&amp;authkey=ATTjsDQ1WDwFg-XqhaEbSF4&amp;e=168190abc0264416a06fc92675ca41aa
    </text>
    <rect x="460" y="420" width="200" height="40" style="fill:white;stroke:black;stroke-width:1"/>
    <text x="470" y="430" font-size="10" style="fill:blue">link</text>
    <path d="M440 40 C460 40 440 440 460 440" style="fill:transparent;stroke:black"/>
    <text x="470" y="440" font-size="8" style="fill:black">rel: stylesheet</text>
    <text x="470" y="450" font-size="8" style="fill:black">type: text/css</text>
    <text x="470" y="460" font-size="8" style="fill:black">href: ../../style/navDesplegable.css</text>
    <rect x="460" y="470" width="200" height="40" style="fill:white;stroke:black;stroke-width:1"/>
    <text x="470" y="480" font-size="10" style="fill:blue">link</text>
    <path d="M440 40 C460 40 440 490 460 490" style="fill:transparent;stroke:black"/>
    <text x="470" y="490" font-size="8" style="fill:black">rel: stylesheet</text>
    <text x="470" y="500" font-size="8" style="fill:black">type: text/css</text>
    <text x="470" y="510" font-size="8" style="fill:black">href: ../../style/style.css</text>
    <rect x="240" y="570" width="200" height="40" style="fill:white;stroke:black;stroke-width:1"/>
    <text x="250" y="580" font-size="10" style="fill:blue">body</text>
    <path d="M220 40 C240 40 220 590 240 590" style="fill:transparent;stroke:black"/>
    <rect x="460" y="570" width="200" height="40" style="fill:white;stroke:black;stroke-width:1"/>
    <text x="470" y="580" font-size="10" style="fill:blue">header</text>
    <path d="M440 590 C460 590 440 590 460 590" style="fill:transparent;stroke:black"/>
    <rect x="680" y="570" width="200" height="40" style="fill:white;stroke:black;stroke-width:1"/>
    <text x="690" y="580" font-size="10" style="fill:blue">h1</text>
    <path d="M660 590 C680 590 660 590 680 590" style="fill:transparent;stroke:black"/>
    <rect x="746" y="570" width="137" height="40" style="fill:green;stroke:black;stroke-width:1"/>
    <text x="756" y="580" font-size="8" style="fill:white">Canción de hielo y fuego</text>
    <rect x="680" y="620" width="200" height="40" style="fill:white;stroke:black;stroke-width:1"/>
    <text x="690" y="630" font-size="10" style="fill:blue">nav</text>
    <path d="M660 590 C680 590 660 640 680 640" style="fill:transparent;stroke:black"/>
    <rect x="900" y="620" width="200" height="40" style="fill:white;stroke:black;stroke-width:1"/>
    <text x="910" y="630" font-size="10" style="fill:blue">ul</text>
    <path d="M880 640 C900 640 880 640 900 640" style="fill:transparent;stroke:black"/>
    <rect x="1120" y="620" width="200" height="40" style="fill:white;stroke:black;stroke-width:1"/>
    <text x="1130" y="630" font-size="10" style="fill:blue">li</text>
    <path d="M1100 640 C1120 640 1100 640 1120 640" style="fill:transparent;stroke:black"/>
    <rect x="1340" y="620" width="200" height="40" style="fill:white;stroke:black;stroke-width:1"/>
    <text x="1350" y="630" font-size="10" style="fill:blue">a</text>
    <path d="M1320 640 C1340 640 1320 640 1340 640" style="fill:transparent;stroke:black"/>
    <text x="1350" y="640" font-size="8" style="fill:black">href: ../../index.html</text>
    <rect x="1406" y="620" width="137" height="40" style="fill:green;stroke:black;stroke-width:1"/>
    <text x="1416" y="630" font-size="8" style="fill:white">Portada</text>
    <rect x="1120" y="720" width="200" height="40" style="fill:white;stroke:black;stroke-width:1"/>
    <text x="1130" y="730" font-size="10" style="fill:blue">li</text>
    <path d="M1100 640 C1120 640 1100 740 1120 740" style="fill:transparent;stroke:black"/>
    <rect x="1340" y="720" width="200" height="40" style="fill:white;stroke:black;stroke-width:1"/>
    <text x="1350" y="730" font-size="10" style="fill:blue">a</text>
    <path d="M1320 740 C1340 740 1320 740 1340 740" style="fill:transparent;stroke:black"/>
    <text x="1350" y="740" font-size="8" style="fill:black">href: ../../aficiones.html</text>
    <rect x="1406" y="720" width="137" height="40" style="fill:green;stroke:black;stroke-width:1"/>
    <text x="1416" y="730" font-size="8" style="fill:white">Aficiones</text>
    <rect x="1120" y="820" width="200" height="40" style="fill:white;stroke:black;stroke-width:1"/>
    <text x="1130" y="830" font-size="10" style="fill:blue">li</text>
    <path d="M1100 640 C1120 640 1100 840 1120 840" style="fill:transparent;stroke:black"/>
    <rect x="1340" y="820" width="200" height="40" style="fill:white;stroke:black;stroke-width:1"/>
    <text x="1350" y="830" font-size="10" style="fill:blue">a</text>
    <path d="M1320 840 C1340 840 1320 840 1340 840" style="fill:transparent;stroke:black"/>
    <text x="1350" y="840" font-size="8" style="fill:black">href: ../../sew.html</text>
    <rect x="1406" y="820" width="137" height="40" style="fill:green;stroke:black;stroke-width:1"/>
    <text x="1416" y="830" font-size="8" style="fill:white">SEW</text>
    <rect x="1340" y="870" width="200" height="40" style="fill:white;stroke:black;stroke-width:1"/>
    <text x="1350" y="880" font-size="10" style="fill:blue">ul</text>
    <path d="M1320 840 C1340 840 1320 890 1340 890" style="fill:transparent;stroke:black"/>
    <rect x="1560" y="870" width="200" height="40" style="fill:white;stroke:black;stroke-width:1"/>
    <text x="1570" y="880" font-size="10" style="fill:blue">li</text>
    <path d="M1540 890 C1560 890 1540 890 1560 890" style="fill:transparent;stroke:black"/>
    <rect x="1780" y="870" width="200" height="40" style="fill:white;stroke:black;stroke-width:1"/>
    <text x="1790" y="880" font-size="10" style="fill:blue">a</text>
    <path d="M1760 890 C1780 890 1760 890 1780 890" style="fill:transparent;stroke:black"/>
    <text x="1790" y="890" font-size="8" style="fill:black">href: ../../SEW/p0/index.html</text>
    <rect x="1846" y="870" width="137" height="40" style="fill:green;stroke:black;stroke-width:1"/>
    <text x="1856" y="880" font-size="8" style="fill:white">Práctica 00</text>
    <rect x="1560" y="970" width="200" height="40" style="fill:white;stroke:black;stroke-width:1"/>
    <text x="1570" y="980" font-size="10" style="fill:blue">li</text>
    <path d="M1540 890 C1560 890 1540 990 1560 990" style="fill:transparent;stroke:black"/>
    <rect x="1780" y="970" width="200" height="40" style="fill:white;stroke:black;stroke-width:1"/>
    <text x="1790" y="980" font-size="10" style="fill:blue">a</text>
    <path d="M1760 990 C1780 990 1760 990 1780 990" style="fill:transparent;stroke:black"/>
    <text x="1790" y="990" font-size="8" style="fill:black">href: ../../SEW/p1/p1.html</text>
    <rect x="1846" y="970" width="137" height="40" style="fill:green;stroke:black;stroke-width:1"/>
    <text x="1856" y="980" font-size="8" style="fill:white">Práctica 01</text>
    <rect x="1560" y="1070" width="200" height="40" style="fill:white;stroke:black;stroke-width:1"/>
    <text x="1570" y="1080" font-size="10" style="fill:blue">li</text>
    <path d="M1540 890 C1560 890 1540 1090 1560 1090" style="fill:transparent;stroke:black"/>
    <rect x="1780" y="1070" width="200" height="40" style="fill:white;stroke:black;stroke-width:1"/>
    <text x="1790" y="1080" font-size="10" style="fill:blue">a</text>
    <path d="M1760 1090 C1780 1090 1760 1090 1780 1090" style="fill:transparent;stroke:black"/>
    <text x="1790" y="1090" font-size="8" style="fill:black">href: ../../SEW/p3/p3.html</text>
    <rect x="1846" y="1070" width="137" height="40" style="fill:green;stroke:black;stroke-width:1"/>
    <text x="1856" y="1080" font-size="8" style="fill:white">Práctica 03</text>
    <rect x="1780" y="1120" width="200" height="40" style="fill:white;stroke:black;stroke-width:1"/>
    <text x="1790" y="1130" font-size="10" style="fill:blue">ul</text>
    <path d="M1760 1090 C1780 1090 1760 1140 1780 1140" style="fill:transparent;stroke:black"/>
    <rect x="2000" y="1120" width="200" height="40" style="fill:white;stroke:black;stroke-width:1"/>
    <text x="2010" y="1130" font-size="10" style="fill:blue">li</text>
    <path d="M1980 1140 C2000 1140 1980 1140 2000 1140" style="fill:transparent;stroke:black"/>
    <rect x="2220" y="1120" width="200" height="40" style="fill:white;stroke:black;stroke-width:1"/>
    <text x="2230" y="1130" font-size="10" style="fill:blue">a</text>
    <path d="M2200 1140 C2220 1140 2200 1140 2220 1140" style="fill:transparent;stroke:black"/>
    <text x="2230" y="1140" font-size="8" style="fill:black">href: ../../SEW/p3/p3_1_introduccion.html</text>
    <rect x="2286" y="1120" width="137" height="40" style="fill:green;stroke:black;stroke-width:1"/>
    <text x="2296" y="1130" font-size="8" style="fill:white">Introducción P3</text>
    <rect x="2000" y="1220" width="200" height="40" style="fill:white;stroke:black;stroke-width:1"/>
    <text x="2010" y="1230" font-size="10" style="fill:blue">li</text>
    <path d="M1980 1140 C2000 1140 1980 1240 2000 1240" style="fill:transparent;stroke:black"/>
    <rect x="2220" y="1220" width="200" height="40" style="fill:white;stroke:black;stroke-width:1"/>
    <text x="2230" y="1230" font-size="10" style="fill:blue">a</text>
    <path d="M2200 1240 C2220 1240 2200 1240 2220 1240" style="fill:transparent;stroke:black"/>
    <text x="2230" y="1240" font-size="8" style="fill:black">href: ../../SEW/p3/p3_2_libros.html</text>
    <rect x="2286" y="1220" width="137" height="40" style="fill:green;stroke:black;stroke-width:1"/>
    <text x="2296" y="1230" font-size="8" style="fill:white">Libros P3</text>
    <rect x="2000" y="1320" width="200" height="40" style="fill:white;stroke:black;stroke-width:1"/>
    <text x="2010" y="1330" font-size="10" style="fill:blue">li</text>
    <path d="M1980 1140 C2000 1140 1980 1340 2000 1340" style="fill:transparent;stroke:black"/>
    <rect x="2220" y="1320" width="200" height="40" style="fill:white;stroke:black;stroke-width:1"/>
    <text x="2230" y="1330" font-size="10" style="fill:blue">a</text>
    <path d="M2200 1340 C2220 1340 2200 1340 2220 1340" style="fill:transparent;stroke:black"/>
    <text x="2230" y="1340" font-size="8" style="fill:black">href: ../../SEW/p3/p3_3_resumen.html</text>
    <rect x="2286" y="1320" width="137" height="40" style="fill:green;stroke:black;stroke-width:1"/>
    <text x="2296" y="1330" font-size="8" style="fill:white">Resumen P3</text>
    <rect x="2000" y="1420" width="200" height="40" style="fill:white;stroke:black;stroke-width:1"/>
    <text x="2010" y="1430" font-size="10" style="fill:blue">li</text>
    <path d="M1980 1140 C2000 1140 1980 1440 2000 1440" style="fill:transparent;stroke:black"/>
    <rect x="2220" y="1420" width="200" height="40" style="fill:white;stroke:black;stroke-width:1"/>
    <text x="2230" y="1430" font-size="10" style="fill:blue">a</text>
    <path d="M2200 1440 C2220 1440 2200 1440 2220 1440" style="fill:transparent;stroke:black"/>
    <text x="2230" y="1440" font-size="8" style="fill:black">href: ../../SEW/p3/p3_4_personajes.html</text>
    <rect x="2286" y="1420" width="137" height="40" style="fill:green;stroke:black;stroke-width:1"/>
    <text x="2296" y="1430" font-size="8" style="fill:white">Personajes P3</text>
    <rect x="2000" y="1520" width="200" height="40" style="fill:white;stroke:black;stroke-width:1"/>
    <text x="2010" y="1530" font-size="10" style="fill:blue">li</text>
    <path d="M1980 1140 C2000 1140 1980 1540 2000 1540" style="fill:transparent;stroke:black"/>
    <rect x="2220" y="1520" width="200" height="40" style="fill:white;stroke:black;stroke-width:1"/>
    <text x="2230" y="1530" font-size="10" style="fill:blue">a</text>
    <path d="M2200 1540 C2220 1540 2200 1540 2220 1540" style="fill:transparent;stroke:black"/>
    <text x="2230" y="1540" font-size="8" style="fill:black">href: ../../SEW/p3/p3_5_fuentes.html</text>
    <rect x="2286" y="1520" width="137" height="40" style="fill:green;stroke:black;stroke-width:1"/>
    <text x="2296" y="1530" font-size="8" style="fill:white">Fuentes P3</text>
    <rect x="2000" y="1620" width="200" height="40" style="fill:white;stroke:black;stroke-width:1"/>
    <text x="2010" y="1630" font-size="10" style="fill:blue">li</text>
    <path d="M1980 1140 C2000 1140 1980 1640 2000 1640" style="fill:transparent;stroke:black"/>
    <rect x="2220" y="1620" width="200" height="40" style="fill:white;stroke:black;stroke-width:1"/>
    <text x="2230" y="1630" font-size="10" style="fill:blue">a</text>
    <path d="M2200 1640 C2220 1640 2200 1640 2220 1640" style="fill:transparent;stroke:black"/>
    <text x="2230" y="1640" font-size="8" style="fill:black">href: ../../SEW/p3/p3_6_adaptaciones.html</text>
    <rect x="2286" y="1620" width="137" height="40" style="fill:green;stroke:black;stroke-width:1"/>
    <text x="2296" y="1630" font-size="8" style="fill:white">Adaptaciones P3</text>
    <rect x="2000" y="1720" width="200" height="40" style="fill:white;stroke:black;stroke-width:1"/>
    <text x="2010" y="1730" font-size="10" style="fill:blue">li</text>
    <path d="M1980 1140 C2000 1140 1980 1740 2000 1740" style="fill:transparent;stroke:black"/>
    <rect x="2220" y="1720" width="200" height="40" style="fill:white;stroke:black;stroke-width:1"/>
    <text x="2230" y="1730" font-size="10" style="fill:blue">a</text>
    <path d="M2200 1740 C2220 1740 2200 1740 2220 1740" style="fill:transparent;stroke:black"/>
    <text x="2230" y="1740" font-size="8" style="fill:black">href: ../../SEW/p3/p3_7_mas.html</text>
    <rect x="2286" y="1720" width="137" height="40" style="fill:green;stroke:black;stroke-width:1"/>
    <text x="2296" y="1730" font-size="8" style="fill:white">Más información P3</text>
    <rect x="1560" y="1920" width="200" height="40" style="fill:white;stroke:black;stroke-width:1"/>
    <text x="1570" y="1930" font-size="10" style="fill:blue">li</text>
    <path d="M1540 890 C1560 890 1540 1940 1560 1940" style="fill:transparent;stroke:black"/>
    <rect x="1780" y="1920" width="200" height="40" style="fill:white;stroke:black;stroke-width:1"/>
    <text x="1790" y="1930" font-size="10" style="fill:blue">a</text>
    <path d="M1760 1940 C1780 1940 1760 1940 1780 1940" style="fill:transparent;stroke:black"/>
    <text x="1790" y="1940" font-size="8" style="fill:black">href: ../../SEW/p5/p5.html</text>
    <rect x="1846" y="1920" width="137" height="40" style="fill:green;stroke:black;stroke-width:1"/>
    <text x="1856" y="1930" font-size="8" style="fill:white">Práctica 05</text>
    <rect x="1780" y="1970" width="200" height="40" style="fill:white;stroke:black;stroke-width:1"/>
    <text x="1790" y="1980" font-size="10" style="fill:blue">ul</text>
    <path d="M1760 1940 C1780 1940 1760 1990 1780 1990" style="fill:transparent;stroke:black"/>
    <rect x="2000" y="1970" width="200" height="40" style="fill:white;stroke:black;stroke-width:1"/>
    <text x="2010" y="1980" font-size="10" style="fill:blue">li</text>
    <path d="M1980 1990 C2000 1990 1980 1990 2000 1990" style="fill:transparent;stroke:black"/>
    <rect x="2220" y="1970" width="200" height="40" style="fill:white;stroke:black;stroke-width:1"/>
    <text x="2230" y="1980" font-size="10" style="fill:blue">a</text>
    <path d="M2200 1990 C2220 1990 2200 1990 2220 1990" style="fill:transparent;stroke:black"/>
    <text x="2230" y="1990" font-size="8" style="fill:black">href: ../../SEW/p5/p5_1_introduccion.html</text>
    <rect x="2286" y="1970" width="137" height="40" style="fill:green;stroke:black;stroke-width:1"/>
    <text x="2296" y="1980" font-size="8" style="fill:white">Introducción P5</text>
    <rect x="2000" y="2070" width="200" height="40" style="fill:white;stroke:black;stroke-width:1"/>
    <text x="2010" y="2080" font-size="10" style="fill:blue">li</text>
    <path d="M1980 1990 C2000 1990 1980 2090 2000 2090" style="fill:transparent;stroke:black"/>
    <rect x="2220" y="2070" width="200" height="40" style="fill:white;stroke:black;stroke-width:1"/>
    <text x="2230" y="2080" font-size="10" style="fill:blue">a</text>
    <path d="M2200 2090 C2220 2090 2200 2090 2220 2090" style="fill:transparent;stroke:black"/>
    <text x="2230" y="2090" font-size="8" style="fill:black">href: ../../SEW/p5/p5_2_libros.html</text>
    <rect x="2286" y="2070" width="137" height="40" style="fill:green;stroke:black;stroke-width:1"/>
    <text x="2296" y="2080" font-size="8" style="fill:white">Libros P5</text>
    <rect x="2000" y="2170" width="200" height="40" style="fill:white;stroke:black;stroke-width:1"/>
    <text x="2010" y="2180" font-size="10" style="fill:blue">li</text>
    <path d="M1980 1990 C2000 1990 1980 2190 2000 2190" style="fill:transparent;stroke:black"/>
    <rect x="2220" y="2170" width="200" height="40" style="fill:white;stroke:black;stroke-width:1"/>
    <text x="2230" y="2180" font-size="10" style="fill:blue">a</text>
    <path d="M2200 2190 C2220 2190 2200 2190 2220 2190" style="fill:transparent;stroke:black"/>
    <text x="2230" y="2190" font-size="8" style="fill:black">href: ../../SEW/p5/p5_3_resumen.html</text>
    <rect x="2286" y="2170" width="137" height="40" style="fill:green;stroke:black;stroke-width:1"/>
    <text x="2296" y="2180" font-size="8" style="fill:white">Resumen P5</text>
    <rect x="2000" y="2270" width="200" height="40" style="fill:white;stroke:black;stroke-width:1"/>
    <text x="2010" y="2280" font-size="10" style="fill:blue">li</text>
    <path d="M1980 1990 C2000 1990 1980 2290 2000 2290" style="fill:transparent;stroke:black"/>
    <rect x="2220" y="2270" width="200" height="40" style="fill:white;stroke:black;stroke-width:1"/>
    <text x="2230" y="2280" font-size="10" style="fill:blue">a</text>
    <path d="M2200 2290 C2220 2290 2200 2290 2220 2290" style="fill:transparent;stroke:black"/>
    <text x="2230" y="2290" font-size="8" style="fill:black">href: ../../SEW/p5/p5_4_personajes.html</text>
    <rect x="2286" y="2270" width="137" height="40" style="fill:green;stroke:black;stroke-width:1"/>
    <text x="2296" y="2280" font-size="8" style="fill:white">Personajes P5</text>
    <rect x="2000" y="2370" width="200" height="40" style="fill:white;stroke:black;stroke-width:1"/>
    <text x="2010" y="2380" font-size="10" style="fill:blue">li</text>
    <path d="M1980 1990 C2000 1990 1980 2390 2000 2390" style="fill:transparent;stroke:black"/>
    <rect x="2220" y="2370" width="200" height="40" style="fill:white;stroke:black;stroke-width:1"/>
    <text x="2230" y="2380" font-size="10" style="fill:blue">a</text>
    <path d="M2200 2390 C2220 2390 2200 2390 2220 2390" style="fill:transparent;stroke:black"/>
    <text x="2230" y="2390" font-size="8" style="fill:black">href: ../../SEW/p5/p5_5_fuentes.html</text>
    <rect x="2286" y="2370" width="137" height="40" style="fill:green;stroke:black;stroke-width:1"/>
    <text x="2296" y="2380" font-size="8" style="fill:white">Fuentes P5</text>
    <rect x="2000" y="2470" width="200" height="40" style="fill:white;stroke:black;stroke-width:1"/>
    <text x="2010" y="2480" font-size="10" style="fill:blue">li</text>
    <path d="M1980 1990 C2000 1990 1980 2490 2000 2490" style="fill:transparent;stroke:black"/>
    <rect x="2220" y="2470" width="200" height="40" style="fill:white;stroke:black;stroke-width:1"/>
    <text x="2230" y="2480" font-size="10" style="fill:blue">a</text>
    <path d="M2200 2490 C2220 2490 2200 2490 2220 2490" style="fill:transparent;stroke:black"/>
    <text x="2230" y="2490" font-size="8" style="fill:black">href: ../../SEW/p5/p5_6_adaptaciones.html</text>
    <rect x="2286" y="2470" width="137" height="40" style="fill:green;stroke:black;stroke-width:1"/>
    <text x="2296" y="2480" font-size="8" style="fill:white">Adaptaciones P5</text>
    <rect x="2000" y="2570" width="200" height="40" style="fill:white;stroke:black;stroke-width:1"/>
    <text x="2010" y="2580" font-size="10" style="fill:blue">li</text>
    <path d="M1980 1990 C2000 1990 1980 2590 2000 2590" style="fill:transparent;stroke:black"/>
    <rect x="2220" y="2570" width="200" height="40" style="fill:white;stroke:black;stroke-width:1"/>
    <text x="2230" y="2580" font-size="10" style="fill:blue">a</text>
    <path d="M2200 2590 C2220 2590 2200 2590 2220 2590" style="fill:transparent;stroke:black"/>
    <text x="2230" y="2590" font-size="8" style="fill:black">href: ../../SEW/p5/p5_7_mas.html</text>
    <rect x="2286" y="2570" width="137" height="40" style="fill:green;stroke:black;stroke-width:1"/>
    <text x="2296" y="2580" font-size="8" style="fill:white">Más información P5</text>
    <rect x="460" y="3020" width="200" height="40" style="fill:white;stroke:black;stroke-width:1"/>
    <text x="470" y="3030" font-size="10" style="fill:blue">main</text>
    <path d="M440 590 C460 590 440 3040 460 3040" style="fill:transparent;stroke:black"/>
    <rect x="680" y="3020" width="200" height="40" style="fill:white;stroke:black;stroke-width:1"/>
    <text x="690" y="3030" font-size="10" style="fill:blue">h2</text>
    <path d="M660 3040 C680 3040 660 3040 680 3040" style="fill:transparent;stroke:black"/>
    <rect x="746" y="3020" width="137" height="40" style="fill:green;stroke:black;stroke-width:1"/>
    <text x="756" y="3030" font-size="8" style="fill:white">Introducción</text>
    <rect x="680" y="3070" width="200" height="40" style="fill:white;stroke:black;stroke-width:1"/>
    <text x="690" y="3080" font-size="10" style="fill:blue">p</text>
    <path d="M660 3040 C680 3040 660 3090 680 3090" style="fill:transparent;stroke:black"/>
    <rect x="746" y="3070" width="137" height="40" style="fill:green;stroke:black;stroke-width:1"/>
    <text x="756" y="3080" font-size="8" style="fill:white">
        Es una multipremiada serie de novelas de fantasía épica escritas por el novelista y guionista estadounidense
        George R. R. Martin. Martin comenzó a escribir la serie en 1993 y el primer tomo se publicó en 1996.
        Originalmente planeada como una trilogía, actualmente se espera que la serie sea una heptalogía, ya que tiene
        cinco tomos publicados y dos más planeados. También hay tres novelas cortas que actúan como precuelas de la
        serie; y una serie de novelas cortas que recopilan los capítulos dedicados a un personaje determinado, ya
        publicados en las novelas principales. La serie ha sido traducida a más de treinta idiomas y el cuarto tomo
        alcanzó el primer lugar en la lista de best sellers del New York Times tras su publicación. En septiembre de
        2013, la serie había vendido alrededor de 24 millones de copias en todo el mundo.
    </text>
    <rect x="680" y="3120" width="200" height="40" style="fill:white;stroke:black;stroke-width:1"/>
    <text x="690" y="3130" font-size="10" style="fill:blue">p</text>
    <path d="M660 3040 C680 3040 660 3140 680 3140" style="fill:transparent;stroke:black"/>
    <rect x="746" y="3120" width="137" height="40" style="fill:green;stroke:black;stroke-width:1"/>
    <text x="756" y="3130" font-size="8" style="fill:white">
        La historia de Canción de hielo y fuego se sitúa en un mundo ficticio medieval, principalmente en un continente
        llamado Poniente pero también en un vasto continente oriental, conocido como Essos. La mayor parte de los
        personajes son humanos, pero a medida que la serie avanza aparecen otras razas.
    </text>
    <rect x="680" y="3170" width="200" height="40" style="fill:white;stroke:black;stroke-width:1"/>
    <text x="690" y="3180" font-size="10" style="fill:blue">p</text>
    <path d="M660 3040 C680 3040 660 3190 680 3190" style="fill:transparent;stroke:black"/>
    <rect x="746" y="3170" width="137" height="40" style="fill:green;stroke:black;stroke-width:1"/>
    <text x="756" y="3180" font-size="8" style="fill:white">Hay tres líneas argumentales en la serie:</text>
    <rect x="680" y="3220" width="200" height="40" style="fill:white;stroke:black;stroke-width:1"/>
    <text x="690" y="3230" font-size="10" style="fill:blue">ul</text>
    <path d="M660 3040 C680 3040 660 3240 680 3240" style="fill:transparent;stroke:black"/>
    <rect x="900" y="3220" width="200" height="40" style="fill:white;stroke:black;stroke-width:1"/>
    <text x="910" y="3230" font-size="10" style="fill:blue">li</text>
    <path d="M880 3240 C900 3240 880 3240 900 3240" style="fill:transparent;stroke:black"/>
    <rect x="966" y="3220" width="137" height="40" style="fill:green;stroke:black;stroke-width:1"/>
    <text x="976" y="3230" font-size="8" style="fill:white">la crónica de la guerra civil dinástica por el control de
        Poniente entre varias familias nobles;
    </text>
    <rect x="900" y="3270" width="200" height="40" style="fill:white;stroke:black;stroke-width:1"/>
    <text x="910" y="3280" font-size="10" style="fill:blue">li</text>
    <path d="M880 3240 C900 3240 880 3290 900 3290" style="fill:transparent;stroke:black"/>
    <rect x="966" y="3270" width="137" height="40" style="fill:green;stroke:black;stroke-width:1"/>
    <text x="976" y="3280" font-size="8" style="fill:white">la creciente amenaza de los Otros y los salvajes, apenas
        contenida por un inmenso muro de hielo que protege
        el norte de Poniente;
    </text>
    <rect x="900" y="3320" width="200" height="40" style="fill:white;stroke:black;stroke-width:1"/>
    <text x="910" y="3330" font-size="10" style="fill:blue">li</text>
    <path d="M880 3240 C900 3240 880 3340 900 3340" style="fill:transparent;stroke:black"/>
    <rect x="966" y="3320" width="137" height="40" style="fill:green;stroke:black;stroke-width:1"/>
    <text x="976" y="3330" font-size="8" style="fill:white">
        y el viaje de Daenerys Targaryen, la hija exiliada del rey que fue asesinado en otra guerra civil quince
        años antes del comienzo de la serie, quien busca regresar a Poniente a reclamar sus derechos.
    </text>
    <rect x="680" y="3420" width="200" height="40" style="fill:white;stroke:black;stroke-width:1"/>
    <text x="690" y="3430" font-size="10" style="fill:blue">p</text>
    <path d="M660 3040 C680 3040 660 3440 680 3440" style="fill:transparent;stroke:black"/>
    <rect x="746" y="3420" width="137" height="40" style="fill:green;stroke:black;stroke-width:1"/>
    <text x="756" y="3430" font-size="8" style="fill:white">
        Estas tres historias interactúan entre sí y son extremadamente codependientes. La serie está narrada en tercera
        persona a través de los ojos de varios personajes. Al final del quinto tomo, ha habido treinta y un puntos de
        vista, incluyendo nueve personajes que solo han aparecido una vez (ocho de ellos, porque mueren violentamente).
        Si bien la serie se sitúa en un mundo ficticio y Martin ha citado a J. R. R. Tolkien, Jack Vance y a Tad
        Williams, como sus influencias, la serie difiere de los trabajos de estos autores en el hecho de que se interesa
        y utiliza más los elementos realistas que los fantásticos. Mientras Tolkien se inspiraba en la mitología,
        Canción de hielo y fuego se inspira en la historia medieval, especialmente en la Guerra de las Dos Rosas y la
        dinámica de su primer libro, así como la trama principal, es muy similar a la obra Los reyes malditos del
        escritor Maurice Druon, sobre la cual Martin ha dicho que es "el verdadero juego de tronos" y que "los Stark y
        los Lannister no aventajan en nada a los Capetos y los Plantagenet". Asimismo, la serie se considera una de las
        obras más innovadoras del género, debido al gran número y la complejidad de sus personajes, lo intrincado de las
        tramas políticas, y su falta de censura en temas de violencia, sexo o incluso al abordar tabúes como el incesto.
    </text>
    <rect x="460" y="3520" width="200" height="40" style="fill:white;stroke:black;stroke-width:1"/>
    <text x="470" y="3530" font-size="10" style="fill:blue">footer</text>
    <path d="M440 590 C460 590 440 3540 460 3540" style="fill:transparent;stroke:black"/>
    <rect x="680" y="3520" width="200" height="40" style="fill:white;stroke:black;stroke-width:1"/>
    <text x="690" y="3530" font-size="10" style="fill:blue">address</text>
    <path d="M660 3540 C680 3540 660 3540 680 3540" style="fill:transparent;stroke:black"/>
    <rect x="900" y="3520" width="200" height="40" style="fill:white;stroke:black;stroke-width:1"/>
    <text x="910" y="3530" font-size="10" style="fill:blue">p</text>
    <path d="M880 3540 C900 3540 880 3540 900 3540" style="fill:transparent;stroke:black"/>
    <rect x="966" y="3520" width="137" height="40" style="fill:green;stroke:black;stroke-width:1"/>
    <text x="976" y="3530" font-size="8" style="fill:white">Autor: Iván González Mahagamage</text>
    <rect x="900" y="3570" width="200" height="40" style="fill:white;stroke:black;stroke-width:1"/>
    <text x="910" y="3580" font-size="10" style="fill:blue">p</text>
    <path d="M880 3540 C900 3540 880 3590 900 3590" style="fill:transparent;stroke:black"/>
    <rect x="966" y="3570" width="137" height="40" style="fill:green;stroke:black;stroke-width:1"/>
    <text x="976" y="3580" font-size="8" style="fill:white">Contacto:</text>
    <rect x="1120" y="3570" width="200" height="40" style="fill:white;stroke:black;stroke-width:1"/>
    <text x="1130" y="3580" font-size="10" style="fill:blue">a</text>
    <path d="M1100 3590 C1120 3590 1100 3590 1120 3590" style="fill:transparent;stroke:black"/>
    <text x="1130" y="3590" font-size="8" style="fill:black">href: mailto:uo239795@uniovi.es</text>
    <rect x="1186" y="3570" width="137" height="40" style="fill:green;stroke:black;stroke-width:1"/>
    <text x="1196" y="3580" font-size="8" style="fill:white">uo239795@uniovi.es</text>
    <rect x="680" y="3720" width="200" height="40" style="fill:white;stroke:black;stroke-width:1"/>
    <text x="690" y="3730" font-size="10" style="fill:blue">p</text>
    <path d="M660 3540 C680 3540 660 3740 680 3740" style="fill:transparent;stroke:black"/>
    <rect x="900" y="3720" width="200" height="40" style="fill:white;stroke:black;stroke-width:1"/>
    <text x="910" y="3730" font-size="10" style="fill:blue">a</text>
    <path d="M880 3740 C900 3740 880 3740 900 3740" style="fill:transparent;stroke:black"/>
    <text x="910" y="3740" font-size="8" style="fill:black">href: https://validator.w3.org/check?uri=referer</text>
    <rect x="1120" y="3720" width="200" height="40" style="fill:white;stroke:black;stroke-width:1"/>
    <text x="1130" y="3730" font-size="10" style="fill:blue">img</text>
    <path d="M1100 3740 C1120 3740 1100 3740 1120 3740" style="fill:transparent;stroke:black"/>
    <text x="1130" y="3740" font-size="8" style="fill:black">src:
        https://unioviedo-my.sharepoint.com/personal/uo239795_uniovi_es/_layouts/15/guestaccess.aspx?docid=1dc29309c5f484ddbb0d9db5b1c80c434&amp;authkey=ARFq9i5Nm2QpUmJj55IcDgQ&amp;e=705a58700abd4191a586e91989da4a0e
    </text>
    <text x="1130" y="3750" font-size="8" style="fill:black">alt: HTML5 Válido</text>
    <text x="1130" y="3760" font-size="8" style="fill:black">longdesc: https://validator.w3.org/check?uri=referer</text>
    <rect x="900" y="3820" width="200" height="40" style="fill:white;stroke:black;stroke-width:1"/>
    <text x="910" y="3830" font-size="10" style="fill:blue">a</text>
    <path d="M880 3740 C900 3740 880 3840 900 3840" style="fill:transparent;stroke:black"/>
    <text x="910" y="3840" font-size="8" style="fill:black">href: http://jigsaw.w3.org/css-validator/check/referer
    </text>
    <rect x="1120" y="3820" width="200" height="40" style="fill:white;stroke:black;stroke-width:1"/>
    <text x="1130" y="3830" font-size="10" style="fill:blue">img</text>
    <path d="M1100 3840 C1120 3840 1100 3840 1120 3840" style="fill:transparent;stroke:black"/>
    <text x="1130" y="3840" font-size="8" style="fill:black">src:
        https://unioviedo-my.sharepoint.com/personal/uo239795_uniovi_es/_layouts/15/guestaccess.aspx?docid=190f4b784428a40a2b969ae7f977a3d85&amp;authkey=AegPExwjY0qZ80NLtEpPmYo&amp;amp;e=41cf2c002341476e8abb088bc7c0a15b
    </text>
    <text x="1130" y="3850" font-size="8" style="fill:black">alt: ¡CSS Válido!</text>
    <rect x="680" y="3970" width="200" height="40" style="fill:white;stroke:black;stroke-width:1"/>
    <text x="690" y="3980" font-size="10" style="fill:blue">p</text>
    <path d="M660 3540 C680 3540 660 3990 680 3990" style="fill:transparent;stroke:black"/>
    <rect x="900" y="3970" width="200" height="40" style="fill:white;stroke:black;stroke-width:1"/>
    <text x="910" y="3980" font-size="10" style="fill:blue">a</text>
    <path d="M880 3990 C900 3990 880 3990 900 3990" style="fill:transparent;stroke:black"/>
    <text x="910" y="3990" font-size="8" style="fill:black">href: p3_1_introduccion.svg</text>
    <rect x="966" y="3970" width="137" height="40" style="fill:green;stroke:black;stroke-width:1"/>
    <text x="976" y="3980" font-size="8" style="fill:white">Mostrar árbol DOM</text>
</svg>