<?xml version="1.0" encoding="utf-8"?>
<svg width="auto" height="2270" style="overflow:visible " version="1.1" xmlns="http://www.w3.org/2000/svg">
    <rect x="20" y="20" width="200" height="40" style="fill:white;stroke:black;stroke-width:1"/>
    <text x="30" y="30" font-size="10" style="fill:blue">xs:schema</text>
    <text x="30" y="40" font-size="8" style="fill:black">xmlns:xs: http://www.w3.org/2001/XMLSchema</text>
    <text x="30" y="50" font-size="8" style="fill:black">targetNamespace: uo239795</text>
    <text x="30" y="60" font-size="8" style="fill:black">xmlns: uo239795</text>
    <text x="30" y="70" font-size="8" style="fill:black">elementFormDefault: qualified</text>
    <rect x="240" y="20" width="200" height="40" style="fill:white;stroke:black;stroke-width:1"/>
    <text x="250" y="30" font-size="10" style="fill:blue">xs:element</text>
    <path d="M220 40 C240 40 220 40 240 40" style="fill:transparent;stroke:black"/>
    <text x="250" y="40" font-size="8" style="fill:black">name: articulos</text>
    <rect x="460" y="20" width="200" height="40" style="fill:white;stroke:black;stroke-width:1"/>
    <text x="470" y="30" font-size="10" style="fill:blue">xs:complexType</text>
    <path d="M440 40 C460 40 440 40 460 40" style="fill:transparent;stroke:black"/>
    <rect x="680" y="20" width="200" height="40" style="fill:white;stroke:black;stroke-width:1"/>
    <text x="690" y="30" font-size="10" style="fill:blue">xs:sequence</text>
    <path d="M660 40 C680 40 660 40 680 40" style="fill:transparent;stroke:black"/>
    <rect x="900" y="20" width="200" height="40" style="fill:white;stroke:black;stroke-width:1"/>
    <text x="910" y="30" font-size="10" style="fill:blue">xs:element</text>
    <path d="M880 40 C900 40 880 40 900 40" style="fill:transparent;stroke:black"/>
    <text x="910" y="40" font-size="8" style="fill:black">name: articulo</text>
    <text x="910" y="50" font-size="8" style="fill:black">minOccurs: 1</text>
    <text x="910" y="60" font-size="8" style="fill:black">maxOccurs: unbounded</text>
    <rect x="1120" y="20" width="200" height="40" style="fill:white;stroke:black;stroke-width:1"/>
    <text x="1130" y="30" font-size="10" style="fill:blue">xs:complexType</text>
    <path d="M1100 40 C1120 40 1100 40 1120 40" style="fill:transparent;stroke:black"/>
    <rect x="1340" y="20" width="200" height="40" style="fill:white;stroke:black;stroke-width:1"/>
    <text x="1350" y="30" font-size="10" style="fill:blue">xs:sequence</text>
    <path d="M1320 40 C1340 40 1320 40 1340 40" style="fill:transparent;stroke:black"/>
    <rect x="1560" y="20" width="200" height="40" style="fill:white;stroke:black;stroke-width:1"/>
    <text x="1570" y="30" font-size="10" style="fill:blue">xs:element</text>
    <path d="M1540 40 C1560 40 1540 40 1560 40" style="fill:transparent;stroke:black"/>
    <text x="1570" y="40" font-size="8" style="fill:black">name: titulo</text>
    <text x="1570" y="50" font-size="8" style="fill:black">type: xs:string</text>
    <text x="1570" y="60" font-size="8" style="fill:black">minOccurs: 1</text>
    <text x="1570" y="70" font-size="8" style="fill:black">maxOccurs: 1</text>
    <rect x="1560" y="70" width="200" height="40" style="fill:white;stroke:black;stroke-width:1"/>
    <text x="1570" y="80" font-size="10" style="fill:blue">xs:element</text>
    <path d="M1540 40 C1560 40 1540 90 1560 90" style="fill:transparent;stroke:black"/>
    <text x="1570" y="90" font-size="8" style="fill:black">name: autores</text>
    <rect x="1780" y="70" width="200" height="40" style="fill:white;stroke:black;stroke-width:1"/>
    <text x="1790" y="80" font-size="10" style="fill:blue">xs:complexType</text>
    <path d="M1760 90 C1780 90 1760 90 1780 90" style="fill:transparent;stroke:black"/>
    <rect x="2000" y="70" width="200" height="40" style="fill:white;stroke:black;stroke-width:1"/>
    <text x="2010" y="80" font-size="10" style="fill:blue">xs:sequence</text>
    <path d="M1980 90 C2000 90 1980 90 2000 90" style="fill:transparent;stroke:black"/>
    <rect x="2220" y="70" width="200" height="40" style="fill:white;stroke:black;stroke-width:1"/>
    <text x="2230" y="80" font-size="10" style="fill:blue">xs:element</text>
    <path d="M2200 90 C2220 90 2200 90 2220 90" style="fill:transparent;stroke:black"/>
    <text x="2230" y="90" font-size="8" style="fill:black">name: autor</text>
    <text x="2230" y="100" font-size="8" style="fill:black">minOccurs: 1</text>
    <text x="2230" y="110" font-size="8" style="fill:black">maxOccurs: unbounded</text>
    <rect x="2440" y="70" width="200" height="40" style="fill:white;stroke:black;stroke-width:1"/>
    <text x="2450" y="80" font-size="10" style="fill:blue">xs:complexType</text>
    <path d="M2420 90 C2440 90 2420 90 2440 90" style="fill:transparent;stroke:black"/>
    <rect x="2660" y="70" width="200" height="40" style="fill:white;stroke:black;stroke-width:1"/>
    <text x="2670" y="80" font-size="10" style="fill:blue">xs:sequence</text>
    <path d="M2640 90 C2660 90 2640 90 2660 90" style="fill:transparent;stroke:black"/>
    <rect x="2880" y="70" width="200" height="40" style="fill:white;stroke:black;stroke-width:1"/>
    <text x="2890" y="80" font-size="10" style="fill:blue">xs:element</text>
    <path d="M2860 90 C2880 90 2860 90 2880 90" style="fill:transparent;stroke:black"/>
    <text x="2890" y="90" font-size="8" style="fill:black">name: nombreAutor</text>
    <text x="2890" y="100" font-size="8" style="fill:black">type: xs:string</text>
    <rect x="2880" y="120" width="200" height="40" style="fill:white;stroke:black;stroke-width:1"/>
    <text x="2890" y="130" font-size="10" style="fill:blue">xs:element</text>
    <path d="M2860 90 C2880 90 2860 140 2880 140" style="fill:transparent;stroke:black"/>
    <text x="2890" y="140" font-size="8" style="fill:black">name: correo</text>
    <text x="2890" y="150" font-size="8" style="fill:black">type: xs:string</text>
    <rect x="1560" y="470" width="200" height="40" style="fill:white;stroke:black;stroke-width:1"/>
    <text x="1570" y="480" font-size="10" style="fill:blue">xs:element</text>
    <path d="M1540 40 C1560 40 1540 490 1560 490" style="fill:transparent;stroke:black"/>
    <text x="1570" y="490" font-size="8" style="fill:black">name: resumen</text>
    <text x="1570" y="500" font-size="8" style="fill:black">type: xs:string</text>
    <text x="1570" y="510" font-size="8" style="fill:black">minOccurs: 0</text>
    <text x="1570" y="520" font-size="8" style="fill:black">maxOccurs: 1</text>
    <rect x="1560" y="520" width="200" height="40" style="fill:white;stroke:black;stroke-width:1"/>
    <text x="1570" y="530" font-size="10" style="fill:blue">xs:element</text>
    <path d="M1540 40 C1560 40 1540 540 1560 540" style="fill:transparent;stroke:black"/>
    <text x="1570" y="540" font-size="8" style="fill:black">name: claves</text>
    <rect x="1780" y="520" width="200" height="40" style="fill:white;stroke:black;stroke-width:1"/>
    <text x="1790" y="530" font-size="10" style="fill:blue">xs:complexType</text>
    <path d="M1760 540 C1780 540 1760 540 1780 540" style="fill:transparent;stroke:black"/>
    <rect x="2000" y="520" width="200" height="40" style="fill:white;stroke:black;stroke-width:1"/>
    <text x="2010" y="530" font-size="10" style="fill:blue">xs:sequence</text>
    <path d="M1980 540 C2000 540 1980 540 2000 540" style="fill:transparent;stroke:black"/>
    <rect x="2220" y="520" width="200" height="40" style="fill:white;stroke:black;stroke-width:1"/>
    <text x="2230" y="530" font-size="10" style="fill:blue">xs:element</text>
    <path d="M2200 540 C2220 540 2200 540 2220 540" style="fill:transparent;stroke:black"/>
    <text x="2230" y="540" font-size="8" style="fill:black">name: clave</text>
    <text x="2230" y="550" font-size="8" style="fill:black">type: xs:string</text>
    <text x="2230" y="560" font-size="8" style="fill:black">minOccurs: 1</text>
    <text x="2230" y="570" font-size="8" style="fill:black">maxOccurs: unbounded</text>
    <rect x="1560" y="720" width="200" height="40" style="fill:white;stroke:black;stroke-width:1"/>
    <text x="1570" y="730" font-size="10" style="fill:blue">xs:element</text>
    <path d="M1540 40 C1560 40 1540 740 1560 740" style="fill:transparent;stroke:black"/>
    <text x="1570" y="740" font-size="8" style="fill:black">name: revista</text>
    <text x="1570" y="750" font-size="8" style="fill:black">type: xs:string</text>
    <text x="1570" y="760" font-size="8" style="fill:black">minOccurs: 1</text>
    <text x="1570" y="770" font-size="8" style="fill:black">maxOccurs: 1</text>
    <rect x="1560" y="770" width="200" height="40" style="fill:white;stroke:black;stroke-width:1"/>
    <text x="1570" y="780" font-size="10" style="fill:blue">xs:element</text>
    <path d="M1540 40 C1560 40 1540 790 1560 790" style="fill:transparent;stroke:black"/>
    <text x="1570" y="790" font-size="8" style="fill:black">name: enumeracionRevista</text>
    <rect x="1780" y="770" width="200" height="40" style="fill:white;stroke:black;stroke-width:1"/>
    <text x="1790" y="780" font-size="10" style="fill:blue">xs:complexType</text>
    <path d="M1760 790 C1780 790 1760 790 1780 790" style="fill:transparent;stroke:black"/>
    <rect x="2000" y="770" width="200" height="40" style="fill:white;stroke:black;stroke-width:1"/>
    <text x="2010" y="780" font-size="10" style="fill:blue">xs:sequence</text>
    <path d="M1980 790 C2000 790 1980 790 2000 790" style="fill:transparent;stroke:black"/>
    <rect x="2220" y="770" width="200" height="40" style="fill:white;stroke:black;stroke-width:1"/>
    <text x="2230" y="780" font-size="10" style="fill:blue">xs:element</text>
    <path d="M2200 790 C2220 790 2200 790 2220 790" style="fill:transparent;stroke:black"/>
    <text x="2230" y="790" font-size="8" style="fill:black">name: numeroRevista</text>
    <text x="2230" y="800" font-size="8" style="fill:black">minOccurs: 0</text>
    <text x="2230" y="810" font-size="8" style="fill:black">maxOccurs: 1</text>
    <rect x="2440" y="770" width="200" height="40" style="fill:white;stroke:black;stroke-width:1"/>
    <text x="2450" y="780" font-size="10" style="fill:blue">xs:simpleType</text>
    <path d="M2420 790 C2440 790 2420 790 2440 790" style="fill:transparent;stroke:black"/>
    <rect x="2660" y="770" width="200" height="40" style="fill:white;stroke:black;stroke-width:1"/>
    <text x="2670" y="780" font-size="10" style="fill:blue">xs:restriction</text>
    <path d="M2640 790 C2660 790 2640 790 2660 790" style="fill:transparent;stroke:black"/>
    <text x="2670" y="790" font-size="8" style="fill:black">base: xs:integer</text>
    <rect x="2880" y="770" width="200" height="40" style="fill:white;stroke:black;stroke-width:1"/>
    <text x="2890" y="780" font-size="10" style="fill:blue">xs:minExclusive</text>
    <path d="M2860 790 C2880 790 2860 790 2880 790" style="fill:transparent;stroke:black"/>
    <text x="2890" y="790" font-size="8" style="fill:black">value: 1</text>
    <rect x="2220" y="970" width="200" height="40" style="fill:white;stroke:black;stroke-width:1"/>
    <text x="2230" y="980" font-size="10" style="fill:blue">xs:element</text>
    <path d="M2200 790 C2220 790 2200 990 2220 990" style="fill:transparent;stroke:black"/>
    <text x="2230" y="990" font-size="8" style="fill:black">name: volumenRevista</text>
    <text x="2230" y="1000" font-size="8" style="fill:black">minOccurs: 0</text>
    <text x="2230" y="1010" font-size="8" style="fill:black">maxOccurs: 1</text>
    <rect x="2440" y="970" width="200" height="40" style="fill:white;stroke:black;stroke-width:1"/>
    <text x="2450" y="980" font-size="10" style="fill:blue">xs:simpleType</text>
    <path d="M2420 990 C2440 990 2420 990 2440 990" style="fill:transparent;stroke:black"/>
    <rect x="2660" y="970" width="200" height="40" style="fill:white;stroke:black;stroke-width:1"/>
    <text x="2670" y="980" font-size="10" style="fill:blue">xs:restriction</text>
    <path d="M2640 990 C2660 990 2640 990 2660 990" style="fill:transparent;stroke:black"/>
    <text x="2670" y="990" font-size="8" style="fill:black">base: xs:integer</text>
    <rect x="2880" y="970" width="200" height="40" style="fill:white;stroke:black;stroke-width:1"/>
    <text x="2890" y="980" font-size="10" style="fill:blue">xs:minExclusive</text>
    <path d="M2860 990 C2880 990 2860 990 2880 990" style="fill:transparent;stroke:black"/>
    <text x="2890" y="990" font-size="8" style="fill:black">value: 1</text>
    <rect x="1560" y="1320" width="200" height="40" style="fill:white;stroke:black;stroke-width:1"/>
    <text x="1570" y="1330" font-size="10" style="fill:blue">xs:element</text>
    <path d="M1540 40 C1560 40 1540 1340 1560 1340" style="fill:transparent;stroke:black"/>
    <text x="1570" y="1340" font-size="8" style="fill:black">name: paginaInicio</text>
    <text x="1570" y="1350" font-size="8" style="fill:black">minOccurs: 1</text>
    <text x="1570" y="1360" font-size="8" style="fill:black">maxOccurs: 1</text>
    <rect x="1780" y="1320" width="200" height="40" style="fill:white;stroke:black;stroke-width:1"/>
    <text x="1790" y="1330" font-size="10" style="fill:blue">xs:simpleType</text>
    <path d="M1760 1340 C1780 1340 1760 1340 1780 1340" style="fill:transparent;stroke:black"/>
    <rect x="2000" y="1320" width="200" height="40" style="fill:white;stroke:black;stroke-width:1"/>
    <text x="2010" y="1330" font-size="10" style="fill:blue">xs:restriction</text>
    <path d="M1980 1340 C2000 1340 1980 1340 2000 1340" style="fill:transparent;stroke:black"/>
    <text x="2010" y="1340" font-size="8" style="fill:black">base: xs:integer</text>
    <rect x="2220" y="1320" width="200" height="40" style="fill:white;stroke:black;stroke-width:1"/>
    <text x="2230" y="1330" font-size="10" style="fill:blue">xs:minExclusive</text>
    <path d="M2200 1340 C2220 1340 2200 1340 2220 1340" style="fill:transparent;stroke:black"/>
    <text x="2230" y="1340" font-size="8" style="fill:black">value: 0</text>
    <rect x="1560" y="1520" width="200" height="40" style="fill:white;stroke:black;stroke-width:1"/>
    <text x="1570" y="1530" font-size="10" style="fill:blue">xs:element</text>
    <path d="M1540 40 C1560 40 1540 1540 1560 1540" style="fill:transparent;stroke:black"/>
    <text x="1570" y="1540" font-size="8" style="fill:black">name: paginaFinal</text>
    <text x="1570" y="1550" font-size="8" style="fill:black">minOccurs: 1</text>
    <text x="1570" y="1560" font-size="8" style="fill:black">maxOccurs: 1</text>
    <rect x="1780" y="1520" width="200" height="40" style="fill:white;stroke:black;stroke-width:1"/>
    <text x="1790" y="1530" font-size="10" style="fill:blue">xs:simpleType</text>
    <path d="M1760 1540 C1780 1540 1760 1540 1780 1540" style="fill:transparent;stroke:black"/>
    <rect x="2000" y="1520" width="200" height="40" style="fill:white;stroke:black;stroke-width:1"/>
    <text x="2010" y="1530" font-size="10" style="fill:blue">xs:restriction</text>
    <path d="M1980 1540 C2000 1540 1980 1540 2000 1540" style="fill:transparent;stroke:black"/>
    <text x="2010" y="1540" font-size="8" style="fill:black">base: xs:integer</text>
    <rect x="2220" y="1520" width="200" height="40" style="fill:white;stroke:black;stroke-width:1"/>
    <text x="2230" y="1530" font-size="10" style="fill:blue">xs:minExclusive</text>
    <path d="M2200 1540 C2220 1540 2200 1540 2220 1540" style="fill:transparent;stroke:black"/>
    <text x="2230" y="1540" font-size="8" style="fill:black">value: 0</text>
    <rect x="1560" y="1720" width="200" height="40" style="fill:white;stroke:black;stroke-width:1"/>
    <text x="1570" y="1730" font-size="10" style="fill:blue">xs:element</text>
    <path d="M1540 40 C1560 40 1540 1740 1560 1740" style="fill:transparent;stroke:black"/>
    <text x="1570" y="1740" font-size="8" style="fill:black">name: año</text>
    <text x="1570" y="1750" font-size="8" style="fill:black">minOccurs: 1</text>
    <text x="1570" y="1760" font-size="8" style="fill:black">maxOccurs: 1</text>
    <rect x="1780" y="1720" width="200" height="40" style="fill:white;stroke:black;stroke-width:1"/>
    <text x="1790" y="1730" font-size="10" style="fill:blue">xs:simpleType</text>
    <path d="M1760 1740 C1780 1740 1760 1740 1780 1740" style="fill:transparent;stroke:black"/>
    <rect x="2000" y="1720" width="200" height="40" style="fill:white;stroke:black;stroke-width:1"/>
    <text x="2010" y="1730" font-size="10" style="fill:blue">xs:restriction</text>
    <path d="M1980 1740 C2000 1740 1980 1740 2000 1740" style="fill:transparent;stroke:black"/>
    <text x="2010" y="1740" font-size="8" style="fill:black">base: xs:integer</text>
    <rect x="2220" y="1720" width="200" height="40" style="fill:white;stroke:black;stroke-width:1"/>
    <text x="2230" y="1730" font-size="10" style="fill:blue">xs:minExclusive</text>
    <path d="M2200 1740 C2220 1740 2200 1740 2220 1740" style="fill:transparent;stroke:black"/>
    <text x="2230" y="1740" font-size="8" style="fill:black">value: 1</text>
</svg>